SplineFontDB: 3.0
FontName: GenJyuuGothicL-Monospace-Regular
FullName: Gen Jyuu Gothic L Monospace Regular
FamilyName: Gen Jyuu Gothic L Monospace Regular
Weight: Book
Copyright: [Source Han Sans]\nCopyright (c) 2014, 2015 Adobe Systems Incorporated (http://www.adobe.com/), with Reserved Font Name 'Source'.\n\n[M+ OUTLINE FONTS]\nCopyright(c) 2015 M+ FONTS PROJECT
Version: 1.002.20150607
ItalicAngle: 0
UnderlinePosition: -153
UnderlineWidth: 51
Ascent: 881
Descent: 143
InvalidEm: 0
sfntRevision: 0x00010083
LayerCount: 2
Layer: 0 1 "+gMyXYgAA" 1
Layer: 1 1 "+Uk2XYgAA" 0
HasVMetrics: 1
XUID: [1021 819 1855402343 6547132]
StyleMap: 0x0040
FSType: 8
OS2Version: 1
OS2_WeightWidthSlopeOnly: 0
OS2_UseTypoMetrics: 0
CreationTime: 1420876368
ModificationTime: 1594335061
PfmFamily: 17
TTFWeight: 400
TTFWidth: 5
LineGap: 92
VLineGap: 92
Panose: 2 11 3 9 2 2 3 2 2 7
OS2TypoAscent: 881
OS2TypoAOffset: 0
OS2TypoDescent: -143
OS2TypoDOffset: 0
OS2TypoLinegap: 92
OS2WinAscent: 1101
OS2WinAOffset: 0
OS2WinDescent: 328
OS2WinDOffset: 0
HheadAscent: 1101
HheadAOffset: 0
HheadDescent: -328
HheadDOffset: 0
OS2SubXSize: 666
OS2SubYSize: 716
OS2SubXOff: 0
OS2SubYOff: 143
OS2SupXSize: 666
OS2SupYSize: 716
OS2SupXOff: 0
OS2SupYOff: 490
OS2StrikeYSize: 50
OS2StrikeYPos: 264
OS2FamilyClass: 2057
OS2Vendor: 'MM  '
OS2CodePages: 601201bf.dff70000
OS2UnicodeRanges: e1000aff.6a47fdfb.02000012.00000000
Lookup: 1 0 0 "'vert' Vertical Alternates (obs) lookup 0" { "'vert' Vertical Alternates (obs) lookup 0 subtable"  } ['vert' ('DFLT' <'dflt' > 'cyrl' <'dflt' > 'grek' <'dflt' > 'hani' <'dflt' > 'kana' <'JAN ' 'dflt' > 'latn' <'dflt' > ) ]
Lookup: 1 0 0 "'jp90' JIS90 Forms lookup 1" { "'jp90' JIS90 Forms lookup 1 subtable"  } ['jp90' ('DFLT' <'dflt' > 'cyrl' <'dflt' > 'grek' <'dflt' > 'hani' <'dflt' > 'kana' <'JAN ' 'dflt' > 'latn' <'dflt' > ) ]

StartChar: cid01464
Encoding: 12364 12364 0
Width: 1024
GlyphClass: 3
Flags: W
LayerCount: 2
Fore
SplineSet
1012.34960938 748 m 0,0,1
 1012.34960938 740 1012.34960938 740 1007.84960938 733 c 0,2,3
 1005.15039062 729 1005.15039062 729 997.950195312 725 c 0,4,5
 984.450195312 716 984.450195312 716 966.450195312 715 c 0,6,7
 946.650390625 714 946.650390625 714 934.049804688 721.5 c 128,-1,8
 921.450195312 729 921.450195312 729 921.450195312 742 c 0,9,10
 922.349609375 801 922.349609375 801 916.950195312 848 c 0,11,12
 916.049804688 859 916.049804688 859 927.75 868.5 c 128,-1,13
 939.450195312 878 939.450195312 878 955.650390625 879 c 0,14,15
 967.349609375 880 967.349609375 880 976.349609375 877 c 0,16,17
 982.650390625 875 982.650390625 875 988.049804688 872 c 0,18,19
 1003.34960938 865 1003.34960938 865 1004.25 852 c 0,20,21
 1011.45019531 799 1011.45019531 799 1012.34960938 748 c 0,0,1
843.150390625 739 m 0,22,23
 843.150390625 726 843.150390625 726 829.200195312 716 c 128,-1,24
 815.25 706 815.25 706 797.25 705 c 0,25,26
 777.450195312 704 777.450195312 704 763.950195312 712 c 128,-1,27
 750.450195312 720 750.450195312 720 751.349609375 733 c 0,28,29
 753.150390625 782 753.150390625 782 748.650390625 838 c 0,30,31
 747.75 850 747.75 850 759.900390625 859.5 c 0,32,33
 769.349609375 867 769.349609375 867 790.049804688 869 c 0,34,35
 799.950195312 870 799.950195312 870 808.950195312 868 c 0,36,37
 817.049804688 866 817.049804688 866 822.450195312 863 c 0,38,39
 835.950195312 856 835.950195312 856 836.849609375 843 c 0,40,41
 843.150390625 795 843.150390625 795 843.150390625 739 c 0,22,23
339 766 m 0,42,43
 340 781 340 781 351 790 c 0,44,45
 360 799 360 799 372 799 c 0,46,47
 374 799 374 799 375 798 c 2,48,-1
 401 796 l 2,49,50
 415 795 415 795 423.5 783.5 c 128,-1,51
 432 772 432 772 429 758 c 0,52,53
 426 743 426 743 424 732 c 0,54,55
 421 720 421 720 412.5 671 c 128,-1,56
 404 622 404 622 398 593 c 0,57,58
 398 592 398 592 399 590.5 c 128,-1,59
 400 589 400 589 402 589 c 0,60,61
 480 596 480 596 511 596 c 0,62,63
 588 596 588 596 632 557.5 c 128,-1,64
 676 519 676 519 676 423 c 0,65,66
 676 321 676 321 661.5 219 c 128,-1,67
 647 117 647 117 617 57 c 0,68,69
 594 10 594 10 558.5 -8.5 c 128,-1,70
 523 -27 523 -27 469 -27 c 0,71,72
 432 -27 432 -27 384 -19 c 0,73,74
 368 -16 368 -16 357 -4.5 c 128,-1,75
 346 7 346 7 344 23 c 2,76,-1
 341 40 l 2,77,78
 339 52 339 52 348.5 60 c 128,-1,79
 358 68 358 68 370 65 c 0,80,81
 423 52 423 52 461 52 c 0,82,83
 492 52 492 52 513 63 c 128,-1,84
 534 74 534 74 549 104 c 0,85,86
 572 152 572 152 584.5 238.5 c 128,-1,87
 597 325 597 325 597 414 c 0,88,89
 597 478 597 478 570.5 500 c 128,-1,90
 544 522 544 522 489 522 c 0,91,92
 459 522 459 522 385 515 c 0,93,94
 381 515 381 515 380 511 c 0,95,96
 300 198 300 198 186 2 c 0,97,98
 179 -11 179 -11 164 -16 c 128,-1,99
 149 -21 149 -21 135 -15 c 2,100,-1
 118 -8 l 2,101,102
 105 -3 105 -3 101.5 10 c 128,-1,103
 98 23 98 23 105 34 c 0,104,105
 167 127 167 127 216.5 255.5 c 128,-1,106
 266 384 266 384 297 503 c 0,107,108
 297 504 297 504 296 505.5 c 128,-1,109
 295 507 295 507 293 506 c 0,110,111
 220 499 220 499 170 494 c 0,112,113
 165 493 165 493 145 490.5 c 128,-1,114
 125 488 125 488 114 487 c 0,115,116
 100 485 100 485 88.5 493.5 c 128,-1,117
 77 502 77 502 76 517 c 2,118,-1
 74 535 l 2,119,120
 73 549 73 549 82.5 559.5 c 128,-1,121
 92 570 92 570 106 570 c 0,122,123
 110 570 110 570 115 570 c 0,124,125
 136 570 136 570 161 570 c 0,126,127
 190 571 190 571 310 581 c 0,128,129
 314 582 314 582 315 586 c 0,130,131
 336 693 336 693 339 766 c 0,42,43
731 614 m 0,132,133
 726 622 726 622 726 631 c 0,134,135
 726 634 726 634 727 638 c 0,136,137
 730 651 730 651 742 657 c 2,138,-1
 752 662 l 2,139,140
 761 666 761 666 770 666 c 0,141,142
 776 666 776 666 781 665 c 0,143,144
 796 661 796 661 805 648 c 0,145,146
 843 591 843 591 886 506 c 128,-1,147
 929 421 929 421 957 350 c 0,148,149
 960 343 960 343 960 336 c 128,-1,150
 960 329 960 329 957 322 c 0,151,152
 952 307 952 307 938 301 c 2,153,-1
 923 293 l 2,154,155
 916 290 916 290 909 290 c 0,156,157
 903 290 903 290 897 293 c 0,158,159
 885 298 885 298 880 311 c 0,160,161
 854 387 854 387 813 472 c 128,-1,162
 772 557 772 557 731 614 c 0,132,133
EndSplineSet
LCarets2: 1 0
Ligature2: "'ccmp' Glyph Composition/Decomposition lookup 5 subtable" cid01463 cid01539
EndChar

StartChar: cid01466
Encoding: 12366 12366 1
Width: 1024
GlyphClass: 3
Flags: W
LayerCount: 2
Fore
SplineSet
163 234 m 0,0,1
 167 249 167 249 180 258 c 128,-1,2
 193 267 193 267 208 265 c 2,3,-1
 215 265 l 2,4,5
 229 264 229 264 236.5 252.5 c 128,-1,6
 244 241 244 241 240 228 c 0,7,8
 227 185 227 185 227 159 c 0,9,10
 227 32 227 32 434 32 c 0,11,12
 551 32 551 32 648 48 c 0,13,14
 662 50 662 50 672 41 c 128,-1,15
 682 32 682 32 682 19 c 2,16,-1
 682 8 l 2,17,18
 681 -8 681 -8 671 -19.5 c 128,-1,19
 661 -31 661 -31 646 -33 c 0,20,21
 544 -47 544 -47 436 -47 c 0,22,23
 299 -47 299 -47 224.5 0.5 c 128,-1,24
 150 48 150 48 150 141 c 0,25,26
 150 181 150 181 163 234 c 0,0,1
786 534 m 0,27,28
 799 538 799 538 811.5 531.5 c 128,-1,29
 824 525 824 525 827 511 c 2,30,-1
 827 508 l 2,31,32
 830 493 830 493 822.5 480 c 128,-1,33
 815 467 815 467 801 462 c 0,34,35
 741 444 741 444 667 430 c 0,36,37
 663 429 663 429 664 425 c 0,38,39
 712 323 712 323 738 271 c 0,40,41
 744 259 744 259 744 248 c 0,42,43
 744 232 744 232 733 218 c 0,44,45
 717 198 717 198 692 198 c 0,46,47
 688 198 688 198 683 198 c 0,48,49
 622 207 622 207 547 217 c 0,50,51
 534 219 534 219 525.5 229.5 c 128,-1,52
 517 240 517 240 518.5 253 c 128,-1,53
 520 266 520 266 530.5 274 c 128,-1,54
 541 282 541 282 554 281 c 0,55,56
 606 275 606 275 647 271 c 0,57,58
 648 271 648 271 649 272 c 128,-1,59
 650 273 650 273 649 274 c 0,60,61
 636 302 636 302 587 412 c 0,62,63
 585 416 585 416 580 415 c 0,64,65
 468 401 468 401 326 401 c 0,66,67
 250 401 250 401 167 405 c 0,68,69
 152 405 152 405 141 416 c 128,-1,70
 130 427 130 427 130 442 c 2,71,-1
 129 447 l 2,72,73
 129 461 129 461 139 470.5 c 128,-1,74
 149 480 149 480 163 479 c 0,75,76
 258 472 258 472 344 472 c 0,77,78
 453 472 453 472 550 484 c 0,79,80
 554 484 554 484 552 488 c 2,81,-1
 518 567 l 1,82,-1
 497 615 l 2,83,84
 496 620 496 620 491 619 c 0,85,86
 413 612 413 612 332 612 c 0,87,88
 254 612 254 612 175 618 c 0,89,90
 159 620 159 620 148.5 631 c 128,-1,91
 138 642 138 642 137 657 c 2,92,-1
 137 661 l 2,93,94
 136 675 136 675 146 684.5 c 128,-1,95
 156 694 156 694 169 693 c 0,96,97
 264 684 264 684 350 684 c 0,98,99
 408 684 408 684 461 688 c 0,100,101
 466 688 466 688 464 692 c 0,102,103
 462 698 462 698 458 706.5 c 128,-1,104
 454 715 454 715 453 718 c 0,105,106
 441 744 441 744 433 760 c 0,107,108
 426 771 426 771 431.5 783 c 128,-1,109
 437 795 437 795 450 797 c 2,110,-1
 472 802 l 2,111,112
 487 805 487 805 500 797 c 128,-1,113
 513 789 513 789 518 775 c 0,114,115
 530 738 530 738 544 702 c 0,116,117
 546 697 546 697 550 698 c 0,118,119
 624 707 624 707 688 727 c 0,120,121
 702 731 702 731 714 724 c 128,-1,122
 726 717 726 717 729 703 c 2,123,-1
 729 699 l 2,124,125
 732 685 732 685 724.5 672 c 128,-1,126
 717 659 717 659 702 655 c 0,127,128
 645 639 645 639 578 629 c 0,129,130
 573 629 573 629 575 625 c 2,131,-1
 591 587 l 2,132,133
 594 581 594 581 601 565 c 128,-1,134
 608 549 608 549 615.5 532.5 c 128,-1,135
 623 516 623 516 630 500 c 0,136,137
 632 496 632 496 636 496 c 0,138,139
 716 511 716 511 786 534 c 0,27,28
755.849609375 809 m 0,140,141
 755 817 755 817 759.450195312 822 c 0,142,143
 762 826 762 826 765.75 829 c 0,144,145
 775 837 775 837 794.549804688 839 c 0,146,147
 813 841 813 841 825.150390625 833.5 c 0,148,149
 838 826 838 826 839.549804688 814 c 0,150,151
 849 747 849 747 845.849609375 706 c 0,152,153
 845 694 845 694 831.900390625 684 c 128,-1,154
 819 674 819 674 799.950195312 673 c 0,155,156
 789 672 789 672 781.049804688 674 c 0,157,158
 774 676 774 676 769.349609375 679 c 0,159,160
 758 687 758 687 757.650390625 699 c 0,161,162
 761 767 761 767 755.849609375 809 c 0,140,141
926.549804688 824 m 4,163,164
 925 832 925 832 930.150390625 839 c 4,165,166
 932 842 932 842 935.549804688 844 c 4,167,168
 947 854 947 854 963.450195312 855 c 4,169,170
 976 856 976 856 985.049804688 854 c 4,171,172
 990 853 990 853 994.950195312 850 c 4,173,174
 1008 844 1008 844 1010.25 832 c 4,175,176
 1026 746 1026 746 1020.15039062 712 c 0,177,178
 1019 705 1019 705 1013.84960938 698 c 0,179,180
 1011 694 1011 694 1006.65039062 691 c 0,181,182
 993 680 993 680 976.049804688 679 c 0,183,184
 964 678 964 678 956.25 680 c 0,185,186
 950 682 950 682 944.549804688 685 c 0,187,188
 932 692 932 692 932.849609375 704 c 0,189,190
 934 789 934 789 926.549804688 824 c 4,163,164
EndSplineSet
LCarets2: 1 56
Ligature2: "'ccmp' Glyph Composition/Decomposition lookup 5 subtable" cid01465 cid01539
EndChar

StartChar: cid01468
Encoding: 12368 12368 2
Width: 1024
GlyphClass: 3
Flags: W
LayerCount: 2
Fore
SplineSet
619.150390625 570 m 4,0,1
 618.25 582 618.25 582 631.299804688 591.5 c 132,-1,2
 644.349609375 601 644.349609375 601 661.450195312 602 c 4,3,4
 681.25 603 681.25 603 695.200195312 596 c 132,-1,5
 709.150390625 589 709.150390625 589 709.150390625 576 c 4,6,7
 713.650390625 530 713.650390625 530 712.75 461 c 4,8,9
 712.75 448 712.75 448 698.799804688 438 c 132,-1,10
 684.849609375 428 684.849609375 428 666.849609375 427 c 4,11,12
 647.049804688 426 647.049804688 426 634 434.5 c 132,-1,13
 620.950195312 443 620.950195312 443 620.950195312 455 c 4,14,15
 621.849609375 522 621.849609375 522 619.150390625 570 c 4,0,1
811.75 586 m 4,16,17
 810.849609375 598 810.849609375 598 823.450195312 608 c 132,-1,18
 836.049804688 618 836.049804688 618 852.25 619 c 4,19,20
 873.849609375 621 873.849609375 621 887.799804688 613.5 c 132,-1,21
 901.75 606 901.75 606 902.650390625 593 c 4,22,23
 913.450195312 509 913.450195312 509 909.849609375 480 c 4,24,25
 908.950195312 472 908.950195312 472 904.450195312 466 c 4,26,27
 900.849609375 461 900.849609375 461 896.349609375 458 c 4,28,29
 880.150390625 447 880.150390625 447 863.950195312 446 c 4,30,31
 844.150390625 445 844.150390625 445 831.549804688 453 c 132,-1,32
 818.950195312 461 818.950195312 461 818.049804688 474 c 4,33,34
 817.150390625 508 817.150390625 508 811.75 586 c 4,16,17
608 792 m 0,35,36
 617 803 617 803 631 805 c 0,37,38
 633 805 633 805 635 805 c 0,39,40
 647 805 647 805 656 797 c 2,41,-1
 679 776 l 2,42,43
 689 767 689 767 689 753 c 128,-1,44
 689 739 689 739 678 730 c 0,45,46
 670 724 670 724 655.5 712 c 128,-1,47
 641 700 641 700 636 695 c 0,48,49
 605 668 605 668 552.5 625 c 128,-1,50
 500 582 500 582 433.5 528 c 128,-1,51
 367 474 367 474 346 457 c 0,52,53
 300 417 300 417 300 396 c 128,-1,54
 300 375 300 375 349 334 c 0,55,56
 573 155 573 155 703 31 c 0,57,58
 713 21 713 21 713 7 c 0,59,60
 713 -8 713 -8 702 -18 c 2,61,-1
 682 -36 l 2,62,63
 671 -46 671 -46 658 -46 c 0,64,65
 657 -46 657 -46 656 -45 c 0,66,67
 642 -45 642 -45 632 -34 c 0,68,69
 627 -30 627 -30 610.5 -13 c 128,-1,70
 594 4 594 4 586 13 c 0,71,72
 514 90 514 90 266 295 c 0,73,74
 218 335 218 335 205 367 c 0,75,76
 199 381 199 381 199 394 c 0,77,78
 199 412 199 412 208 428 c 0,79,80
 225 457 225 457 272 498 c 0,81,82
 289 511 289 511 362 570.5 c 128,-1,83
 435 630 435 630 488 675.5 c 128,-1,84
 541 721 541 721 571 753 c 0,85,86
 591 772 591 772 608 792 c 0,35,36
EndSplineSet
LCarets2: 1 0
Ligature2: "'ccmp' Glyph Composition/Decomposition lookup 5 subtable" cid01467 cid01539
EndChar

StartChar: cid01470
Encoding: 12370 12370 3
Width: 1024
GlyphClass: 3
Flags: W
LayerCount: 2
Fore
SplineSet
866.150390625 720 m 4,0,1
 866.150390625 708 866.150390625 708 854 698.5 c 132,-1,2
 841.849609375 689 841.849609375 689 824.75 686.5 c 132,-1,3
 807.650390625 684 807.650390625 684 795.950195312 691 c 132,-1,4
 784.25 698 784.25 698 784.25 709 c 4,5,6
 782.450195312 767 782.450195312 767 777.049804688 812 c 4,7,8
 776.150390625 822 776.150390625 822 786.049804688 831 c 132,-1,9
 795.950195312 840 795.950195312 840 812.150390625 841 c 4,10,11
 829.25 842 829.25 842 841.849609375 836.5 c 132,-1,12
 854.450195312 831 854.450195312 831 856.25 821 c 4,13,14
 863.450195312 774 863.450195312 774 866.150390625 720 c 4,0,1
156 727 m 0,15,16
 157 742 157 742 168 751.5 c 128,-1,17
 179 761 179 761 193 759 c 2,18,-1
 218 757 l 2,19,20
 231 756 231 756 239 744.5 c 128,-1,21
 247 733 247 733 243 720 c 0,22,23
 238 700 238 700 236 688 c 0,24,25
 190 486 190 486 190 332 c 0,26,27
 190 242 190 242 206 168 c 0,28,29
 206 167 206 167 207 167 c 128,-1,30
 208 167 208 167 208 168 c 0,31,32
 242 267 242 267 251 293 c 0,33,34
 255 302 255 302 264.5 305.5 c 128,-1,35
 274 309 274 309 283 304 c 0,36,37
 292 298 292 298 296 287 c 128,-1,38
 300 276 300 276 297 265 c 0,39,40
 254 138 254 138 240 66 c 0,41,42
 234 41 234 41 234 26 c 0,43,44
 234 6 234 6 226 -4 c 0,45,46
 217 -16 217 -16 202 -18 c 256,47,48
 187 -20 187 -20 174 -11.5 c 128,-1,49
 161 -3 161 -3 157 12 c 0,50,51
 114 168 114 168 114 299 c 0,52,53
 114 346 114 346 116.5 392.5 c 128,-1,54
 119 439 119 439 124.5 488 c 128,-1,55
 130 537 130 537 133.5 564 c 128,-1,56
 137 591 137 591 144.5 641 c 128,-1,57
 152 691 152 691 153 696 c 0,58,59
 155 710 155 710 156 727 c 0,15,16
664 734 m 0,60,61
 662 748 662 748 670.5 758.5 c 128,-1,62
 679 769 679 769 693 769 c 2,63,-1
 718 769 l 2,64,65
 732 769 732 769 741.5 758.5 c 128,-1,66
 751 748 751 748 750 734 c 0,67,68
 750 723 750 723 750 710 c 0,69,70
 750 708 750 708 750 704 c 0,71,72
 750 681 750 681 752 564 c 0,73,74
 752 559 752 559 756 559 c 0,75,76
 834 566 834 566 894 577 c 0,77,78
 907 580 907 580 918 571.5 c 128,-1,79
 929 563 929 563 929 549 c 2,80,-1
 929 535 l 2,81,82
 929 520 929 520 919 508 c 128,-1,83
 909 496 909 496 894 494 c 0,84,85
 834 486 834 486 757 482 c 0,86,87
 753 481 753 481 753 477 c 2,88,-1
 753 453 l 2,89,90
 753 405 753 405 752.5 380 c 128,-1,91
 752 355 752 355 750.5 314 c 128,-1,92
 749 273 749 273 745.5 249.5 c 128,-1,93
 742 226 742 226 736 191 c 128,-1,94
 730 156 730 156 720.5 134 c 128,-1,95
 711 112 711 112 697 83.5 c 128,-1,96
 683 55 683 55 665 33.5 c 128,-1,97
 647 12 647 12 622.5 -11 c 128,-1,98
 598 -34 598 -34 568 -55 c 0,99,100
 555 -63 555 -63 541 -63 c 0,101,102
 540 -63 540 -63 538 -63 c 0,103,104
 522 -62 522 -62 510 -52 c 2,105,-1
 490 -36 l 2,106,107
 480 -29 480 -29 481.5 -17 c 128,-1,108
 483 -5 483 -5 494 1 c 0,109,110
 535 24 535 24 561 49 c 0,111,112
 593 77 593 77 614.5 110 c 128,-1,113
 636 143 636 143 648 174.5 c 128,-1,114
 660 206 660 206 666 255 c 128,-1,115
 672 304 672 304 673.5 344 c 128,-1,116
 675 384 675 384 675 453 c 2,117,-1
 675 473 l 2,118,119
 675 477 675 477 670 477 c 0,120,121
 597 475 597 475 559 475 c 0,122,123
 506 475 506 475 431 479 c 0,124,125
 416 480 416 480 405.5 491 c 128,-1,126
 395 502 395 502 395 517 c 2,127,-1
 395 528 l 2,128,129
 395 542 395 542 405.5 551 c 128,-1,130
 416 560 416 560 430 559 c 0,131,132
 498 552 498 552 558 552 c 0,133,134
 594 552 594 552 669 554 c 0,135,136
 674 554 674 554 674 558 c 0,137,138
 669 686 669 686 668 710 c 0,139,140
 667 722 667 722 664 734 c 0,60,61
932.75 820 m 0,141,142
 931 825 931 825 933.650390625 830 c 0,143,144
 935 834 935 834 940.849609375 839 c 0,145,146
 951 848 951 848 965.150390625 850 c 0,147,148
 973 851 973 851 980.450195312 850 c 0,149,150
 989 849 989 849 995.75 846 c 0,151,152
 1007 840 1007 840 1009.25 829 c 0,153,154
 1021 760 1021 760 1020.95019531 728 c 0,155,156
 1021 723 1021 723 1019.15039062 719 c 0,157,158
 1016 713 1016 713 1011.04980469 708 c 0,159,160
 995 696 995 696 982.25 696 c 0,161,162
 975 696 975 696 968.75 696 c 0,163,164
 961 697 961 697 953.450195312 701 c 0,165,166
 942 708 942 708 940.849609375 718 c 0,167,168
 939 801 939 801 932.75 820 c 0,141,142
EndSplineSet
LCarets2: 1 0
Ligature2: "'ccmp' Glyph Composition/Decomposition lookup 5 subtable" cid01469 cid01539
EndChar

StartChar: cid01472
Encoding: 12372 12372 4
Width: 1024
GlyphClass: 3
Flags: W
LayerCount: 2
Fore
SplineSet
763.900390625 824 m 0,0,1
 763 836 763 836 775.150390625 845.5 c 128,-1,2
 787.299804688 855 787.299804688 855 805.299804688 855 c 0,3,4
 825.099609375 856 825.099609375 856 838.599609375 848.5 c 128,-1,5
 852.099609375 841 852.099609375 841 853.900390625 829 c 0,6,7
 859.299804688 783 859.299804688 783 858.400390625 725 c 0,8,9
 858.400390625 712 858.400390625 712 844.450195312 701.5 c 128,-1,10
 830.5 691 830.5 691 811.599609375 690 c 0,11,12
 791.799804688 689 791.799804688 689 779.650390625 696.5 c 128,-1,13
 767.5 704 767.5 704 768.400390625 718 c 0,14,15
 770.200195312 776 770.200195312 776 763.900390625 824 c 0,0,1
925.799804688 843 m 0,16,17
 925 854 925 854 937.049804688 863.5 c 0,18,19
 947 871 947 871 965.400390625 874 c 0,20,21
 974 875 974 875 987.900390625 873 c 0,22,23
 993 872 993 872 999.599609375 868 c 0,24,25
 1013 861 1013 861 1014.90039062 848 c 0,26,27
 1022 791 1022 791 1022.09960938 735 c 0,28,29
 1022 727 1022 727 1016.70019531 720 c 0,30,31
 1014 716 1014 716 1008.59960938 712 c 0,32,33
 995 703 995 703 976.200195312 702 c 256,34,35
 956 701 956 701 943.349609375 708.5 c 0,36,37
 930 716 930 716 931.200195312 730 c 0,38,39
 932 766 932 766 925.799804688 843 c 0,16,17
260 620 m 0,40,41
 245 621 245 621 234.5 632 c 128,-1,42
 224 643 224 643 224 658 c 2,43,-1
 224 671 l 2,44,45
 224 685 224 685 234.5 694.5 c 128,-1,46
 245 704 245 704 259 703 c 0,47,48
 357 693 357 693 493 693 c 0,49,50
 602 693 602 693 731 704 c 0,51,52
 732 704 732 704 734 704 c 0,53,54
 746 704 746 704 755 696 c 0,55,56
 766 686 766 686 766 672 c 2,57,-1
 766 659 l 2,58,59
 766 644 766 644 755.5 633 c 128,-1,60
 745 622 745 622 730 621 c 0,61,62
 589 611 589 611 493 611 c 0,63,64
 370 611 370 611 260 620 c 0,40,41
175 271 m 0,65,66
 178 286 178 286 191 294 c 0,67,68
 202 302 202 302 214 302 c 0,69,70
 216 302 216 302 219 302 c 2,71,-1
 231 300 l 2,72,73
 245 299 245 299 252.5 287.5 c 128,-1,74
 260 276 260 276 257 263 c 0,75,76
 246 219 246 219 246 182 c 0,77,78
 246 123 246 123 307 87.5 c 128,-1,79
 368 52 368 52 485 52 c 0,80,81
 671 52 671 52 798 82 c 0,82,83
 811 85 811 85 822 77 c 128,-1,84
 833 69 833 69 833 56 c 2,85,-1
 833 40 l 2,86,87
 833 24 833 24 823.5 11.5 c 128,-1,88
 814 -1 814 -1 799 -4 c 0,89,90
 671 -32 671 -32 487 -32 c 0,91,92
 332 -32 332 -32 247 18.5 c 128,-1,93
 162 69 162 69 162 164 c 0,94,95
 162 211 162 211 175 271 c 0,65,66
EndSplineSet
LCarets2: 1 0
Ligature2: "'ccmp' Glyph Composition/Decomposition lookup 5 subtable" cid01471 cid01539
EndChar

StartChar: cid01474
Encoding: 12374 12374 5
Width: 1024
GlyphClass: 3
Flags: W
LayerCount: 2
Fore
SplineSet
195 277 m 0,0,1
 199 292 199 292 212 301 c 128,-1,2
 225 310 225 310 240 308 c 2,3,-1
 252 307 l 2,4,5
 266 306 266 306 273 295 c 128,-1,6
 280 284 280 284 276 271 c 0,7,8
 259 215 259 215 259 177 c 0,9,10
 259 34 259 34 471 34 c 0,11,12
 600 34 600 34 703 54 c 0,13,14
 716 57 716 57 726.5 48.5 c 128,-1,15
 737 40 737 40 737 26 c 2,16,-1
 737 13 l 2,17,18
 737 -2 737 -2 726.5 -14 c 128,-1,19
 716 -26 716 -26 701 -29 c 0,20,21
 596 -46 596 -46 470 -46 c 0,22,23
 329 -46 329 -46 253 7 c 128,-1,24
 177 60 177 60 177 157 c 0,25,26
 177 206 177 206 195 277 c 0,0,1
761 810 m 0,27,28
 760 822 760 822 773.5 831.5 c 0,29,30
 789 842 789 842 798 843 c 0,31,32
 820 844 820 844 835.5 836.5 c 128,-1,33
 851 829 851 829 852 816 c 0,34,35
 856 762 856 762 856 710 c 0,36,37
 856 698 856 698 853 694.5 c 128,-1,38
 850 691 850 691 848 689 c 0,39,40
 844.363636364 687.181818182 844.363636364 687.181818182 845 684 c 2,41,-1
 853 644 l 2,42,43
 856 630 856 630 847.5 617 c 0,44,45
 838 602 838 602 825 600 c 0,46,47
 727 581 727 581 673 568 c 0,48,49
 669 567 669 567 671 563 c 0,50,51
 726 439 726 439 789 314 c 0,52,53
 796 300 796 300 794 285 c 128,-1,54
 792 270 792 270 781 259 c 0,55,56
 763 240 763 240 737 240 c 0,57,58
 731 240 731 240 724 241 c 0,59,60
 619 258 619 258 580 261 c 0,61,62
 567 262 567 262 558.5 273 c 128,-1,63
 550 284 550 284 551 297 c 0,64,65
 553 311 553 311 564 320 c 128,-1,66
 575 329 575 329 589 327 c 0,67,68
 692 316 692 316 695 316 c 0,69,70
 696 316 696 316 697 317 c 128,-1,71
 698 318 698 318 697 320 c 0,72,73
 611 511 611 511 591 551 c 0,74,75
 589 555 589 555 584 554 c 0,76,77
 485 542 485 542 371 542 c 0,78,79
 286 542 286 542 193 549 c 0,80,81
 178 550 178 550 167 561.5 c 128,-1,82
 156 573 156 573 156 587 c 2,83,-1
 156 598 l 2,84,85
 156 613 156 613 166 622 c 128,-1,86
 176 631 176 631 190 630 c 0,87,88
 288 619 288 619 384 619 c 0,89,90
 520 619 520 619 552 627 c 0,91,92
 555.846153846 627.961538462 555.846153846 627.961538462 554 632 c 2,93,-1
 522 702 l 2,94,95
 507 739 507 739 497 757 c 0,96,97
 491 768 491 768 496.5 779.5 c 0,98,99
 502.208860759 791.436708861 502.208860759 791.436708861 514 794 c 2,100,-1
 537 799 l 2,101,102
 551 802 551 802 564.5 794.5 c 128,-1,103
 578 787 578 787 583 772 c 0,104,105
 618 676 618 676 635 643 c 0,106,107
 637 639 637 639 641 640 c 0,108,109
 667.076980564 643.067880066 667.076980564 643.067880066 812 680 c 0,110,111
 761 667 761 667 762 685 c 0,112,113
 766 747 766 747 761 810 c 0,27,28
922 835 m 4,114,115
 921 842 921 842 927 849 c 4,116,117
 930 853 930 853 934 856 c 4,118,119
 946 864 946 864 966 866 c 4,120,121
 974 867 974 867 982 865 c 4,122,123
 989 863 989 863 996 860 c 4,124,125
 1014 851 1014 851 1014 840 c 4,126,127
 1018 728 1018 728 1021 707 c 0,128,129
 1022 699 1022 699 1016 693 c 0,130,131
 1012 688 1012 688 1006 685 c 0,132,133
 987 672 987 672 977 673 c 0,134,135
 964 674 964 674 955 674 c 256,136,137
 953 674 953 674 941 680 c 0,138,139
 926 687 926 687 927 701 c 0,140,141
 929 790 929 790 922 835 c 4,114,115
EndSplineSet
LCarets2: 1 0
Ligature2: "'ccmp' Glyph Composition/Decomposition lookup 5 subtable" cid01473 cid01539
EndChar

StartChar: cid01476
Encoding: 12376 12376 6
Width: 1024
GlyphClass: 3
Flags: W
LayerCount: 2
Fore
SplineSet
547.849609375 698 m 4,0,1
 546.049804688 710 546.049804688 710 559.549804688 720.5 c 132,-1,2
 573.049804688 731 573.049804688 731 590.150390625 731 c 4,3,4
 611.75 733 611.75 733 627.049804688 725 c 132,-1,5
 642.349609375 717 642.349609375 717 642.349609375 703 c 4,6,7
 650.450195312 636 650.450195312 636 649.549804688 577 c 4,8,9
 649.549804688 563 649.549804688 563 634.700195312 552.5 c 132,-1,10
 619.849609375 542 619.849609375 542 599.150390625 540 c 4,11,12
 577.549804688 538 577.549804688 538 564.049804688 546.5 c 132,-1,13
 550.549804688 555 550.549804688 555 550.549804688 570 c 4,14,15
 553.25 641 553.25 641 547.849609375 698 c 4,0,1
762.950195312 704 m 4,16,17
 761.150390625 716 761.150390625 716 773.75 726.5 c 132,-1,18
 786.349609375 737 786.349609375 737 804.349609375 738 c 4,19,20
 825.049804688 740 825.049804688 740 839.900390625 732.5 c 132,-1,21
 854.75 725 854.75 725 857.450195312 711 c 4,22,23
 866.450195312 646 866.450195312 646 869.150390625 587 c 4,24,25
 869.150390625 573 869.150390625 573 854.299804688 562.5 c 132,-1,26
 839.450195312 552 839.450195312 552 818.75 550 c 260,27,28
 798.049804688 548 798.049804688 548 784.099609375 556 c 132,-1,29
 770.150390625 564 770.150390625 564 769.25 578 c 4,30,31
 770.150390625 649 770.150390625 649 762.950195312 704 c 4,16,17
238 754 m 0,32,33
 236 768 236 768 245 778.5 c 128,-1,34
 254 789 254 789 268 789 c 2,35,-1
 300 789 l 2,36,37
 314 789 314 789 323.5 778 c 128,-1,38
 333 767 333 767 331 753 c 0,39,40
 328 723 328 723 326 687 c 0,41,42
 313 343 313 343 313 180 c 0,43,44
 313 102 313 102 358.5 66.5 c 128,-1,45
 404 31 404 31 480 31 c 0,46,47
 596 31 596 31 678.5 80 c 128,-1,48
 761 129 761 129 823 212 c 0,49,50
 831 223 831 223 844.5 223 c 128,-1,51
 858 223 858 223 866 213 c 2,52,-1
 878 198 l 2,53,54
 888 185 888 185 888 169 c 0,55,56
 888 154 888 154 879 142 c 0,57,58
 722 -53 722 -53 477 -53 c 0,59,60
 231 -53 231 -53 231 173 c 0,61,62
 231 254 231 254 236.5 446.5 c 128,-1,63
 242 639 242 639 242 687 c 0,64,65
 242 723 242 723 238 754 c 0,32,33
EndSplineSet
LCarets2: 1 56
Ligature2: "'ccmp' Glyph Composition/Decomposition lookup 5 subtable" cid01475 cid01539
EndChar

StartChar: cid01478
Encoding: 12378 12378 7
Width: 1024
GlyphClass: 3
Flags: W
LayerCount: 2
Fore
SplineSet
1006.4296875 736 m 0,0,1
 1006 728 1006 728 1002.37988281 721 c 0,2,3
 999 716 999 716 993.469726562 712 c 0,4,5
 978 701 978 701 962.689453125 700 c 256,6,7
 945 699 945 699 933.125 707.5 c 0,8,9
 921 717 921 717 920.5703125 729 c 0,10,11
 921 800 921 800 916.51953125 836 c 0,12,13
 915 848 915 848 927.049804688 858.5 c 128,-1,14
 939 869 939 869 954.58984375 870 c 0,15,16
 965 871 965 871 974.030273438 868 c 0,17,18
 979 866 979 866 985.370117188 863 c 0,19,20
 998 855 998 855 999.950195312 841 c 0,21,22
 1008 760 1008 760 1006.4296875 736 c 0,0,1
822.669921875 736 m 4,23,24
 823 723 823 723 809.709960938 712.5 c 4,25,26
 798 703 798 703 778.9296875 701 c 4,27,28
 761 699 761 699 748.5546875 707.5 c 132,-1,29
 736 716 736 716 736.810546875 730 c 4,30,31
 737 777 737 777 733.5703125 830 c 4,32,33
 733 842 733 842 744.504882812 852 c 132,-1,34
 756 862 756 862 771.639648438 863 c 4,35,36
 775 863 775 863 791.080078125 861 c 4,37,38
 797 860 797 860 803.23046875 857 c 4,39,40
 815 851 815 851 817 835 c 4,41,42
 822 796 822 796 822.669921875 736 c 4,23,24
462 228 m 0,43,44
 508 228 508 228 533 264 c 0,45,46
 553 293 553 293 553 342 c 0,47,48
 553 355 553 355 551 368 c 0,49,50
 551 373 551 373 549 377 c 0,51,52
 525 435 525 435 462 435 c 0,53,54
 420 435 420 435 389.5 405.5 c 128,-1,55
 359 376 359 376 359 329 c 0,56,57
 359 283 359 283 389 255.5 c 128,-1,58
 419 228 419 228 462 228 c 0,43,44
606 672 m 0,59,60
 606 668 606 668 611 668 c 2,61,-1
 621 668 l 2,62,-1
 876 667 l 0,63,64
 891 667 891 667 901 656.5 c 128,-1,65
 911 646 911 646 911 631 c 2,66,-1
 911 625 l 2,67,68
 911 611 911 611 900.5 601 c 128,-1,69
 890 591 890 591 875 591 c 0,70,71
 781 595 781 595 620 595 c 2,72,-1
 611 595 l 2,73,74
 606 595 606 595 606 590 c 0,75,76
 608 521 608 521 608 433 c 0,77,78
 608 428 608 428 610 424 c 0,79,80
 640 371 640 371 640 299 c 0,81,82
 640 247 640 247 627 199.5 c 128,-1,83
 614 152 614 152 585 104.5 c 128,-1,84
 556 57 556 57 501.5 17 c 128,-1,85
 447 -23 447 -23 372 -50 c 0,86,87
 361 -54 361 -54 352 -54 c 0,88,89
 330 -54 330 -54 313 -37 c 2,90,-1
 294 -18 l 2,91,92
 285 -9 285 -9 288.5 1.5 c 0,93,94
 292 13 292 13 303 16 c 0,95,96
 534 81 534 81 534 178 c 0,97,98
 534 179 534 179 533.5 179.5 c 128,-1,99
 533 180 533 180 532 180 c 0,100,101
 498 157 498 157 450 157 c 0,102,103
 382 157 382 157 332.5 203 c 128,-1,104
 283 249 283 249 283 328 c 0,105,106
 283 402 283 402 336 453.5 c 128,-1,107
 389 505 389 505 462 505 c 0,108,109
 485 505 485 505 525 495 c 0,110,111
 529.044077135 493.988980716 529.044077135 493.988980716 529 498 c 2,112,-1
 528 589 l 2,113,114
 528 594 528 594 524 594 c 0,115,116
 290 592 290 592 111 579 c 0,117,118
 97 578 97 578 86 587.5 c 0,119,120
 74 598 74 598 74 612 c 2,121,-1
 74 621 l 2,122,123
 74 636 74 636 84 646.5 c 128,-1,124
 94 657 94 657 108.5 657 c 128,-1,125
 123 657 123 657 282.5 661 c 0,126,127
 522 667 522 667 523 667 c 0,128,129
 527 667 527 667 527 671 c 0,130,131
 527 681 527 681 526.5 695 c 128,-1,132
 526 709 526 709 526 718 c 128,-1,133
 526 727 526 727 525 733 c 0,134,135
 525 746 525 746 523 762 c 0,136,137
 522 776 522 776 531 786.5 c 128,-1,138
 540 797 540 797 554 797 c 2,139,-1
 577 797 l 2,140,141
 591 797 591 797 600.5 786.5 c 128,-1,142
 610 776 610 776 609 761 c 0,143,144
 607 742 607 742 607 733 c 0,145,146
 607 727 607 727 606.5 706 c 128,-1,147
 606 685 606 685 606 672 c 0,59,60
EndSplineSet
LCarets2: 1 0
Ligature2: "'ccmp' Glyph Composition/Decomposition lookup 5 subtable" cid01477 cid01539
EndChar

StartChar: cid01480
Encoding: 12380 12380 8
Width: 1024
GlyphClass: 3
Flags: W
LayerCount: 2
Fore
SplineSet
869.25 709 m 4,0,1
 870.150390625 698 870.150390625 698 858 689 c 132,-1,2
 845.849609375 680 845.849609375 680 828.75 678 c 132,-1,3
 811.650390625 676 811.650390625 676 799.049804688 682 c 132,-1,4
 786.450195312 688 786.450195312 688 786.450195312 700 c 4,5,6
 784.650390625 768 784.650390625 768 780.150390625 813 c 4,7,8
 779.25 823 779.25 823 789.150390625 832 c 132,-1,9
 799.049804688 841 799.049804688 841 815.25 843 c 260,10,11
 831.450195312 845 831.450195312 845 844.049804688 838.5 c 4,12,13
 855.75 833 855.75 833 857.549804688 821 c 4,14,15
 862.950195312 797 862.950195312 797 869.25 709 c 4,0,1
653 736 m 0,16,17
 652 750 652 750 661.5 760.5 c 128,-1,18
 671 771 671 771 685 771 c 2,19,-1
 701 771 l 2,20,21
 715 771 715 771 724.5 760.5 c 128,-1,22
 734 750 734 750 733 736 c 0,23,24
 732 717 732 717 731 697 c 0,25,26
 731 675 731 675 730.5 628.5 c 128,-1,27
 730 582 730 582 730 561 c 0,28,29
 730 557 730 557 735 557 c 0,30,31
 750 559 750 559 841 564 c 0,32,33
 867 566 867 566 885 567 c 0,34,35
 900 568 900 568 910.5 558 c 128,-1,36
 921 548 921 548 921 534 c 2,37,-1
 921 524 l 2,38,39
 921 509 921 509 910.5 499 c 128,-1,40
 900 489 900 489 885 489 c 0,41,42
 883 489 883 489 865.5 488.5 c 128,-1,43
 848 488 848 488 841 488 c 0,44,45
 766 486 766 486 733 484 c 0,46,47
 728 483 728 483 728 479 c 0,48,49
 724 326 724 326 713 270 c 0,50,51
 706 237 706 237 688 224.5 c 128,-1,52
 670 212 670 212 635 212 c 0,53,54
 604 212 604 212 536 221 c 0,55,56
 521 223 521 223 511 235 c 128,-1,57
 501 247 501 247 502 262 c 2,58,-1
 502 264 l 2,59,60
 502 277 502 277 513 285.5 c 128,-1,61
 524 294 524 294 538 292 c 0,62,63
 578 286 578 286 604 286 c 0,64,65
 624 286 624 286 632 291 c 128,-1,66
 640 296 640 296 642 312 c 0,67,68
 649 361 649 361 653 473 c 0,69,70
 653 477 653 477 649 477 c 0,71,72
 512 466 512 466 334 448 c 0,73,74
 330 447 330 447 330 443 c 0,75,76
 329 341 329 341 329 281 c 0,77,78
 329 218 329 218 330 199 c 0,79,80
 330 177 330 177 330.5 167.5 c 128,-1,81
 331 158 331 158 332.5 141.5 c 128,-1,82
 334 125 334 125 336.5 118 c 128,-1,83
 339 111 339 111 343.5 99.5 c 128,-1,84
 348 88 348 88 354.5 83.5 c 128,-1,85
 361 79 361 79 371 72 c 128,-1,86
 381 65 381 65 394 62.5 c 128,-1,87
 407 60 407 60 424 56.5 c 128,-1,88
 441 53 441 53 462 52 c 128,-1,89
 483 51 483 51 510 51 c 0,90,91
 642 51 642 51 776 69 c 0,92,93
 790 71 790 71 800 62 c 128,-1,94
 810 53 810 53 810 39 c 2,95,-1
 809 24 l 2,96,97
 809 9 809 9 798.5 -2.5 c 128,-1,98
 788 -14 788 -14 773 -15 c 0,99,100
 636 -29 636 -29 514 -29 c 0,101,102
 455 -29 455 -29 413.5 -24.5 c 128,-1,103
 372 -20 372 -20 343 -8 c 128,-1,104
 314 4 314 4 297 18.5 c 128,-1,105
 280 33 280 33 270 60 c 128,-1,106
 260 87 260 87 256.5 114.5 c 128,-1,107
 253 142 253 142 252 187 c 0,108,109
 251 230 251 230 251 435 c 0,110,111
 251 439 251 439 246 439 c 2,112,-1
 143 428 l 2,113,114
 114 424 114 424 75 419 c 0,115,116
 61 417 61 417 49.5 426 c 128,-1,117
 38 435 38 435 36 449 c 2,118,-1
 35 462 l 2,119,120
 34 477 34 477 43.5 487.5 c 128,-1,121
 53 498 53 498 67 498 c 0,122,123
 100 500 100 500 137 503 c 0,124,125
 150 504 150 504 186.5 507.5 c 128,-1,126
 223 511 223 511 246 513 c 0,127,128
 251 513 251 513 251 518 c 2,129,-1
 252 654 l 2,130,131
 252 680 252 680 250 704 c 0,132,133
 249 718 249 718 258 728.5 c 128,-1,134
 267 739 267 739 281 739 c 2,135,-1
 299 739 l 2,136,137
 314 739 314 739 323.5 728.5 c 128,-1,138
 333 718 333 718 333 704 c 0,139,140
 332 682 332 682 332 657 c 2,141,-1
 331 526 l 2,142,143
 331 521 331 521 335 522 c 0,144,145
 569 544 569 544 650 551 c 0,146,147
 654 551 654 551 654 555 c 2,148,-1
 654 695 l 2,149,150
 654 714 654 714 653 736 c 0,16,17
931.950195312 834 m 0,151,152
 930 840 930 840 932.849609375 845 c 256,153,154
 936 850 936 850 940.049804688 854 c 0,155,156
 953 865 953 865 967.049804688 865 c 0,157,158
 974 865 974 865 980.549804688 865 c 0,159,160
 989 864 989 864 996.75 861 c 0,161,162
 1008 856 1008 856 1010.25 843 c 0,163,164
 1022 763 1022 763 1022.84960938 734 c 0,165,166
 1023 731 1023 731 1019.25 723 c 256,167,168
 1016 716 1016 716 1012.04980469 713 c 0,169,170
 997 703 997 703 983.25 701 c 0,171,172
 975 700 975 700 969.75 701 c 0,173,174
 961 702 961 702 953.549804688 706 c 0,175,176
 942 712 942 712 941.849609375 724 c 0,177,178
 941 804 941 804 931.950195312 834 c 0,151,152
EndSplineSet
LCarets2: 1 0
Ligature2: "'ccmp' Glyph Composition/Decomposition lookup 5 subtable" cid01479 cid01539
EndChar

StartChar: cid01482
Encoding: 12382 12382 9
Width: 1024
GlyphClass: 3
Flags: W
LayerCount: 2
Fore
SplineSet
745.799804688 638 m 0,0,1
 745 650 745 650 756.599609375 659 c 128,-1,2
 768 668 768 668 784.5 669 c 0,3,4
 804 670 804 670 816.900390625 663 c 0,5,6
 831 654 831 654 831.299804688 644 c 0,7,8
 832 596 832 596 835.799804688 553 c 0,9,10
 837 541 837 541 822.75 531.5 c 0,11,12
 809 522 809 522 790.349609375 520.5 c 0,13,14
 772 519 772 519 760.200195312 526.5 c 0,15,16
 748 534 748 534 749.400390625 547 c 0,17,18
 751 570 751 570 745.799804688 638 c 0,0,1
910.5 659 m 4,19,20
 908 670 908 670 919.5 679 c 4,21,22
 933 689 933 689 947.400390625 690 c 4,23,24
 967 691 967 691 980.700195312 684.5 c 4,25,26
 995 677 995 677 996 666 c 4,27,28
 999 612 999 612 1003.20019531 570 c 4,29,30
 1004 563 1004 563 998.700195312 556 c 4,31,32
 996 552 996 552 989.700195312 548 c 4,33,34
 978 538 978 538 959.099609375 536.5 c 132,-1,35
 940 535 940 535 928.049804688 542.5 c 132,-1,36
 916 550 916 550 915.900390625 563 c 4,37,38
 917 632 917 632 910.5 659 c 4,19,20
279 682 m 0,39,40
 265 681 265 681 254 690.5 c 128,-1,41
 243 700 243 700 242 714 c 2,42,-1
 241 727 l 2,43,44
 241 741 241 741 251 751 c 128,-1,45
 261 761 261 761 275 760 c 0,46,47
 286 759 286 759 298 759 c 0,48,49
 309 759 309 759 321 760 c 0,50,51
 361 760 361 760 476.5 765 c 128,-1,52
 592 770 592 770 632 775 c 0,53,54
 642 776 642 776 653 778 c 0,55,56
 659 779 659 779 666 779 c 0,57,58
 693 779 693 779 711 759 c 2,59,-1
 716 753 l 2,60,61
 725 742 725 742 723 728.5 c 128,-1,62
 721 715 721 715 710 707 c 0,63,64
 694 696 694 696 685 688 c 0,65,66
 423 472 423 472 385 442 c 0,67,68
 385 441 385 441 385 440.5 c 128,-1,69
 385 440 385 440 386 440 c 0,70,71
 644 467 644 467 827 470 c 0,72,73
 841 470 841 470 851.5 459.5 c 128,-1,74
 862 449 862 449 863 435 c 2,75,-1
 863 429 l 2,76,77
 863 414 863 414 852.5 404 c 128,-1,78
 842 394 842 394 828 395 c 0,79,80
 784 396 784 396 746 396 c 0,81,82
 661 396 661 396 606 388 c 0,83,84
 530 378 530 378 471 321.5 c 128,-1,85
 412 265 412 265 412 197 c 0,86,87
 412 71 412 71 586 48 c 0,88,89
 631 42 631 42 677 42 c 0,90,91
 686 42 686 42 696 42 c 0,92,93
 709 42 709 42 718 32 c 128,-1,94
 727 22 727 22 724 9 c 2,95,-1
 722 -4 l 2,96,97
 719 -19 719 -19 707 -29.5 c 128,-1,98
 695 -40 695 -40 679 -40 c 0,99,100
 676 -40 676 -40 672 -40 c 0,101,102
 508 -40 508 -40 420 16 c 0,103,104
 331 74 331 74 331 184 c 0,105,106
 331 242 331 242 366 293.5 c 128,-1,107
 401 345 401 345 446 372 c 0,108,109
 446 373 446 373 446 373.5 c 128,-1,110
 446 374 446 374 445 374 c 0,111,112
 288 361 288 361 120 335 c 0,113,114
 106 333 106 333 94.5 342 c 128,-1,115
 83 351 83 351 82 365 c 2,116,-1
 81 372 l 2,117,118
 80 387 80 387 89 398.5 c 128,-1,119
 98 410 98 410 113 411 c 0,120,121
 133 413 133 413 156.5 416 c 128,-1,122
 180 419 180 419 207 422.5 c 128,-1,123
 234 426 234 426 247 427 c 0,124,125
 252 428 252 428 256 431 c 0,126,127
 382 518 382 518 582 698 c 0,128,129
 583 699 583 699 582.5 700 c 128,-1,130
 582 701 582 701 581 701 c 0,131,132
 573 701 573 701 460 694 c 128,-1,133
 347 687 347 687 322 685 c 0,134,135
 320 685 320 685 279 682 c 0,39,40
EndSplineSet
LCarets2: 1 0
Ligature2: "'ccmp' Glyph Composition/Decomposition lookup 5 subtable" cid01481 cid01539
EndChar

StartChar: cid01484
Encoding: 12384 12384 10
Width: 1024
GlyphClass: 3
Flags: W
LayerCount: 2
Fore
SplineSet
802.049804688 648 m 4,0,1
 802.049804688 635 802.049804688 635 788.099609375 625 c 132,-1,2
 774.150390625 615 774.150390625 615 754.349609375 614 c 4,3,4
 736.349609375 613 736.349609375 613 723.75 621 c 132,-1,5
 711.150390625 629 711.150390625 629 711.150390625 642 c 4,6,7
 712.950195312 698 712.950195312 698 708.450195312 748 c 4,8,9
 707.549804688 759 707.549804688 759 719.25 768.5 c 132,-1,10
 730.950195312 778 730.950195312 778 748.950195312 780 c 4,11,12
 768.75 781 768.75 781 782.700195312 773.5 c 132,-1,13
 796.650390625 766 796.650390625 766 797.549804688 753 c 4,14,15
 803.849609375 703 803.849609375 703 802.049804688 648 c 4,0,1
555 407 m 0,16,17
 540 406 540 406 529.5 415.5 c 128,-1,18
 519 425 519 425 519 439 c 2,19,-1
 519 445 l 2,20,21
 519 460 519 460 529.5 471 c 128,-1,22
 540 482 540 482 555 483 c 0,23,24
 638 488 638 488 705 488 c 0,25,26
 783 488 783 488 844 484 c 0,27,28
 859 482 859 482 869 471 c 128,-1,29
 879 460 879 460 879 445 c 2,30,-1
 879 438 l 2,31,32
 878 424 878 424 867.5 414.5 c 128,-1,33
 857 405 857 405 842 406 c 0,34,35
 769 414 769 414 707 414 c 0,36,37
 627 414 627 414 555 407 c 0,16,17
550 661 m 0,38,39
 563 664 563 664 574 656 c 128,-1,40
 585 648 585 648 585 634 c 2,41,-1
 585 623 l 2,42,43
 585 608 585 608 575 596 c 128,-1,44
 565 584 565 584 550 581 c 0,45,46
 461 563 461 563 379 554 c 0,47,48
 375 554 375 554 374 549 c 0,49,50
 363 496 363 496 343 419 c 0,51,52
 317 316 317 316 276.5 193 c 128,-1,53
 236 70 236 70 199 -13 c 0,54,55
 193 -27 193 -27 179 -33 c 0,56,57
 171 -36 171 -36 163 -36 c 0,58,59
 157 -36 157 -36 151 -34 c 2,60,-1
 128 -26 l 2,61,62
 115 -22 115 -22 110 -9 c 128,-1,63
 105 4 105 4 111 16 c 0,64,65
 151 95 151 95 194 214.5 c 128,-1,66
 237 334 237 334 264 438 c 0,67,68
 273 472 273 472 289 541 c 0,69,70
 290 546 290 546 285 546 c 0,71,72
 239 543 239 543 198 543 c 0,73,74
 150 543 150 543 115 544 c 0,75,76
 100 545 100 545 89.5 556 c 128,-1,77
 79 567 79 567 79 582 c 2,78,-1
 78 591 l 2,79,80
 78 605 78 605 88 614.5 c 128,-1,81
 98 624 98 624 112 623 c 0,82,83
 150 620 150 620 199 620 c 0,84,85
 230 620 230 620 303 623 c 0,86,87
 307 624 307 624 308 628 c 0,88,89
 316 671 316 671 323 713 c 0,90,91
 325 738 325 738 326 760 c 0,92,93
 327 774 327 774 337 784 c 0,94,95
 346 793 346 793 358 793 c 0,96,97
 360 793 360 793 361 793 c 2,98,-1
 390 790 l 2,99,100
 403 789 403 789 411 778 c 128,-1,101
 419 767 419 767 416 753 c 0,102,103
 414 743 414 743 410.5 726 c 128,-1,104
 407 709 407 709 407 708 c 2,105,-1
 392 637 l 2,106,107
 392 636 392 636 393 634.5 c 128,-1,108
 394 633 394 633 396 633 c 0,109,110
 477 644 477 644 550 661 c 0,38,39
461 206 m 0,111,112
 464 221 464 221 476 230 c 128,-1,113
 488 239 488 239 503 237 c 2,114,-1
 509 237 l 2,115,116
 523 235 523 235 531 224 c 128,-1,117
 539 213 539 213 537 199 c 0,118,119
 530 167 530 167 530 141 c 0,120,121
 530 121 530 121 536.5 106.5 c 128,-1,122
 543 92 543 92 559.5 77.5 c 128,-1,123
 576 63 576 63 611 55.5 c 128,-1,124
 646 48 646 48 697 48 c 0,125,126
 778 48 778 48 860 61 c 0,127,128
 874 63 874 63 884 54.5 c 128,-1,129
 894 46 894 46 894 32 c 2,130,-1
 893 20 l 2,131,132
 893 5 893 5 882.5 -6.5 c 128,-1,133
 872 -18 872 -18 857 -20 c 0,134,135
 770 -30 770 -30 696 -30 c 0,136,137
 453 -30 453 -30 453 121 c 0,138,139
 453 158 453 158 461 206 c 0,111,112
890.25 752 m 4,140,141
 890 760 890 760 894.75 767 c 4,142,143
 897 770 897 770 901.049804688 774 c 4,144,145
 912.027370788 782.476757173 912.027370788 782.476757173 929.849609375 784 c 4,146,147
 942 785 942 785 950.549804688 783 c 4,148,149
 957 781 957 781 963.150390625 778 c 4,150,151
 976 770 976 770 977.549804688 758 c 4,152,153
 988.237264963 664.13324132 988.237264963 664.13324132 986.549804688 651 c 4,154,155
 986 644 986 644 980.25 638 c 4,156,157
 977 633 977 633 971.25 629 c 4,158,159
 957 619 957 619 938.849609375 618 c 4,160,161
 929 617 929 617 919.950195312 619 c 4,162,163
 913 621 913 621 908.25 624 c 4,164,165
 897 632 897 632 895.650390625 646 c 4,166,167
 890 723 890 723 890.25 752 c 4,140,141
EndSplineSet
LCarets2: 1 0
Ligature2: "'ccmp' Glyph Composition/Decomposition lookup 5 subtable" cid01483 cid01539
EndChar

StartChar: cid01486
Encoding: 12386 12386 11
Width: 1024
GlyphClass: 3
Flags: W
LayerCount: 2
Fore
SplineSet
725 675 m 0,0,1
 739 677 739 677 749.5 668.5 c 128,-1,2
 760 660 760 660 760 646 c 2,3,-1
 760 639 l 2,4,5
 761 623 761 623 751 611.5 c 128,-1,6
 741 600 741 600 726 597 c 0,7,8
 548 568 548 568 360 560 c 0,9,10
 355 560 355 560 354 556 c 0,11,12
 320 405 320 405 295 336 c 0,13,14
 295 335 295 335 296 334.5 c 0,15,-1
 297 334 l 1,16,17
 362 380 362 380 428 400 c 128,-1,18
 494 420 494 420 579 420 c 0,19,20
 698 420 698 420 766.5 364.5 c 128,-1,21
 835 309 835 309 835 218 c 0,22,23
 835 119 835 119 772 55.5 c 128,-1,24
 709 -8 709 -8 601 -31 c 0,25,26
 531 -47 531 -47 443 -47 c 0,27,28
 397 -47 397 -47 347 -42 c 0,29,30
 331 -41 331 -41 318.5 -30.5 c 128,-1,31
 306 -20 306 -20 302 -5 c 2,32,-1
 298 8 l 2,33,34
 295 20 295 20 303 29.5 c 128,-1,35
 311 39 311 39 324 38 c 0,36,37
 376 31 376 31 425 31 c 0,38,39
 455 31 455 31 484 33 c 0,40,41
 561 40 561 40 620 59 c 128,-1,42
 679 78 679 78 715 118.5 c 128,-1,43
 751 159 751 159 751 216 c 0,44,45
 751 275 751 275 703.5 312 c 128,-1,46
 656 349 656 349 570 349 c 0,47,48
 477 349 477 349 398 318 c 128,-1,49
 319 287 319 287 270 228 c 0,50,51
 263 219 263 219 257 212 c 0,52,53
 248 199 248 199 233.5 193.5 c 128,-1,54
 219 188 219 188 205 194 c 2,55,-1
 197 197 l 2,56,57
 184 202 184 202 178.5 215 c 128,-1,58
 173 228 173 228 179 241 c 0,59,60
 234 363 234 363 278 555 c 0,61,62
 279 559 279 559 274 559 c 0,63,64
 203 559 203 559 123 565 c 0,65,66
 108 567 108 567 98 578 c 128,-1,67
 88 589 88 589 88 604 c 2,68,-1
 87 614 l 2,69,70
 87 628 87 628 97.5 637 c 128,-1,71
 108 646 108 646 122 644 c 0,72,73
 208 632 208 632 279 632 c 2,74,-1
 288 632 l 2,75,76
 293 632 293 632 294 636 c 0,77,78
 302 679 302 679 305 709 c 0,79,80
 309 735 309 735 310 757 c 0,81,82
 311 772 311 772 321.5 781.5 c 128,-1,83
 332 791 332 791 346 791 c 2,84,-1
 367 789 l 2,85,86
 381 789 381 789 389 777.5 c 128,-1,87
 397 766 397 766 394 753 c 0,88,89
 394 752 394 752 384 702 c 0,90,91
 384 701 384 701 372 638 c 0,92,93
 371 634 371 634 375 634 c 0,94,95
 562 642 562 642 725 675 c 0,0,1
732.349609375 816 m 0,96,97
 731 822 731 822 736.849609375 831 c 0,98,99
 739 834 739 834 744.049804688 837 c 0,100,101
 759 848 759 848 772.849609375 849 c 0,102,103
 793 850 793 850 806.599609375 842.5 c 0,104,105
 821 835 821 835 822.349609375 822 c 0,106,107
 826 788 826 788 825.950195312 717 c 0,108,109
 826 704 826 704 812 694 c 128,-1,110
 798 684 798 684 780.049804688 683 c 0,111,112
 768 682 768 682 760.25 684 c 0,113,114
 754 686 754 686 747.650390625 690 c 0,115,116
 734 698 734 698 735.049804688 710 c 0,117,118
 737 794 737 794 732.349609375 816 c 0,96,97
914.150390625 827 m 0,119,120
 912 834 912 834 917.75 842 c 0,121,122
 920 846 920 846 924.049804688 849 c 0,123,124
 933 857 933 857 952.849609375 860 c 0,125,126
 959 861 959 861 975.349609375 858 c 0,127,128
 982 857 982 857 987.049804688 853 c 0,129,130
 1002 844 1002 844 1002.34960938 832 c 0,131,132
 1002 755 1002 755 1008.65039062 720 c 0,133,134
 1010 713 1010 713 1004.15039062 706 c 0,135,136
 1001 702 1001 702 995.150390625 698 c 0,137,138
 982 688 982 688 962.75 687 c 0,139,140
 953 686 953 686 943.849609375 688 c 0,141,142
 937 690 937 690 932.150390625 693 c 0,143,144
 919 701 919 701 919.549804688 714 c 0,145,146
 920 808 920 808 914.150390625 827 c 0,119,120
EndSplineSet
LCarets2: 1 0
Ligature2: "'ccmp' Glyph Composition/Decomposition lookup 5 subtable" cid01485 cid01539
EndChar

StartChar: cid01489
Encoding: 12389 12389 12
Width: 1024
GlyphClass: 3
Flags: W
LayerCount: 2
Fore
SplineSet
720.349609375 798 m 0,0,1
 719.450195312 809 719.450195312 809 732.049804688 818.5 c 128,-1,2
 744.650390625 828 744.650390625 828 760.849609375 829 c 0,3,4
 780.650390625 830 780.650390625 830 794.150390625 822.5 c 128,-1,5
 807.650390625 815 807.650390625 815 809.450195312 803 c 0,6,7
 814.849609375 752 814.849609375 752 813.049804688 697 c 0,8,9
 813.049804688 684 813.049804688 684 799.099609375 674 c 128,-1,10
 785.150390625 664 785.150390625 664 765.349609375 663 c 0,11,12
 747.349609375 662 747.349609375 662 734.75 670 c 128,-1,13
 722.150390625 678 722.150390625 678 722.150390625 691 c 0,14,15
 726.650390625 743 726.650390625 743 720.349609375 798 c 0,0,1
901.25 807 m 0,16,17
 900 819 900 819 912.049804688 828 c 128,-1,18
 924 837 924 837 940.849609375 839 c 0,19,20
 949 840 949 840 963.349609375 837 c 0,21,22
 969 836 969 836 974.150390625 833 c 0,23,24
 990 825 990 825 990.349609375 813 c 0,25,26
 991 729 991 729 996.650390625 701 c 0,27,28
 998 694 998 694 993.049804688 687 c 0,29,30
 989 682 989 682 983.150390625 679 c 0,31,32
 969 669 969 669 950.75 668 c 256,33,34
 933 667 933 667 919.700195312 674.5 c 0,35,36
 907 682 907 682 906.650390625 696 c 0,37,38
 907 749 907 749 901.25 807 c 0,16,17
135 440 m 0,39,40
 122 434 122 434 108 439.5 c 128,-1,41
 94 445 94 445 89 459 c 2,42,-1
 78 484 l 2,43,44
 76 490 76 490 76 496 c 0,45,46
 76 503 76 503 79 509 c 0,47,48
 86 521 86 521 99 525 c 0,49,50
 135 533 135 533 176 547 c 0,51,52
 186 550 186 550 237.5 567 c 128,-1,53
 289 584 289 584 325 594.5 c 128,-1,54
 361 605 361 605 415 619 c 128,-1,55
 469 633 469 633 518 640 c 128,-1,56
 567 647 567 647 609 647 c 0,57,58
 740 647 740 647 825.5 575 c 128,-1,59
 911 503 911 503 911 379 c 0,60,61
 911 294 911 294 872 226 c 128,-1,62
 833 158 833 158 762 112.5 c 128,-1,63
 691 67 691 67 598 40 c 128,-1,64
 505 13 505 13 392 3 c 0,65,66
 390 3 390 3 388 3 c 0,67,68
 374 3 374 3 362 11 c 0,69,70
 349 19 349 19 343 34 c 2,71,-1
 334 53 l 2,72,73
 329 65 329 65 336 76 c 128,-1,74
 343 87 343 87 356 87 c 0,75,76
 454 93 454 93 535.5 111.5 c 128,-1,77
 617 130 617 130 682.5 164 c 128,-1,78
 748 198 748 198 785 253 c 128,-1,79
 822 308 822 308 822 380 c 0,80,81
 822 463 822 463 764.5 516.5 c 128,-1,82
 707 570 707 570 607 570 c 0,83,84
 453 570 453 570 135 440 c 0,39,40
EndSplineSet
LCarets2: 1 0
Ligature2: "'ccmp' Glyph Composition/Decomposition lookup 5 subtable" cid01488 cid01539
EndChar

StartChar: cid01491
Encoding: 12391 12391 13
Width: 1024
GlyphClass: 3
Flags: W
LayerCount: 2
Fore
SplineSet
673 522 m 0,0,1
 670 533 670 533 683 542.5 c 128,-1,2
 696 552 696 552 714 552 c 0,3,4
 736 553 736 553 751 546 c 128,-1,5
 766 539 766 539 766 527 c 0,6,7
 774 470 774 470 771 419 c 0,8,9
 771 406 771 406 756 396.5 c 128,-1,10
 741 387 741 387 721.5 385.5 c 128,-1,11
 702 384 702 384 688.5 391.5 c 128,-1,12
 675 399 675 399 676 411 c 0,13,14
 678 472 678 472 673 522 c 0,0,1
874 527 m 0,15,16
 871 538 871 538 884 547 c 128,-1,17
 897 556 897 556 916 558 c 0,18,19
 936 559 936 559 951 552 c 128,-1,20
 966 545 966 545 966 533 c 0,21,22
 975 479 975 479 978 424 c 0,23,24
 978 416 978 416 973 410 c 0,25,26
 969 405 969 405 963 402 c 0,27,28
 948 393 948 393 929 391 c 0,29,30
 907 390 907 390 893.5 397.5 c 128,-1,31
 880 405 880 405 882 417 c 0,32,33
 882 477 882 477 874 527 c 0,15,16
129 590 m 0,34,35
 115 588 115 588 103.5 596.5 c 128,-1,36
 92 605 92 605 91 619 c 2,37,-1
 89 638 l 2,38,39
 87 653 87 653 96.5 663.5 c 128,-1,40
 106 674 106 674 120 675 c 0,41,42
 153 677 153 677 175 679 c 0,43,44
 606 719 606 719 620 720 c 0,45,46
 735 730 735 730 857 736 c 0,47,48
 858 736 858 736 859 736 c 0,49,50
 873 736 873 736 882 726 c 0,51,52
 893 716 893 716 893 702 c 2,53,-1
 893 691 l 2,54,55
 893 676 893 676 882.5 665.5 c 128,-1,56
 872 655 872 655 857 655 c 0,57,58
 744 654 744 654 694 639 c 0,59,60
 625 617 625 617 571 562.5 c 128,-1,61
 517 508 517 508 490 444 c 128,-1,62
 463 380 463 380 463 318 c 0,63,64
 463 265 463 265 481 222 c 128,-1,65
 499 179 499 179 528.5 150 c 128,-1,66
 558 121 558 121 599.5 100.5 c 128,-1,67
 641 80 641 80 684.5 69.5 c 128,-1,68
 728 59 728 59 777 54 c 0,69,70
 790 53 790 53 797.5 42 c 128,-1,71
 805 31 805 31 800 19 c 2,72,-1
 794 0 l 2,73,74
 789 -15 789 -15 776 -24 c 0,75,76
 765 -31 765 -31 752 -31 c 0,77,78
 749 -31 749 -31 747 -31 c 0,79,80
 692 -25 692 -25 640.5 -10 c 128,-1,81
 589 5 589 5 541.5 33 c 128,-1,82
 494 61 494 61 458.5 98 c 128,-1,83
 423 135 423 135 402 187.5 c 128,-1,84
 381 240 381 240 381 301 c 0,85,86
 381 411 381 411 435.5 502.5 c 128,-1,87
 490 594 490 594 566 641 c 1,88,89
 566 642 l 0,90,91
 566 643 566 643 565 642.5 c 128,-1,92
 564 642 564 642 454.5 630.5 c 128,-1,93
 345 619 345 619 264.5 609 c 128,-1,94
 184 599 184 599 129 590 c 0,34,35
EndSplineSet
LCarets2: 1 0
Ligature2: "'ccmp' Glyph Composition/Decomposition lookup 5 subtable" cid01490 cid01539
EndChar

StartChar: cid01493
Encoding: 12393 12393 14
Width: 1024
GlyphClass: 3
Flags: W
LayerCount: 2
Fore
SplineSet
696 636 m 0,0,1
 707 644 707 644 720.5 641 c 128,-1,2
 734 638 734 638 741 626 c 2,3,-1
 748 614 l 2,4,5
 755 601 755 601 751 586.5 c 128,-1,6
 747 572 747 572 735 564 c 0,7,8
 716 554 716 554 688 540 c 0,9,10
 685 538 685 538 616.5 503.5 c 128,-1,11
 548 469 548 469 500 442.5 c 128,-1,12
 452 416 452 416 408 386 c 0,13,14
 257 286 257 286 257 181 c 0,15,16
 257 117 257 117 318 81 c 128,-1,17
 379 45 379 45 497 45 c 0,18,19
 653 45 653 45 787 72 c 0,20,21
 800 75 800 75 810.5 66.5 c 128,-1,22
 821 58 821 58 821 44 c 2,23,-1
 821 23 l 2,24,25
 820 8 820 8 810 -4 c 128,-1,26
 800 -16 800 -16 785 -18 c 0,27,28
 653 -37 653 -37 500 -37 c 0,29,30
 426 -37 426 -37 368 -25.5 c 128,-1,31
 310 -14 310 -14 265 10.5 c 128,-1,32
 220 35 220 35 195.5 76 c 128,-1,33
 171 117 171 117 171 172 c 0,34,35
 171 313 171 313 342 434 c 0,36,37
 346 436 346 436 344 440 c 0,38,39
 294 531 294 531 214 714 c 0,40,41
 208 727 208 727 213.5 741 c 128,-1,42
 219 755 219 755 232 760 c 2,43,-1
 248 767 l 2,44,45
 261 772 261 772 274.5 766.5 c 128,-1,46
 288 761 288 761 293 747 c 0,47,48
 345 609 345 609 414 484 c 0,49,50
 416 480 416 480 420 483 c 0,51,52
 472 514 472 514 560 560.5 c 128,-1,53
 648 607 648 607 652 609 c 0,54,55
 680 626 680 626 696 636 c 0,0,1
711.450195312 802 m 0,56,57
 711 807 711 807 716.849609375 817 c 0,58,59
 719 820 719 820 723.150390625 824 c 0,60,61
 735 834 735 834 753.75 835 c 0,62,63
 773 836 773 836 786.599609375 828.5 c 0,64,65
 801 821 801 821 802.349609375 808 c 0,66,67
 806 757 806 757 805.950195312 703 c 0,68,69
 806 690 806 690 792 680.5 c 0,70,71
 775 669 775 669 760.049804688 669 c 0,72,73
 743 669 743 669 740.25 670 c 0,74,75
 734 672 734 672 727.650390625 676 c 0,76,77
 717 683 717 683 715.950195312 697 c 0,78,79
 713 784 713 784 711.450195312 802 c 0,56,57
910.25 817 m 4,80,81
 910 819 910 819 915.650390625 831 c 4,82,83
 917 834 917 834 921.049804688 837 c 4,84,85
 934 847 934 847 949.849609375 848 c 4,86,87
 962 849 962 849 970.549804688 847 c 4,88,89
 978 845 978 845 983.150390625 842 c 4,90,91
 994 838 994 838 998.450195312 822 c 4,92,93
 999 820 999 820 1006.54980469 708 c 4,94,95
 1007 702 1007 702 1001.15039062 694 c 4,96,97
 998 689 998 689 993.049804688 685 c 4,98,99
 978 674 978 674 958.849609375 673 c 4,100,101
 950 673 950 673 939.950195312 676 c 4,102,103
 931 678 931 678 927.349609375 680 c 4,104,105
 916 689 916 689 915.650390625 701 c 4,106,107
 914 789 914 789 910.25 817 c 4,80,81
EndSplineSet
LCarets2: 1 0
Ligature2: "'ccmp' Glyph Composition/Decomposition lookup 5 subtable" cid01492 cid01539
EndChar

StartChar: cid01500
Encoding: 12400 12400 15
Width: 1024
GlyphClass: 3
Flags: W
LayerCount: 2
Fore
SplineSet
796 814 m 4,0,1
 802 807 802 807 796 789 c 4,2,3
 791 775 791 775 779 762.5 c 132,-1,4
 767 750 767 750 752 748 c 4,5,6
 735 745 735 745 729.5 753 c 4,7,8
 721 765 721 765 670 816 c 4,9,10
 663 823 663 823 668 839 c 4,11,12
 671 848 671 848 691 869 c 4,13,14
 706 885 706 885 716 883 c 4,15,16
 727 881 727 881 730 878 c 4,17,18
 752 865 752 865 796 814 c 4,0,1
148 741 m 0,19,20
 149 755 149 755 160 764.5 c 128,-1,21
 171 774 171 774 185 773 c 2,22,-1
 204 771 l 2,23,24
 218 770 218 770 225.5 758.5 c 128,-1,25
 233 747 233 747 230 734 c 0,26,27
 227 723 227 723 222 700 c 0,28,29
 205 620 205 620 188.5 495.5 c 128,-1,30
 172 371 172 371 172 292 c 0,31,32
 172 218 172 218 181 157 c 0,33,34
 181 156 181 156 181.5 156 c 128,-1,35
 182 156 182 156 183 157 c 0,36,37
 203 214 203 214 228 275 c 0,38,39
 232 284 232 284 242 287 c 128,-1,40
 252 290 252 290 260 283 c 0,41,42
 275 271 275 271 275 255 c 0,43,44
 275 248 275 248 272 240 c 0,45,46
 221 97 221 97 210 42 c 0,47,48
 205 19 205 19 205 3 c 0,49,50
 205 0 205 0 205 -2 c 0,51,52
 206 -17 206 -17 196.5 -28.5 c 128,-1,53
 187 -40 187 -40 172 -41 c 2,54,-1
 171 -41 l 2,55,56
 169 -41 169 -41 167 -41 c 0,57,58
 153 -41 153 -41 142 -33 c 0,59,60
 130 -25 130 -25 126 -10 c 0,61,62
 96 120 96 120 96 278 c 0,63,64
 96 305 96 305 98 336.5 c 128,-1,65
 100 368 100 368 102 394.5 c 128,-1,66
 104 421 104 421 108 457 c 128,-1,67
 112 493 112 493 114.5 514.5 c 128,-1,68
 117 536 117 536 122.5 572.5 c 128,-1,69
 128 609 128 609 130 622 c 128,-1,70
 132 635 132 635 137.5 668.5 c 128,-1,71
 143 702 143 702 143 703 c 0,72,73
 146 726 146 726 148 741 c 0,19,20
667 146 m 0,74,75
 667 165 667 165 666 177 c 0,76,77
 666 181 666 181 661 183 c 0,78,79
 614 197 614 197 562 197 c 0,80,81
 506 197 506 197 470 174 c 128,-1,82
 434 151 434 151 434 116 c 0,83,84
 434 79 434 79 467.5 58 c 128,-1,85
 501 37 501 37 556 37 c 0,86,87
 617 37 617 37 642 64.5 c 128,-1,88
 667 92 667 92 667 146 c 0,74,75
869 607 m 0,89,90
 883 609 883 609 893.5 600.5 c 128,-1,91
 904 592 904 592 904 578 c 2,92,-1
 904 569 l 2,93,94
 904 554 904 554 894 542 c 128,-1,95
 884 530 884 530 869 528 c 0,96,97
 775 516 775 516 736 516 c 0,98,99
 730 516 730 516 731 512 c 0,100,101
 743 467 743 467 743 233 c 0,102,103
 743 228 743 228 748 227 c 0,104,105
 803 204 803 204 916 119 c 0,106,107
 928 110 928 110 930 94 c 0,108,109
 932 80 932 80 924 67 c 2,110,-1
 919 59 l 2,111,112
 912 48 912 48 897 46 c 0,113,114
 883 44 883 44 873 54 c 0,115,116
 800 119 800 119 750 144 c 0,117,118
 746 146 746 146 746 142 c 2,119,-1
 746 127 l 2,120,121
 746 93 746 93 737.5 65 c 128,-1,122
 729 37 729 37 710 13 c 128,-1,123
 691 -11 691 -11 655.5 -25 c 128,-1,124
 620 -39 620 -39 570 -39 c 0,125,126
 469 -39 469 -39 414 0 c 128,-1,127
 359 39 359 39 359 109 c 0,128,129
 359 175 359 175 415.5 218.5 c 128,-1,130
 472 262 472 262 568 262 c 0,131,132
 617 262 617 262 658 254 c 0,133,134
 663 253 663 253 662 258 c 0,135,136
 652 502 652 502 652 507 c 256,137,138
 652 512 652 512 648 512 c 0,139,140
 587 510 587 510 555 510 c 0,141,142
 497 510 497 510 421 515 c 0,143,144
 406 516 406 516 395.5 527 c 128,-1,145
 385 538 385 538 385 553 c 2,146,-1
 385 558 l 2,147,148
 385 573 385 573 395.5 582.5 c 128,-1,149
 406 592 406 592 420 590 c 0,150,151
 503 584 503 584 557 585 c 0,152,153
 589 586 589 586 648 587 c 0,154,155
 652 587 652 587 652 591 c 2,156,-1
 652 640 l 2,157,158
 652 651 652 651 651 667 c 0,159,160
 650 681 650 681 660 691.5 c 128,-1,161
 670 702 670 702 684 702 c 2,162,-1
 705 702 l 2,163,164
 719 702 719 702 728 691.5 c 128,-1,165
 737 681 737 681 736 667 c 0,166,167
 735 654 735 654 734 641 c 0,168,-1
 731 592 l 0,169,-1
 736 592 l 0,170,171
 798 597 798 597 869 607 c 0,89,90
887 819 m 0,172,173
 880 824 880 824 881 828 c 0,174,175
 882 834 882 834 884 840 c 0,176,177
 891 859 891 859 904 869 c 0,178,179
 909 873 909 873 916 877 c 0,180,181
 923 882 923 882 932 884 c 0,182,183
 948 887 948 887 957 880 c 0,184,-1
 1014 818 l 0,185,186
 1018 814 1018 814 1019 808 c 256,187,188
 1019 798 1019 798 1017 794 c 0,189,190
 1009 769 1009 769 1001 763.5 c 128,-1,191
 993 758 993 758 988 754 c 0,192,193
 986 752 986 752 969 749 c 0,194,195
 954 746 954 746 946 756 c 0,196,197
 899 810 899 810 887 819 c 0,172,173
EndSplineSet
LCarets2: 1 0
Ligature2: "'ccmp' Glyph Composition/Decomposition lookup 5 subtable" cid01499 cid01539
EndChar

StartChar: cid01503
Encoding: 12403 12403 16
Width: 1024
GlyphClass: 3
Flags: W
LayerCount: 2
Fore
SplineSet
862.227539062 744 m 4,0,1
 864.275390625 732 864.275390625 732 851.833007812 721.5 c 4,2,3
 839.075195312 711 839.075195312 711 823.797851562 708.5 c 4,4,5
 804.424804688 706 804.424804688 706 790.72265625 712 c 4,6,7
 775.025390625 719 775.025390625 719 775.602539062 730 c 4,8,9
 776.075195312 810 776.075195312 810 766.887695312 848 c 4,10,11
 764.525390625 858 764.525390625 858 775.392578125 867.5 c 4,12,13
 785.525390625 876 785.525390625 876 802.797851562 878 c 4,14,15
 815.974609375 880 815.974609375 880 833.772460938 874 c 4,16,17
 849.575195312 869 849.575195312 869 849.837890625 857 c 4,18,19
 849.575195312 817 849.575195312 817 862.227539062 744 c 4,0,1
661 681 m 0,20,21
 657 695 657 695 663.5 708 c 128,-1,22
 670 721 670 721 684 725 c 2,23,-1
 695 729 l 2,24,25
 709 733 709 733 721.5 726 c 128,-1,26
 734 719 734 719 737 705 c 0,27,28
 790 491 790 491 921 346 c 0,29,30
 931 335 931 335 931 320.5 c 128,-1,31
 931 306 931 306 921 295 c 2,32,-1
 909 283 l 2,33,34
 900 272 900 272 885.5 273 c 128,-1,35
 871 274 871 274 863 285 c 0,36,37
 807 357 807 357 762 442 c 0,38,39
 762 443 762 443 761 443 c 128,-1,40
 760 443 760 443 760 442 c 0,41,42
 763 411 763 411 763 381 c 0,43,44
 763 336 763 336 757 292 c 0,45,46
 748 219 748 219 721.5 154.5 c 128,-1,47
 695 90 695 90 653.5 42 c 128,-1,48
 612 -6 612 -6 550 -34 c 128,-1,49
 488 -62 488 -62 412 -62 c 0,50,51
 290 -62 290 -62 219 10.5 c 128,-1,52
 148 83 148 83 148 206 c 0,53,54
 148 324 148 324 202 437 c 128,-1,55
 256 550 256 550 328 625 c 0,56,57
 328 626 328 626 327.5 627 c 128,-1,58
 327 628 327 628 326 628 c 0,59,60
 207 609 207 609 164 600 c 0,61,62
 155 598 155 598 142 596 c 0,63,64
 128 593 128 593 116.5 601.5 c 128,-1,65
 105 610 105 610 102 624 c 2,66,-1
 100 640 l 2,67,68
 98 654 98 654 107.5 664.5 c 128,-1,69
 117 675 117 675 131 676 c 0,70,71
 141 677 141 677 150 678 c 0,72,73
 209 683 209 683 297.5 697 c 128,-1,74
 386 711 386 711 441 726 c 0,75,76
 456 730 456 730 469 723 c 128,-1,77
 482 716 482 716 486 703 c 2,78,-1
 488 696 l 2,79,80
 493 682 493 682 486.5 669 c 128,-1,81
 480 656 480 656 466 652 c 0,82,83
 457 649 457 649 451 646 c 0,84,85
 447 644 447 644 443 641 c 0,86,87
 415 620 415 620 380.5 578 c 128,-1,88
 346 536 346 536 311 479.5 c 128,-1,89
 276 423 276 423 252 352.5 c 128,-1,90
 228 282 228 282 228 217 c 0,91,92
 228 119 228 119 281 71 c 128,-1,93
 334 23 334 23 415 23 c 0,94,95
 520 23 520 23 591.5 100 c 128,-1,96
 663 177 663 177 686 315 c 0,97,98
 695 370 695 370 695 434 c 0,99,100
 695 528 695 528 675 641 c 0,101,102
 668 660 668 660 661 681 c 0,20,21
927.727539062 770 m 4,103,104
 926 776 926 776 929.6171875 782 c 4,105,106
 932 786 932 786 935.287109375 790 c 4,107,108
 947 800 947 800 963.637695312 802 c 4,109,110
 976 804 976 804 979.59765625 803 c 4,111,112
 989 802 989 802 994.822265625 799 c 4,113,114
 1012 792 1012 792 1012.77734375 782 c 4,115,116
 1026 698 1026 698 1025.11230469 668 c 4,117,118
 1025 662 1025 662 1021.01757812 655 c 4,119,120
 1016 646 1016 646 1014.61230469 645 c 4,121,122
 1003 635 1003 635 988.466796875 633 c 4,123,124
 980 632 980 632 972.40234375 633 c 4,125,126
 957 636 957 636 956.442382812 636 c 4,127,128
 941 644 941 644 940.376953125 655 c 4,129,130
 933 754 933 754 927.727539062 770 c 4,103,104
EndSplineSet
LCarets2: 1 0
Ligature2: "'ccmp' Glyph Composition/Decomposition lookup 5 subtable" cid01502 cid01539
EndChar

StartChar: cid01506
Encoding: 12406 12406 17
Width: 1024
GlyphClass: 3
Flags: W
LayerCount: 2
Fore
SplineSet
742.599609375 669 m 0,0,1
 742 680 742 680 754.75 690 c 0,2,3
 768 700 768 700 784 701 c 0,4,5
 804 702 804 702 817.299804688 694.5 c 0,6,7
 831 687 831 687 832.599609375 674 c 0,8,9
 837 622 837 622 836.200195312 564 c 0,10,11
 836 551 836 551 821.799804688 541 c 0,12,13
 805 530 805 530 789.400390625 529 c 0,14,15
 770 528 770 528 757.450195312 536.5 c 128,-1,16
 745 545 745 545 746.200195312 557 c 0,17,18
 747 583 747 583 742.599609375 669 c 0,0,1
915.900390625 687 m 4,19,20
 914 699 914 699 924.900390625 708 c 4,21,22
 937 718 937 718 953.799804688 718 c 4,23,24
 974 719 974 719 988 712 c 4,25,26
 1002 704 1002 704 1003.29980469 692 c 4,27,28
 1013 594 1013 594 1011.40039062 572 c 0,29,30
 1011 565 1011 565 1006 558 c 128,-1,31
 1001 551 1001 551 997.900390625 549 c 0,32,33
 983 539 983 539 964.599609375 538 c 0,34,35
 949 537 949 537 935.549804688 545 c 0,36,37
 924 552 924 552 923.400390625 566 c 0,38,39
 924 636 924 636 915.900390625 687 c 4,19,20
573 525 m 0,40,41
 561 516 561 516 545.5 517 c 128,-1,42
 530 518 530 518 519 528 c 2,43,-1
 518 529 l 2,44,45
 509 538 509 538 510 551.5 c 128,-1,46
 511 565 511 565 522 573 c 0,47,48
 543 587 543 587 559 600 c 0,49,50
 562 603 562 603 559 606 c 0,51,52
 498 654 498 654 379 707 c 0,53,54
 367 712 367 712 363.5 725 c 128,-1,55
 360 738 360 738 368 749 c 2,56,-1
 372 754 l 2,57,58
 382 766 382 766 397 770 c 0,59,60
 403 771 403 771 409 771 c 0,61,62
 418 771 418 771 427 767 c 0,63,64
 546 714 546 714 621 664 c 0,65,66
 644 649 644 649 654 622 c 0,67,68
 657 613 657 613 657 606 c 0,69,70
 657 589 657 589 642 577 c 0,71,72
 610 552 610 552 573 525 c 0,40,41
344 -23 m 0,73,74
 329 -21 329 -21 317.5 -9.5 c 128,-1,75
 306 2 306 2 304 18 c 2,76,-1
 302 33 l 2,77,78
 300 46 300 46 309.5 54 c 128,-1,79
 319 62 319 62 331 59 c 0,80,81
 392 45 392 45 461 45 c 0,82,83
 503 45 503 45 533 64.5 c 128,-1,84
 563 84 563 84 563 129 c 0,85,86
 563 209 563 209 433 351 c 0,87,88
 408 376 408 376 378 404 c 0,89,90
 367 413 367 413 367.5 427 c 128,-1,91
 368 441 368 441 378 450 c 2,92,-1
 387 457 l 2,93,94
 397 466 397 466 411 466 c 0,95,96
 412 466 412 466 413 466 c 0,97,98
 428 465 428 465 438 455 c 0,99,100
 458 433 458 433 487 401 c 0,101,102
 567 319 567 319 608 252 c 128,-1,103
 649 185 649 185 649 121 c 0,104,105
 649 85 649 85 638 57 c 128,-1,106
 627 29 627 29 609 12.5 c 128,-1,107
 591 -4 591 -4 567 -14.5 c 128,-1,108
 543 -25 543 -25 520.5 -29 c 128,-1,109
 498 -33 498 -33 474 -33 c 0,110,111
 410 -33 410 -33 344 -23 c 0,73,74
945 104 m 0,112,113
 948 96 948 96 948 89 c 256,114,115
 948 82 948 82 945 75 c 0,116,117
 940 61 940 61 926 54 c 2,118,-1
 913 47 l 2,119,120
 901 40 901 40 888 45 c 128,-1,121
 875 50 875 50 871 63 c 0,122,123
 848 128 848 128 810.5 199 c 128,-1,124
 773 270 773 270 734 323 c 0,125,126
 726 333 726 333 728.5 347 c 128,-1,127
 731 361 731 361 743 367 c 2,128,-1
 749 370 l 2,129,130
 759 376 759 376 769 376 c 0,131,132
 773 376 773 376 778 375 c 0,133,134
 793 372 793 372 802 359 c 0,135,136
 842 307 842 307 880.5 236.5 c 128,-1,137
 919 166 919 166 945 104 c 0,112,113
259 263 m 0,138,139
 268 273 268 273 281 273 c 0,140,141
 282 273 282 273 283 273 c 0,142,143
 297 272 297 272 306 261 c 2,144,-1
 311 255 l 2,145,146
 319 244 319 244 319 230 c 0,147,148
 319 214 319 214 308 202 c 0,149,150
 211 109 211 109 104 40 c 0,151,152
 95 34 95 34 84 34 c 0,153,154
 80 34 80 34 77 35 c 0,155,156
 62 38 62 38 53 50 c 2,157,-1
 45 61 l 2,158,159
 39 70 39 70 39 79 c 0,160,161
 39 83 39 83 40 87 c 0,162,163
 43 100 43 100 55 108 c 0,164,165
 170 177 170 177 259 263 c 0,138,139
EndSplineSet
LCarets2: 1 0
Ligature2: "'ccmp' Glyph Composition/Decomposition lookup 5 subtable" cid01505 cid01539
EndChar

StartChar: cid01509
Encoding: 12409 12409 18
Width: 1024
GlyphClass: 3
Flags: W
LayerCount: 2
Fore
SplineSet
651.150390625 674 m 0,0,1
 649.349609375 686 649.349609375 686 662.849609375 696.5 c 128,-1,2
 676.349609375 707 676.349609375 707 694.349609375 708 c 0,3,4
 715.950195312 710 715.950195312 710 730.799804688 701.5 c 128,-1,5
 745.650390625 693 745.650390625 693 746.549804688 679 c 0,6,7
 753.75 611 753.75 611 751.950195312 554 c 0,8,9
 751.950195312 540 751.950195312 540 736.650390625 529 c 128,-1,10
 721.349609375 518 721.349609375 518 702.450195312 517 c 0,11,12
 681.75 516 681.75 516 667.799804688 524.5 c 128,-1,13
 653.849609375 533 653.849609375 533 654.75 547 c 0,14,15
 657.450195312 618 657.450195312 618 651.150390625 674 c 0,0,1
860.549804688 688 m 0,16,17
 859 700 859 700 871.349609375 711 c 0,18,19
 884 722 884 722 901.950195312 723 c 0,20,21
 919 724 919 724 926.25 722 c 0,22,23
 933 720 933 720 937.950195312 717 c 0,24,25
 955 709 955 709 955.950195312 696 c 0,26,27
 966 587 966 587 966.849609375 557 c 0,28,29
 967 544 967 544 951.549804688 533 c 128,-1,30
 936 522 936 522 916 520 c 128,-1,31
 896 518 896 518 881.799804688 526.5 c 0,32,33
 868 535 868 535 868.75 548 c 0,34,35
 870 622 870 622 860.549804688 688 c 0,16,17
148 216 m 0,36,37
 140 204 140 204 126 203.5 c 128,-1,38
 112 203 112 203 102 213 c 2,39,-1
 77 240 l 2,40,41
 68 249 68 249 68 262 c 0,42,43
 68 277 68 277 80 288 c 0,44,45
 100 306 100 306 125 333 c 0,46,47
 149 357 149 357 184 399 c 128,-1,48
 219 441 219 441 262 496 c 128,-1,49
 305 551 305 551 324 573 c 0,50,51
 368 627 368 627 411 631 c 0,52,53
 414 631 414 631 417 631 c 0,54,55
 456 631 456 631 504 585 c 0,56,57
 534 553 534 553 605.5 469.5 c 128,-1,58
 677 386 677 386 709 352 c 0,59,60
 837 211 837 211 934 120 c 0,61,62
 946 109 946 109 946 93 c 0,63,64
 946 80 946 80 937 70 c 2,65,-1
 920 50 l 2,66,67
 910 39 910 39 895 39 c 2,68,-1
 894 39 l 0,69,70
 880 39 880 39 870 48 c 0,71,72
 793 124 793 124 656 280 c 0,73,74
 628 311 628 311 560 393.5 c 128,-1,75
 492 476 492 476 466 504 c 0,76,77
 444 527 444 527 428.5 533 c 128,-1,78
 413 539 413 539 400.5 531.5 c 128,-1,79
 388 524 388 524 370 501 c 0,80,81
 350 476 350 476 282.5 389 c 128,-1,82
 215 302 215 302 187 267 c 0,83,84
 176 253 176 253 148 216 c 0,36,37
EndSplineSet
LCarets2: 1 0
Ligature2: "'ccmp' Glyph Composition/Decomposition lookup 5 subtable" cid01508 cid01539
EndChar

StartChar: cid01512
Encoding: 12412 12412 19
Width: 1024
GlyphClass: 3
Flags: W
LayerCount: 2
Fore
SplineSet
142 732 m 0,0,1
 144 746 144 746 155 755.5 c 128,-1,2
 166 765 166 765 180 764 c 2,3,-1
 200 762 l 2,4,5
 214 761 214 761 221.5 749.5 c 128,-1,6
 229 738 229 738 225 725 c 0,7,8
 220 706 220 706 218 692 c 0,9,10
 200 611 200 611 184 488.5 c 128,-1,11
 168 366 168 366 168 288 c 0,12,13
 168 214 168 214 177 152 c 0,14,15
 177 151 177 151 177.5 151 c 128,-1,16
 178 151 178 151 179 152 c 0,17,18
 195 198 195 198 224 272 c 0,19,20
 228 281 228 281 238 283.5 c 128,-1,21
 248 286 248 286 256 280 c 0,22,23
 271 268 271 268 271 252 c 0,24,25
 271 245 271 245 268 237 c 0,26,27
 246 176 246 176 229 122.5 c 128,-1,28
 212 69 212 69 206 39 c 0,29,30
 201 18 201 18 201 2 c 0,31,32
 201 -2 201 -2 202 -6 c 0,33,34
 203 -20 203 -20 193 -31.5 c 128,-1,35
 183 -43 183 -43 168 -44 c 2,36,-1
 165 -44 l 2,37,38
 163 -44 163 -44 162 -44 c 0,39,40
 148 -44 148 -44 137 -37 c 0,41,42
 125 -28 125 -28 121 -13 c 0,43,44
 92 114 92 114 92 274 c 0,45,46
 92 408 92 408 138 695 c 0,47,48
 141 717 141 717 142 732 c 0,0,1
649 130 m 0,49,50
 649 153 649 153 648 167 c 0,51,52
 648 172 648 172 644 173 c 0,53,54
 600 185 600 185 554 185 c 0,55,56
 500 185 500 185 467.5 165 c 128,-1,57
 435 145 435 145 435 113 c 0,58,59
 435 75 435 75 465.5 56 c 128,-1,60
 496 37 496 37 550 37 c 0,61,62
 605 37 605 37 627 61.5 c 128,-1,63
 649 86 649 86 649 130 c 0,49,50
865 494 m 0,64,65
 879 495 879 495 889.5 485.5 c 128,-1,66
 900 476 900 476 900 462 c 2,67,-1
 900 458 l 2,68,69
 900 443 900 443 890 432 c 128,-1,70
 880 421 880 421 865 419 c 0,71,72
 748 408 748 408 717 408 c 0,73,74
 713 408 713 408 713 403 c 0,75,76
 713 368 713 368 716 302.5 c 128,-1,77
 719 237 719 237 720 226 c 0,78,79
 720 221 720 221 724 220 c 0,80,81
 777 201 777 201 908 114 c 0,82,83
 920 106 920 106 922 90 c 0,84,85
 925.062068966 73.6689655172 925.062068966 73.6689655172 917 61 c 2,86,-1
 910 50 l 2,87,88
 902 38 902 38 889 36.5 c 128,-1,89
 876 35 876 35 867 44 c 0,90,91
 804 103 804 103 728 141 c 0,92,93
 724 143 724 143 724 139 c 0,94,95
 725 123 725 123 725 97 c 0,96,97
 725 35 725 35 681.5 0 c 128,-1,98
 638 -35 638 -35 557 -35 c 0,99,100
 469 -35 469 -35 415.5 2 c 128,-1,101
 362 39 362 39 362 109 c 0,102,103
 362 166 362 166 412 207 c 0,104,105
 471 256 471 256 556 248 c 0,106,107
 631 241 631 241 641 241 c 0,108,109
 645 241 645 241 645 245 c 0,110,111
 639 337 639 337 638 401 c 0,112,113
 638 406 638 406 633 405 c 0,114,115
 583 404 583 404 537 404 c 0,116,117
 459 404 459 404 429 406 c 0,118,119
 414 407 414 407 403.5 417.5 c 128,-1,120
 393 428 393 428 393 443 c 2,121,-1
 393 448 l 2,122,123
 393 462 393 462 403.5 472 c 128,-1,124
 414 482 414 482 429 481 c 0,125,126
 494 477 494 477 564 477 c 0,127,128
 598 477 598 477 632 478 c 0,129,130
 637 478 637 478 637 483 c 2,131,-1
 637 640 l 2,132,133
 637 644 637 644 633 644 c 0,134,135
 585 643 585 643 537 643 c 0,136,137
 491 643 491 643 445 644 c 0,138,139
 430 644 430 644 420 655 c 128,-1,140
 410 666 410 666 410 681 c 2,141,-1
 410 682 l 2,142,143
 410 697 410 697 420.5 706.5 c 128,-1,144
 431 716 431 716 445 715 c 0,145,146
 540 711 540 711 574 712 c 0,147,148
 736 721 736 721 770 721 c 0,149,150
 773 721 773 721 773 737.5 c 128,-1,151
 773 754 773 754 766 825 c 0,152,153
 765 835 765 835 775.5 844 c 0,154,155
 781 849 781 849 804 854 c 0,156,157
 813 856 813 856 826.5 850.5 c 128,-1,158
 840 845 840 845 843 834 c 0,159,160
 846 820 846 820 855 681 c 0,161,162
 856 666 856 666 842 660 c 0,163,164
 818 648 l 2,165,-1
 808 647 l 2,166,167
 796 646 796 646 792 651 c 0,168,169
 785 660 785 660 785 661 c 2,170,-1
 785 663 l 2,171,172
 785 657 785 657 779 657 c 0,173,174
 712 647 712 647 710.5 648.5 c 0,175,176
 712 647 712 647 712 642 c 2,177,-1
 712 486 l 2,178,179
 712 481 712 481 716 482 c 0,180,181
 785 488 785 488 865 494 c 0,64,65
933 831 m 0,182,183
 932 837 932 837 935 842 c 0,184,185
 937 846 937 846 942 851 c 0,186,187
 954 860 954 860 971 862 c 0,188,189
 980 863 980 863 981.5 863 c 128,-1,190
 983 863 983 863 995 858 c 0,191,192
 1013 851 1013 851 1013 841 c 0,193,194
 1024 697 1024 697 1025 695 c 4,195,196
 1026 690 1026 690 1023 685 c 260,197,198
 1021 680 1021 680 1013 674 c 4,199,200
 997 664 997 664 991 663 c 4,201,202
 981 662 981 662 975 663 c 4,203,204
 966 664 966 664 958 668 c 4,205,206
 946 674 946 674 945 685 c 4,207,208
 936 806 936 806 933 831 c 0,182,183
EndSplineSet
LCarets2: 1 0
Ligature2: "'ccmp' Glyph Composition/Decomposition lookup 5 subtable" cid01511 cid01539
EndChar

StartChar: cid01536
Encoding: 12436 12436 20
Width: 1024
GlyphClass: 3
Flags: W
LayerCount: 2
Fore
SplineSet
750.700195312 671 m 0,0,1
 748.900390625 683 748.900390625 683 761.950195312 692.5 c 0,2,3
 776.799804688 703 776.799804688 703 791.200195312 704 c 0,4,5
 811 705 811 705 824.950195312 697.5 c 128,-1,6
 838.900390625 690 838.900390625 690 840.700195312 677 c 0,7,8
 846.099609375 628 846.099609375 628 845.200195312 563 c 0,9,10
 845.200195312 550 845.200195312 550 831.700195312 540 c 128,-1,11
 818.200195312 530 818.200195312 530 799.299804688 529 c 0,12,13
 779.5 528 779.5 528 766.900390625 535.5 c 128,-1,14
 754.299804688 543 754.299804688 543 755.200195312 557 c 0,15,16
 756.099609375 633 756.099609375 633 750.700195312 671 c 0,0,1
921.799804688 691 m 4,17,18
 919 702 919 702 930.799804688 712 c 4,19,20
 942 722 942 722 961.400390625 723 c 132,-1,21
 981 724 981 724 994.700195312 716.5 c 4,22,23
 1008 709 1008 709 1010 696 c 4,24,25
 1018 628 1018 628 1016.29980469 584 c 4,26,27
 1016 576 1016 576 1011.79980469 570 c 4,28,29
 1008 565 1008 565 1003.70019531 560 c 4,30,31
 992 551 992 551 969.5 549 c 4,32,33
 952 548 952 548 938.450195312 555.5 c 132,-1,34
 925 563 925 563 926.299804688 577 c 4,35,36
 929 663 929 663 921.799804688 691 c 4,17,18
706 345 m 0,37,38
 706 410 706 410 658 450 c 128,-1,39
 610 490 610 490 532 490 c 0,40,41
 505 490 505 490 474.5 487 c 128,-1,42
 444 484 444 484 423.5 481.5 c 128,-1,43
 403 479 403 479 371.5 471 c 128,-1,44
 340 463 340 463 330 460.5 c 128,-1,45
 320 458 320 458 288 448.5 c 0,46,-1
 256 439 l 2,47,48
 233 432 233 432 204 422 c 0,49,50
 191 417 191 417 178 423.5 c 128,-1,51
 165 430 165 430 162 444 c 2,52,-1
 155 470 l 2,53,54
 154 474 154 474 154 478 c 0,55,56
 154 487 154 487 159 494 c 0,57,58
 167 506 167 506 181 508 c 0,59,60
 209 512 209 512 238 519 c 0,61,62
 239 519 239 519 283 529.5 c 128,-1,63
 327 540 327 540 345 543.5 c 128,-1,64
 363 547 363 547 402 554.5 c 128,-1,65
 441 562 441 562 474.5 564.5 c 128,-1,66
 508 567 508 567 541 567 c 0,67,68
 652 567 652 567 722.5 507.5 c 128,-1,69
 793 448 793 448 793 342 c 0,70,71
 793 265 793 265 761.5 201 c 128,-1,72
 730 137 730 137 672.5 91 c 128,-1,73
 615 45 615 45 539 13 c 128,-1,74
 463 -19 463 -19 369 -36 c 0,75,76
 364 -37 364 -37 359 -37 c 0,77,78
 349 -37 349 -37 338 -32 c 0,79,80
 324 -26 324 -26 315 -12 c 2,81,-1
 304 6 l 2,82,83
 298 16 298 16 303 27.5 c 128,-1,84
 308 39 308 39 321 41 c 0,85,86
 408 55 408 55 477 80 c 128,-1,87
 546 105 546 105 598 142 c 128,-1,88
 650 179 650 179 678 230.5 c 128,-1,89
 706 282 706 282 706 345 c 0,37,38
302 718 m 0,90,91
 288 720 288 720 279 732 c 0,92,93
 273 742 273 742 273 753 c 0,94,95
 273 756 273 756 273 759 c 2,96,-1
 275 767 l 2,97,98
 277 781 277 781 289 789 c 0,99,100
 298 795 298 795 309 795 c 0,101,102
 312 795 312 795 315 795 c 0,103,104
 478 765 478 765 676 756 c 0,105,106
 690 755 690 755 699 744 c 0,107,108
 707 736 707 736 707 725 c 0,109,110
 707 722 707 722 706 720 c 2,111,-1
 705 711 l 2,112,113
 703 696 703 696 691 687 c 0,114,115
 680 678 680 678 667 678 c 0,116,117
 666 678 666 678 664 678 c 0,118,119
 459 694 459 694 302 718 c 0,90,91
EndSplineSet
LCarets2: 1 0
Ligature2: "'ccmp' Glyph Composition/Decomposition lookup 5 subtable" cid01458 cid01539
EndChar

StartChar: cid01558
Encoding: 12460 12460 21
Width: 1024
GlyphClass: 3
Flags: W
LayerCount: 2
Fore
SplineSet
489 610 m 0,0,1
 488 605 488 605 493 605 c 2,2,-1
 732 605 l 2,3,4
 750 605 750 605 766 606 c 0,5,6
 772 607 772 607 777 607 c 0,7,8
 805 607 805 607 826 596 c 0,9,10
 851 584 851 584 851 556 c 0,11,12
 851 553 851 553 851 550 c 0,13,14
 850 539 850 539 850 531 c 0,15,16
 833 135 833 135 787 37 c 0,17,18
 772 4 772 4 746 -11 c 128,-1,19
 720 -26 720 -26 678 -26 c 0,20,21
 621 -26 621 -26 548 -21 c 0,22,23
 533 -20 533 -20 522 -9.5 c 128,-1,24
 511 1 511 1 509 17 c 2,25,-1
 507 31 l 2,26,27
 505 45 505 45 515 54.5 c 128,-1,28
 525 64 525 64 538 62 c 0,29,30
 604 55 604 55 655 55 c 0,31,32
 700 55 700 55 715 88 c 0,33,34
 740 140 740 140 753.5 276 c 128,-1,35
 767 412 767 412 767 524 c 0,36,37
 767 528 767 528 762 528 c 2,38,-1
 485 528 l 2,39,40
 480 528 480 528 480 524 c 0,41,42
 454 325 454 325 384.5 198.5 c 128,-1,43
 315 72 315 72 195 -18 c 0,44,45
 183 -27 183 -27 168 -27 c 0,46,47
 167 -27 167 -27 166 -27 c 0,48,49
 151 -26 151 -26 138 -16 c 2,50,-1
 120 -1 l 2,51,52
 110 7 110 7 111 20 c 128,-1,53
 112 33 112 33 123 40 c 0,54,55
 166 68 166 68 197 97 c 0,56,57
 277 169 277 169 328 272 c 128,-1,58
 379 375 379 375 399 524 c 0,59,60
 399 528 399 528 395 528 c 2,61,-1
 227 528 l 2,62,63
 171 528 171 528 145 527 c 0,64,65
 131 526 131 526 120.5 536 c 128,-1,66
 110 546 110 546 110 560 c 2,67,-1
 110 575 l 2,68,69
 110 589 110 589 120.5 599 c 128,-1,70
 131 609 131 609 145 608 c 0,71,72
 188 605 188 605 226 605 c 2,73,-1
 402 605 l 2,74,75
 407 605 407 605 407 610 c 0,76,77
 411 671 411 671 411 709 c 0,78,79
 411 730 411 730 408 758 c 0,80,81
 407 773 407 773 416 783.5 c 128,-1,82
 425 794 425 794 439 794 c 2,83,-1
 464 794 l 2,84,85
 478 794 478 794 487.5 783.5 c 128,-1,86
 497 773 497 773 496 758 c 0,87,88
 495 736 495 736 494 711 c 0,89,90
 493 672 493 672 489 610 c 0,0,1
711.349609375 812 m 4,91,92
 710 819 710 819 715.849609375 826 c 4,93,94
 719 830 719 830 722.150390625 833 c 4,95,96
 735 843 735 843 752.75 844 c 4,97,98
 772 845 772 845 785.599609375 837.5 c 4,99,100
 800 830 800 830 801.349609375 817 c 4,101,102
 806 764 806 764 805.849609375 701 c 4,103,104
 806 688 806 688 792.799804688 678.5 c 4,105,106
 780 669 780 669 758.150390625 667 c 4,107,108
 748 666 748 666 740.150390625 668 c 260,109,110
 733 670 733 670 727.549804688 674 c 4,111,112
 715 682 715 682 714.950195312 695 c 4,113,114
 716 787 716 787 711.349609375 812 c 4,91,92
892.25 817 m 4,115,116
 891 826 891 826 895.849609375 832 c 4,117,118
 899 835 899 835 903.049804688 839 c 4,119,120
 914 848 914 848 931.849609375 849 c 4,121,122
 944 850 944 850 952.549804688 848 c 4,123,124
 960 846 960 846 965.150390625 843 c 4,125,126
 978 837 978 837 979.549804688 823 c 4,127,128
 982 808 982 808 987.650390625 707 c 4,129,130
 988 701 988 701 982.25 693 c 4,131,132
 979 688 979 688 974.150390625 685 c 4,133,134
 960 674 960 674 941.75 673 c 4,135,136
 930 672 930 672 921.950195312 674 c 4,137,138
 916 676 916 676 909.349609375 680 c 4,139,140
 898 687 898 687 897.650390625 700 c 4,141,142
 899 767 899 767 892.25 817 c 4,115,116
EndSplineSet
LCarets2: 1 0
Ligature2: "'ccmp' Glyph Composition/Decomposition lookup 5 subtable" cid01557 cid01539
EndChar

StartChar: cid01560
Encoding: 12462 12462 22
Width: 1024
GlyphClass: 3
Flags: W
LayerCount: 2
Fore
SplineSet
810.849609375 729 m 0,0,1
 811 716 811 716 796.900390625 706.5 c 128,-1,2
 783 697 783 697 763.150390625 696 c 0,3,4
 745 695 745 695 732.099609375 702.5 c 128,-1,5
 719 710 719 710 719.950195312 724 c 0,6,7
 723 784 723 784 716.349609375 834 c 0,8,9
 715 845 715 845 727.150390625 854.5 c 0,10,11
 739 864 739 864 757.75 865 c 0,12,13
 778 866 778 866 791.5 858.5 c 0,14,15
 804 852 804 852 804.549804688 839 c 0,16,17
 811 763 811 763 810.849609375 729 c 0,0,1
505 534 m 2,18,19
 501 534 501 534 502 529 c 2,20,-1
 540 333 l 2,21,22
 541 329 541 329 545 329 c 0,23,24
 756 365 756 365 794 372 c 0,25,26
 824 377 824 377 849 383 c 0,27,28
 863 387 863 387 875.5 379 c 128,-1,29
 888 371 888 371 891 357 c 2,30,-1
 894 341 l 2,31,32
 897 327 897 327 888.5 315.5 c 128,-1,33
 880 304 880 304 866 302 c 0,34,35
 840 298 840 298 809 292 c 0,36,37
 751 283 751 283 560 253 c 0,38,39
 556 252 556 252 557 248 c 0,40,41
 565 209 565 209 575 160.5 c 128,-1,42
 585 112 585 112 590.5 84.5 c 128,-1,43
 596 57 596 57 598 47 c 0,44,45
 608 5 608 5 613 -13 c 0,46,47
 617 -27 617 -27 609.5 -39 c 128,-1,48
 602 -51 602 -51 589 -54 c 2,49,-1
 564 -58 l 2,50,51
 561 -59 561 -59 558 -59 c 0,52,53
 547 -59 547 -59 538 -52 c 0,54,55
 526 -44 526 -44 525 -29 c 0,56,57
 519 11 519 11 514 32 c 0,58,59
 500 108 500 108 476 234 c 0,60,61
 475 239 475 239 471 238 c 0,62,63
 291 209 291 209 199 193 c 0,64,65
 166 187 166 187 143 181 c 0,66,67
 129 178 129 178 116.5 186 c 128,-1,68
 104 194 104 194 101 208 c 2,69,-1
 97 228 l 2,70,71
 97 232 97 232 97 235 c 0,72,73
 97 245 97 245 103 253 c 0,74,75
 111 264 111 264 126 266 c 0,76,77
 156 269 156 269 180 272 c 0,78,79
 243 281 243 281 455 315 c 0,80,81
 460 315 460 315 459 320 c 2,82,-1
 421 517 l 2,83,84
 420 521 420 521 415 521 c 0,85,86
 245 494 245 494 194 484 c 0,87,88
 171 480 171 480 146 475 c 0,89,90
 132 472 132 472 119.5 479.5 c 128,-1,91
 107 487 107 487 105 502 c 2,92,-1
 100 523 l 2,93,94
 97 537 97 537 105.5 548.5 c 128,-1,95
 114 560 114 560 129 561 c 0,96,97
 156 563 156 563 178 565 c 0,98,99
 236 571 236 571 400 597 c 0,100,101
 404 598 404 598 404 603 c 0,102,103
 384 697 384 697 382 707 c 0,104,105
 378 725 378 725 374 742 c 0,106,107
 370 756 370 756 377.5 768 c 128,-1,108
 385 780 385 780 399 782 c 2,109,-1
 420 786 l 2,110,111
 434 788 434 788 445.5 779.5 c 128,-1,112
 457 771 457 771 459 756 c 0,113,114
 462 736 462 736 465 721 c 0,115,116
 466 712 466 712 485 615 c 0,117,118
 485 610 485 610 490 611 c 0,119,120
 647 637 647 637 722 651 c 0,121,122
 742 655 742 655 761 659 c 0,123,124
 775 662 775 662 787.5 654.5 c 128,-1,125
 800 647 800 647 802 633 c 2,126,-1
 805 617 l 2,127,128
 808 602 808 602 799.5 590.5 c 128,-1,129
 791 579 791 579 777 577 c 0,130,131
 771 576 771 576 758 574 c 128,-1,132
 745 572 745 572 738 571 c 2,133,-1
 505 534 l 2,18,19
897.25 844 m 0,134,135
 896 853 896 853 900.849609375 858 c 0,136,137
 904 861 904 861 908.049804688 865 c 0,138,139
 920 874 920 874 937.75 875 c 0,140,141
 948 876 948 876 956.650390625 874 c 0,142,143
 965 872 965 872 970.150390625 869 c 0,144,145
 983 862 983 862 984.549804688 848 c 0,146,147
 987 831 987 831 992.650390625 730 c 0,148,149
 993 724 993 724 988.150390625 716 c 0,150,151
 985 711 985 711 978.25 706 c 0,152,153
 965 697 965 697 946.75 696 c 0,154,155
 934 695 934 695 926.950195312 697 c 0,156,157
 921 699 921 699 914.349609375 702 c 0,158,159
 902 710 902 710 901.75 723 c 0,160,161
 904 793 904 793 897.25 844 c 0,134,135
EndSplineSet
LCarets2: 1 0
Ligature2: "'ccmp' Glyph Composition/Decomposition lookup 5 subtable" cid01559 cid01539
EndChar

StartChar: cid01562
Encoding: 12464 12464 23
Width: 1024
GlyphClass: 3
Flags: W
LayerCount: 2
Fore
SplineSet
442 651 m 0,0,1
 439 647 439 647 444 647 c 2,2,-1
 717 647 l 2,3,4
 734 647 734 647 749 649 c 0,5,6
 758 650 758 650 766 650 c 0,7,8
 794 650 794 650 814 638 c 2,9,-1
 821 634 l 2,10,11
 833 626 833 626 837.5 611.5 c 128,-1,12
 842 597 842 597 836 583 c 0,13,14
 830 571 830 571 827 561 c 0,15,16
 805 477 805 477 758 382 c 128,-1,17
 711 287 711 287 646 208 c 0,18,19
 506 37 506 37 272 -58 c 0,20,21
 260 -62 260 -62 249 -62 c 0,22,23
 230 -62 230 -62 212 -47 c 2,24,-1
 190 -27 l 2,25,26
 182 -19 182 -19 184.5 -7.5 c 128,-1,27
 187 4 187 4 198 7 c 0,28,29
 429 84 429 84 573 254 c 0,30,31
 630 320 630 320 674 408 c 128,-1,32
 718 496 718 496 735 569 c 0,33,34
 736 573 736 573 732 573 c 2,35,-1
 396 573 l 2,36,37
 391 573 391 573 389 570 c 0,38,39
 290 434 290 434 160 342 c 0,40,41
 147 332 147 332 131 332.5 c 128,-1,42
 115 333 115 333 103 343 c 2,43,-1
 89 353 l 2,44,45
 79 360 79 360 79 372 c 0,46,47
 79 385 79 385 90 393 c 0,48,49
 164 441 164 441 226.5 505 c 128,-1,50
 289 569 289 569 323 619.5 c 128,-1,51
 357 670 357 670 382 720 c 0,52,53
 393 739 393 739 403 768 c 0,54,55
 408 782 408 782 421 788.5 c 128,-1,56
 434 795 434 795 447 790 c 2,57,-1
 474 781 l 2,58,59
 487 777 487 777 492 764 c 128,-1,60
 497 751 497 751 490 739 c 0,61,62
 484 728 484 728 474 710.5 c 128,-1,63
 464 693 464 693 463 690 c 0,64,65
 456 676 456 676 442 651 c 0,0,1
724.299804688 818 m 0,66,67
 724 820 724 820 729.700195312 833 c 0,68,69
 731 836 731 836 736 839 c 0,70,71
 748 849 748 849 763.900390625 850 c 0,72,73
 785 852 785 852 798.099609375 844 c 0,74,75
 812 836 812 836 813.400390625 824 c 0,76,77
 818 774 818 774 817.900390625 717 c 0,78,79
 818 704 818 704 804.400390625 694 c 128,-1,80
 791 684 791 684 772 683 c 0,81,82
 761 682 761 682 753.099609375 684 c 0,83,84
 746 686 746 686 739.599609375 690 c 0,85,86
 727 697 727 697 727 710 c 0,87,88
 725 812 725 812 724.299804688 818 c 0,66,67
904.200195312 828 m 0,89,90
 901 838 901 838 906.900390625 843 c 0,91,92
 909 845 909 845 913.200195312 849 c 0,93,94
 924 857 924 857 942.900390625 859 c 0,95,96
 955 860 955 860 963.599609375 858 c 0,97,98
 970 856 970 856 976.200195312 853 c 0,99,100
 992 844 992 844 992.400390625 833 c 0,101,102
 994 728 994 728 998.700195312 714 c 4,103,104
 1000 710 1000 710 994.200195312 700 c 4,105,106
 992 696 992 696 985.200195312 692 c 4,107,108
 972 682 972 682 952.799804688 681 c 4,109,110
 942 680 942 680 933.900390625 682 c 4,111,112
 927 684 927 684 922.200195312 687 c 4,113,114
 909 695 909 695 909.599609375 708 c 4,115,116
 910 807 910 807 904.200195312 828 c 0,89,90
EndSplineSet
LCarets2: 1 0
Ligature2: "'ccmp' Glyph Composition/Decomposition lookup 5 subtable" cid01561 cid01539
EndChar

StartChar: cid01564
Encoding: 12466 12466 24
Width: 1024
GlyphClass: 3
Flags: W
LayerCount: 2
Fore
SplineSet
807.900390625 698 m 0,0,1
 809 686 809 686 794.400390625 675.5 c 128,-1,2
 780 665 780 665 762 664 c 0,3,4
 742 663 742 663 729.599609375 671 c 128,-1,5
 717 679 717 679 717 692 c 0,6,7
 719 794 719 794 714.299804688 820 c 0,8,9
 712 832 712 832 725.099609375 841 c 0,10,11
 739 851 739 851 754.799804688 851 c 0,12,13
 775 852 775 852 788.099609375 845 c 0,14,15
 803 837 803 837 803.400390625 825 c 0,16,17
 806 718 806 718 807.900390625 698 c 0,0,1
344 600 m 0,18,19
 342 596 342 596 347 596 c 2,20,-1
 825 596 l 2,21,22
 858 596 858 596 886 598 c 0,23,24
 901 599 901 599 911.5 589.5 c 128,-1,25
 922 580 922 580 922 566 c 2,26,-1
 922 549 l 2,27,28
 922 534 922 534 911.5 524 c 128,-1,29
 901 514 901 514 886 515 c 0,30,31
 852 516 852 516 825 516 c 2,32,-1
 657 516 l 2,33,34
 652 516 652 516 652 512 c 0,35,36
 640 314 640 314 569.5 181 c 128,-1,37
 499 48 499 48 375 -41 c 0,38,39
 361 -50 361 -50 346 -50 c 0,40,41
 329 -50 329 -50 316 -40 c 2,42,-1
 287 -21 l 2,43,44
 278 -15 278 -15 279 -3.5 c 128,-1,45
 280 8 280 8 290 13 c 0,46,47
 319 28 319 28 341 46 c 0,48,49
 547 202 547 202 567 512 c 0,50,51
 567 516 567 516 563 516 c 2,52,-1
 309 516 l 2,53,54
 304 516 304 516 302 512 c 0,55,56
 242 401 242 401 160 321 c 0,57,58
 149 310 149 310 133 308.5 c 128,-1,59
 117 307 117 307 104 315 c 2,60,-1
 84 327 l 2,61,62
 72 334 72 334 72 348 c 0,63,64
 72 360 72 360 81 367 c 0,65,66
 124 406 124 406 165.5 461 c 128,-1,67
 207 516 207 516 236 565 c 0,68,69
 270 628 270 628 293 709 c 0,70,71
 300 733 300 733 304 755 c 0,72,73
 306 769 306 769 317.5 777.5 c 128,-1,74
 329 786 329 786 343 784 c 2,75,-1
 373 778 l 2,76,77
 386 775 386 775 393 763 c 128,-1,78
 400 751 400 751 395 738 c 0,79,80
 386 715 386 715 381 699 c 0,81,82
 357 631 357 631 344 600 c 0,18,19
894.299804688 827 m 0,83,84
 896 831 896 831 899.700195312 842 c 0,85,86
 901 846 901 846 904.200195312 849 c 0,87,88
 915 858 915 858 933.900390625 859 c 0,89,90
 938 859 938 859 954.599609375 857 c 0,91,92
 962 856 962 856 967.200195312 853 c 0,93,94
 982 844 982 844 982.5 832 c 0,95,96
 984 733 984 733 989.700195312 697 c 0,97,98
 991 688 991 688 985.200195312 683 c 0,99,100
 982 680 982 680 976.200195312 675 c 0,101,102
 963 663 963 663 943.799804688 663 c 0,103,104
 934 663 934 663 924.900390625 665 c 0,105,106
 913 668 913 668 912.299804688 669 c 0,107,108
 902 677 902 677 900.599609375 691 c 0,109,110
 893 822 893 822 894.299804688 827 c 0,83,84
EndSplineSet
LCarets2: 1 0
Ligature2: "'ccmp' Glyph Composition/Decomposition lookup 5 subtable" cid01563 cid01539
EndChar

StartChar: cid01566
Encoding: 12468 12468 25
Width: 1024
GlyphClass: 3
Flags: W
LayerCount: 2
Fore
SplineSet
788.450195312 738 m 0,0,1
 788.450195312 725 788.450195312 725 774.049804688 714.5 c 128,-1,2
 759.650390625 704 759.650390625 704 739.849609375 703 c 0,3,4
 721.849609375 702 721.849609375 702 708.349609375 710 c 128,-1,5
 694.849609375 718 694.849609375 718 695.75 731 c 0,6,7
 696.650390625 780 696.650390625 780 690.349609375 831 c 0,8,9
 689.450195312 843 689.450195312 843 702.5 852.5 c 128,-1,10
 715.549804688 862 715.549804688 862 732.650390625 863 c 0,11,12
 753.349609375 864 753.349609375 864 766.849609375 856 c 128,-1,13
 780.349609375 848 780.349609375 848 781.25 835 c 0,14,15
 786.650390625 786 786.650390625 786 788.450195312 738 c 0,0,1
846 588 m 2,16,-1
 846 59 l 2,17,18
 846 34 846 34 848 -4 c 0,19,20
 849 -19 849 -19 839 -29.5 c 128,-1,21
 829 -40 829 -40 814 -40 c 2,22,-1
 793 -40 l 2,23,24
 779 -40 779 -40 768.5 -29.5 c 128,-1,25
 758 -19 758 -19 759 -5 c 0,26,27
 759 -2 759 -2 759.5 4 c 128,-1,28
 760 10 760 10 760 13 c 0,29,30
 760 17 760 17 755 17 c 2,31,-1
 259 17 l 2,32,33
 221 17 221 17 179 15 c 0,34,35
 164 15 164 15 153.5 24.5 c 128,-1,36
 143 34 143 34 143 49 c 2,37,-1
 143 71 l 2,38,39
 143 85 143 85 153.5 94.5 c 128,-1,40
 164 104 164 104 179 103 c 0,41,42
 219 100 219 100 257 100 c 2,43,-1
 755 100 l 2,44,45
 760 100 760 100 760 105 c 2,46,-1
 760 579 l 2,47,48
 760 584 760 584 755 584 c 2,49,-1
 269 584 l 2,50,51
 239 584 239 584 192 582 c 0,52,53
 178 581 178 581 167.5 591.5 c 128,-1,54
 157 602 157 602 157 616 c 2,55,-1
 157 636 l 2,56,57
 157 650 157 650 167.5 659.5 c 128,-1,58
 178 669 178 669 192 668 c 0,59,60
 231 666 231 666 268 666 c 2,61,-1
 772 666 l 2,62,63
 790 666 790 666 812 666 c 0,64,65
 827 667 827 667 837 656.5 c 128,-1,66
 847 646 847 646 847 632 c 0,67,68
 846 606 846 606 846 588 c 2,16,-1
891.549804688 842 m 0,69,70
 892 850 892 850 896.950195312 857 c 0,71,72
 899 860 899 860 903.25 864 c 0,73,74
 918 875 918 875 932.950195312 875 c 0,75,76
 945 875 945 875 954.549804688 873 c 0,77,78
 961 872 961 872 967.150390625 868 c 0,79,80
 981 860 981 860 982.450195312 847 c 0,81,82
 987 820 987 820 989.650390625 730 c 0,83,84
 990 720 990 720 985.150390625 715 c 0,85,86
 984 714 984 714 975.25 707 c 0,87,88
 963 696 963 696 942.849609375 695 c 0,89,90
 932 695 932 695 922.150390625 697 c 0,91,92
 912 699 912 699 908.650390625 701 c 0,93,94
 896 709 896 709 895.150390625 723 c 0,95,96
 890 823 890 823 891.549804688 842 c 0,69,70
EndSplineSet
LCarets2: 1 0
Ligature2: "'ccmp' Glyph Composition/Decomposition lookup 5 subtable" cid01565 cid01539
EndChar

StartChar: cid01568
Encoding: 12470 12470 26
Width: 1024
GlyphClass: 3
Flags: W
LayerCount: 2
Fore
SplineSet
844.900390625 710 m 0,0,1
 846 699 846 699 833.650390625 690 c 0,2,3
 822 681 822 681 804.849609375 679 c 0,4,5
 788 677 788 677 776.049804688 683 c 0,6,7
 764 688 764 688 763.900390625 701 c 0,8,9
 763 766 763 766 760.700195312 811 c 0,10,11
 760 821 760 821 770.150390625 830 c 0,12,13
 779 837 779 837 795.799804688 840 c 256,14,15
 809 842 809 842 824.599609375 836 c 0,16,17
 839 830 839 830 836.5 827.5 c 0,18,19
 833 824 833 824 844.900390625 710 c 0,0,1
719 571 m 2,20,21
 719 566 719 566 723 566 c 2,22,-1
 830 566 l 2,23,24
 863 566 863 566 889 568 c 0,25,26
 904 569 904 569 914.5 560 c 128,-1,27
 925 551 925 551 925 537 c 2,28,-1
 925 521 l 2,29,30
 925 507 925 507 914.5 497 c 128,-1,31
 904 487 904 487 889 487 c 0,32,33
 861 488 861 488 831 488 c 2,34,-1
 723 488 l 2,35,36
 719 488 719 488 719 484 c 2,37,-1
 719 453 l 2,38,39
 719 351 719 351 707 278.5 c 128,-1,40
 695 206 695 206 666 143.5 c 128,-1,41
 637 81 637 81 586 35 c 128,-1,42
 535 -11 535 -11 458 -50 c 0,43,44
 447 -55 447 -55 436 -55 c 0,45,46
 432 -55 432 -55 428 -55 c 0,47,48
 412 -52 412 -52 400 -41 c 2,49,-1
 383 -25 l 2,50,51
 374 -16 374 -16 376.5 -4 c 128,-1,52
 379 8 379 8 390 13 c 0,53,54
 456 41 456 41 499 72.5 c 128,-1,55
 542 104 542 104 574.5 153.5 c 128,-1,56
 607 203 607 203 621.5 274.5 c 128,-1,57
 636 346 636 346 636 445 c 2,58,-1
 636 484 l 2,59,60
 636 488 636 488 631 488 c 2,61,-1
 350 488 l 2,62,63
 345 488 345 488 345 484 c 2,64,-1
 345 323 l 2,65,66
 345 298 345 298 347 266 c 0,67,68
 348 251 348 251 338 240.5 c 128,-1,69
 328 230 328 230 314 230 c 2,70,-1
 294 230 l 2,71,72
 279 230 279 230 269.5 240.5 c 128,-1,73
 260 251 260 251 261 266 c 0,74,75
 263 298 263 298 263 323 c 2,76,-1
 263 484 l 2,77,78
 263 488 263 488 259 488 c 2,79,-1
 153 488 l 2,80,81
 125 488 125 488 86 487 c 0,82,83
 71 486 71 486 60.5 496 c 128,-1,84
 50 506 50 506 50 521 c 2,85,-1
 50 538 l 2,86,87
 50 552 50 552 60.5 561.5 c 128,-1,88
 71 571 71 571 85 569 c 0,89,90
 122 566 122 566 153 566 c 2,91,-1
 259 566 l 2,92,93
 263 566 263 566 263 571 c 2,94,-1
 263 697 l 2,95,96
 263 717 263 717 262 737 c 0,97,98
 261 751 261 751 270.5 761.5 c 128,-1,99
 280 772 280 772 294 772 c 2,100,-1
 314 772 l 2,101,102
 328 772 328 772 337.5 761.5 c 128,-1,103
 347 751 347 751 346 737 c 0,104,105
 345 717 345 717 345 698 c 2,106,-1
 345 571 l 2,107,108
 345 566 345 566 350 566 c 2,109,-1
 631 566 l 2,110,111
 636 566 636 566 636 571 c 2,112,-1
 636 694 l 2,113,114
 636 718 636 718 635 743 c 0,115,116
 634 757 634 757 643.5 767.5 c 128,-1,117
 653 778 653 778 667 778 c 2,118,-1
 688 778 l 2,119,120
 703 778 703 778 712.5 767.5 c 128,-1,121
 722 757 722 757 721 743 c 0,122,123
 719 718 719 718 719 694 c 2,124,-1
 719 571 l 2,20,21
932.400390625 825 m 0,125,126
 932 831 932 831 934.200195312 835 c 0,127,128
 937 840 937 840 940.5 844 c 0,129,130
 950 852 950 852 966.599609375 854 c 0,131,132
 975 855 975 855 980.099609375 855 c 0,133,134
 989 854 989 854 995.400390625 850 c 0,135,136
 1010 843 1010 843 1010.70019531 833 c 0,137,138
 1020 745 1020 745 1018.29980469 722 c 0,139,140
 1018 716 1018 716 1016.5 712 c 0,141,142
 1015 709 1015 709 1006.59960938 701 c 128,-1,143
 998 693 998 693 979.700195312 690 c 0,144,145
 973 689 973 689 966.200195312 690 c 0,146,147
 962 690 962 690 950 695 c 0,148,149
 940 700 940 700 939.200195312 702 c 0,150,151
 939 735 939 735 932.400390625 825 c 0,125,126
EndSplineSet
LCarets2: 1 0
Ligature2: "'ccmp' Glyph Composition/Decomposition lookup 5 subtable" cid01567 cid01539
EndChar

StartChar: cid01570
Encoding: 12472 12472 27
Width: 1024
GlyphClass: 3
Flags: W
LayerCount: 2
Fore
SplineSet
717.700195312 766 m 0,0,1
 716.799804688 778 716.799804688 778 729.400390625 788 c 0,2,3
 743.799804688 799 743.799804688 799 760 800 c 0,4,5
 779.799804688 801 779.799804688 801 794.200195312 793.5 c 128,-1,6
 808.599609375 786 808.599609375 786 809.5 772 c 0,7,8
 820.299804688 686 820.299804688 686 817.599609375 643 c 0,9,10
 816.700195312 629 816.700195312 629 801.400390625 618.5 c 128,-1,11
 786.099609375 608 786.099609375 608 766.299804688 606.5 c 128,-1,12
 746.5 605 746.5 605 733.450195312 613.5 c 128,-1,13
 720.400390625 622 720.400390625 622 721.299804688 636 c 0,14,15
 724 682 724 682 717.700195312 766 c 0,0,1
903.799804688 777 m 4,16,17
 902 789 902 789 915.049804688 799 c 132,-1,18
 928 809 928 809 946.099609375 810 c 4,19,20
 950 810 950 810 968.599609375 808 c 4,21,22
 975 807 975 807 982.099609375 804 c 4,23,24
 997 797 997 797 999.200195312 782 c 4,25,26
 1009 696 1009 696 1007.29980469 654 c 4,27,28
 1007 646 1007 646 1001.90039062 639 c 4,29,30
 999 635 999 635 992.900390625 631 c 4,31,32
 978 620 978 620 958.700195312 619 c 260,33,34
 939 618 939 618 925.400390625 626 c 4,35,36
 911 635 911 635 911 648 c 4,37,38
 912 717 912 717 903.799804688 777 c 4,16,17
280 692 m 0,39,40
 268 700 268 700 265 714 c 128,-1,41
 262 728 262 728 270 740 c 2,42,-1
 276 750 l 2,43,44
 285 762 285 762 299 766 c 0,45,46
 304 767 304 767 308 767 c 0,47,48
 318 767 318 767 327 761 c 0,49,50
 399 717 399 717 489 655 c 0,51,52
 501 647 501 647 504 632.5 c 128,-1,53
 507 618 507 618 498 606 c 2,54,-1
 490 594 l 2,55,56
 482 582 482 582 467.5 579.5 c 128,-1,57
 453 577 453 577 441 585 c 0,58,59
 367 639 367 639 280 692 c 0,39,40
224 -28 m 0,60,61
 218 -29 218 -29 213 -29 c 0,62,63
 203 -29 203 -29 194 -25 c 0,64,65
 180 -19 180 -19 172 -5 c 2,66,-1
 160 16 l 2,67,68
 153 28 153 28 158.5 39.5 c 128,-1,69
 164 51 164 51 177 54 c 0,70,71
 350 89 350 89 485 166 c 0,72,73
 602 233 602 233 696.5 321.5 c 128,-1,74
 791 410 791 410 855 511 c 0,75,76
 861 521 861 521 873 521 c 128,-1,77
 885 521 885 521 891 511 c 2,78,-1
 905 487 l 2,79,80
 913 473 913 473 913 458 c 0,81,82
 913 442 913 442 903 427 c 0,83,84
 835 332 835 332 738.5 245 c 128,-1,85
 642 158 642 158 528 91 c 0,86,87
 464 53 464 53 381.5 21.5 c 128,-1,88
 299 -10 299 -10 224 -28 c 0,60,61
127 462 m 0,89,90
 114 469 114 469 111 483 c 0,91,92
 109 487 109 487 109 492 c 0,93,94
 109 501 109 501 115 509 c 2,95,-1
 122 519 l 2,96,97
 130 532 130 532 145 535 c 0,98,99
 149 537 149 537 154 537 c 0,100,101
 163 537 163 537 172 531 c 0,102,103
 258 482 258 482 337 430 c 0,104,105
 349 422 349 422 352 408 c 0,106,107
 353 404 353 404 353 400 c 0,108,109
 353 390 353 390 347 381 c 2,110,-1
 339 369 l 2,111,112
 331 356 331 356 317 354 c 0,113,114
 313 353 313 353 310 353 c 0,115,116
 299 353 299 353 290 359 c 0,117,118
 202 420 202 420 127 462 c 0,89,90
EndSplineSet
LCarets2: 1 0
Ligature2: "'ccmp' Glyph Composition/Decomposition lookup 5 subtable" cid01569 cid01539
EndChar

StartChar: cid01572
Encoding: 12474 12474 28
Width: 1024
GlyphClass: 3
Flags: W
LayerCount: 2
Fore
SplineSet
800 723 m 0,0,1
 800 710 800 710 784.5 700.5 c 128,-1,2
 769 691 769 691 747 690 c 0,3,4
 727 689 727 689 712.5 696.5 c 128,-1,5
 698 704 698 704 699 717 c 0,6,7
 701 778 701 778 696 827 c 0,8,9
 695 839 695 839 708.5 848.5 c 0,10,11
 724 859 724 859 742 860 c 0,12,13
 764 861 764 861 779.5 853.5 c 0,14,15
 794 847 794 847 795 833 c 0,16,17
 801 766 801 766 800 723 c 0,0,1
714 701 m 0,18,19
 721 701 721 701 726 701 c 0,20,21
 754 701 754 701 773 687 c 0,22,23
 783 678 783 678 785.5 664.5 c 128,-1,24
 788 651 788 651 781 639 c 0,25,26
 776 629 776 629 773 623 c 0,27,28
 746 553 746 553 700.5 472 c 128,-1,29
 655 391 655 391 604 325 c 0,30,31
 601 322 601 322 605 319 c 0,32,33
 740 202 740 202 877 43 c 0,34,35
 887 32 887 32 885.5 17.5 c 128,-1,36
 884 3 884 3 873 -7 c 2,37,-1
 855 -23 l 2,38,39
 846 -31 846 -31 834 -31 c 0,40,41
 832 -31 832 -31 830 -31 c 0,42,43
 816 -29 816 -29 807 -18 c 0,44,45
 691 128 691 128 550 256 c 0,46,47
 547 259 547 259 544 256 c 0,48,49
 373 72 373 72 180 -25 c 0,50,51
 165 -32 165 -32 149.5 -29 c 128,-1,52
 134 -26 134 -26 123 -14 c 2,53,-1
 107 2 l 2,54,55
 100 9 100 9 100 18 c 0,56,57
 100 21 100 21 100 24 c 0,58,59
 103 36 103 36 115 41 c 0,60,61
 223 89 223 89 324 166 c 128,-1,62
 425 243 425 243 504 332 c 0,63,64
 556 391 556 391 604.5 471 c 128,-1,65
 653 551 653 551 672 613 c 0,66,67
 674 617 674 617 669 617 c 2,68,-1
 274 617 l 2,69,70
 249 617 249 617 206 615 c 0,71,72
 192 614 192 614 181.5 624 c 128,-1,73
 171 634 171 634 171 648 c 2,74,-1
 171 669 l 2,75,76
 171 683 171 683 181.5 692.5 c 128,-1,77
 192 702 192 702 206 701 c 0,78,79
 249 698 249 698 274 698 c 2,80,-1
 670 698 l 2,81,82
 694 698 694 698 714 701 c 0,18,19
896 839 m 0,83,84
 895 847 895 847 901 853 c 0,85,86
 904 857 904 857 908 860 c 0,87,88
 921 870 921 870 940 871 c 0,89,90
 953 872 953 872 965 869 c 0,91,92
 971 868 971 868 976 865 c 0,93,94
 993 857 993 857 994 844 c 0,95,96
 1002 788 1002 788 1002 721 c 0,97,98
 1002 713 1002 713 997 707 c 0,99,100
 993 702 993 702 986 698 c 0,101,102
 971 687 971 687 951 687 c 0,103,104
 946 687 946 687 929 689 c 0,105,106
 922 690 922 690 916 694 c 0,107,108
 900 703 900 703 900 715 c 0,109,110
 900 803 900 803 896 839 c 0,83,84
EndSplineSet
LCarets2: 1 0
Ligature2: "'ccmp' Glyph Composition/Decomposition lookup 5 subtable" cid01571 cid01539
EndChar

StartChar: cid01574
Encoding: 12476 12476 29
Width: 1024
GlyphClass: 3
Flags: W
LayerCount: 2
Fore
SplineSet
804 704 m 0,0,1
 805 692 805 692 789.5 682 c 128,-1,2
 774 672 774 672 754 671 c 0,3,4
 731 669 731 669 717.5 677 c 128,-1,5
 704 685 704 685 704 698 c 0,6,7
 708 768 708 768 701 807 c 4,8,9
 699 819 699 819 713 828.5 c 132,-1,10
 727 838 727 838 745 838 c 4,11,12
 767 839 767 839 782.5 832 c 132,-1,13
 798 825 798 825 799 812 c 4,14,15
 799 760 799 760 804 704 c 0,0,1
382 679 m 2,16,-1
 382 524 l 2,17,18
 382 519 382 519 386 520 c 0,19,20
 695 580 695 580 779 600 c 0,21,22
 792 603 792 603 801 605 c 0,23,24
 814 609 814 609 825 609 c 0,25,26
 846 609 846 609 862 597 c 2,27,-1
 866 593 l 2,28,29
 878 584 878 584 880.5 569 c 128,-1,30
 883 554 883 554 875 541 c 0,31,32
 871 535 871 535 868 530 c 0,33,34
 775 361 775 361 683 258 c 0,35,36
 672 247 672 247 656.5 245 c 128,-1,37
 641 243 641 243 628 251 c 2,38,-1
 618 256 l 2,39,40
 607 263 607 263 605.5 276.5 c 128,-1,41
 604 290 604 290 613 299 c 0,42,43
 659 347 659 347 701.5 407.5 c 128,-1,44
 744 468 744 468 768 514 c 0,45,46
 769 515 769 515 768 516.5 c 128,-1,47
 767 518 767 518 766 517 c 0,48,49
 691 503 691 503 386 441 c 0,50,51
 382 440 382 440 382 436 c 2,52,-1
 382 135 l 2,53,54
 382 81 382 81 411.5 61.5 c 128,-1,55
 441 42 441 42 531 42 c 0,56,57
 681 42 681 42 815 66 c 0,58,59
 828 68 828 68 838.5 59.5 c 128,-1,60
 849 51 849 51 849 37 c 2,61,-1
 848 20 l 2,62,63
 848 5 848 5 837.5 -6.5 c 128,-1,64
 827 -18 827 -18 812 -20 c 0,65,66
 680 -37 680 -37 525 -37 c 0,67,68
 455 -37 455 -37 410 -28 c 128,-1,69
 365 -19 365 -19 340.5 1 c 128,-1,70
 316 21 316 21 307.5 47 c 128,-1,71
 299 73 299 73 299 114 c 2,72,-1
 299 418 l 2,73,74
 299 423 299 423 295 422 c 0,75,76
 174 398 174 398 98 382 c 0,77,78
 84 379 84 379 72 387 c 128,-1,79
 60 395 60 395 57 410 c 2,80,-1
 54 426 l 2,81,82
 54 429 54 429 54 432 c 0,83,84
 54 443 54 443 60 452 c 0,85,86
 69 463 69 463 83 466 c 0,87,88
 147 475 147 475 295 503 c 0,89,90
 299 504 299 504 299 508 c 2,91,-1
 299 679 l 2,92,93
 299 713 299 713 297 738 c 0,94,95
 296 752 296 752 305 762.5 c 128,-1,96
 314 773 314 773 328 773 c 2,97,-1
 354 773 l 2,98,99
 368 773 368 773 377 762.5 c 128,-1,100
 386 752 386 752 385 738 c 0,101,102
 382 705 382 705 382 679 c 2,16,-1
902 811 m 4,103,104
 901 820 901 820 906 825 c 4,105,106
 909 828 909 828 913 832 c 4,107,108
 923 841 923 841 945 842 c 4,109,110
 951 842 951 842 968 840 c 4,111,112
 975 839 975 839 982 836 c 4,113,114
 1000 827 1000 827 1000 816 c 4,115,116
 1002 738 1002 738 1006 708 c 0,117,118
 1007 699 1007 699 1002 694 c 0,119,120
 998 690 998 690 993 685 c 0,121,122
 982 677 982 677 956 675 c 0,123,124
 945 674 945 674 935 676 c 0,125,126
 927 678 927 678 922 681 c 0,127,128
 907 689 907 689 907 702 c 0,129,130
 908 758 908 758 902 811 c 4,103,104
EndSplineSet
LCarets2: 1 0
Ligature2: "'ccmp' Glyph Composition/Decomposition lookup 5 subtable" cid01573 cid01539
EndChar

StartChar: cid01576
Encoding: 12478 12478 30
Width: 1024
GlyphClass: 3
Flags: W
LayerCount: 2
Fore
SplineSet
362 -35 m 0,0,1
 350 -42 350 -42 337 -42 c 0,2,3
 320 -42 320 -42 304 -28 c 2,4,-1
 282 -9 l 2,5,6
 273 -1 273 -1 274.5 11.5 c 128,-1,7
 276 24 276 24 287 29 c 0,8,9
 650 198 650 198 732 596 c 0,10,11
 737 617 737 617 740 643 c 0,12,13
 742 657 742 657 753.5 665.5 c 128,-1,14
 765 674 765 674 778 671 c 2,15,-1
 808 665 l 2,16,17
 822 663 822 663 829 650.5 c 128,-1,18
 836 638 836 638 833 624 c 0,19,20
 826 600 826 600 822 585 c 0,21,22
 809 529 809 529 793 480.5 c 128,-1,23
 777 432 777 432 752 373 c 128,-1,24
 727 314 727 314 692 261.5 c 128,-1,25
 657 209 657 209 611.5 156 c 128,-1,26
 566 103 566 103 502.5 54 c 128,-1,27
 439 5 439 5 362 -35 c 0,0,1
131 643 m 0,28,29
 125 651 125 651 125 660 c 0,30,31
 125 664 125 664 126 668 c 0,32,33
 130 682 130 682 142 688 c 2,34,-1
 159 697 l 2,35,36
 172 703 172 703 187 699.5 c 128,-1,37
 202 696 202 696 210 683 c 0,38,39
 267 594 267 594 346 453 c 0,40,41
 354 440 354 440 349.5 426 c 128,-1,42
 345 412 345 412 333 404 c 2,43,-1
 313 393 l 2,44,45
 305 389 305 389 296 389 c 0,46,47
 291 389 291 389 286 390 c 0,48,49
 272 395 272 395 266 408 c 0,50,51
 195 544 195 544 131 643 c 0,28,29
671.309570312 833 m 0,52,53
 671 840 671 840 676.440429688 848 c 0,54,55
 679 852 679 852 682.424804688 854 c 0,56,57
 694 864 694 864 711.495117188 865 c 0,58,59
 730 866 730 866 743.557617188 858.5 c 128,-1,60
 757 851 757 851 758.51953125 838 c 0,61,62
 766 772 766 772 764.505859375 736 c 0,63,64
 764 724 764 724 750.397460938 713.5 c 0,65,66
 737 703 737 703 718.334960938 702 c 0,67,68
 709 701 709 701 700.380859375 703 c 0,69,70
 697 704 697 704 687.555664062 709 c 0,71,72
 677 714 677 714 676.440429688 730 c 0,73,74
 671 825 671 825 671.309570312 833 c 0,52,53
874.39453125 847 m 0,75,76
 874 851 874 851 879.525390625 862 c 0,77,78
 881 865 881 865 885.509765625 868 c 0,79,80
 896 878 896 878 914.580078125 879 c 0,81,82
 928 880 928 880 934.244140625 878 c 0,83,84
 940 876 940 876 946.21484375 872 c 0,85,86
 960 864 960 864 960.75 851 c 0,87,88
 967.067155692 790.836612457 967.067155692 790.836612457 965.690429688 733 c 0,89,90
 966 725 966 725 961.415039062 718 c 0,91,92
 958 713 958 713 953.719726562 709 c 0,93,94
 940 699 940 699 921.23046875 698 c 0,95,96
 911 697 911 697 901.565429688 699 c 0,97,98
 891 701 891 701 888.740234375 704 c 0,99,100
 876 713 876 713 875.915039062 726 c 0,101,102
 876 752 876 752 874.39453125 847 c 0,75,76
EndSplineSet
LCarets2: 1 0
Ligature2: "'ccmp' Glyph Composition/Decomposition lookup 5 subtable" cid01575 cid01539
EndChar

StartChar: cid01578
Encoding: 12480 12480 31
Width: 1024
GlyphClass: 3
Flags: W
LayerCount: 2
Fore
SplineSet
733 810 m 0,0,1
 733 822 733 822 746.5 832 c 128,-1,2
 760 842 760 842 778 843 c 0,3,4
 800 844 800 844 813 836 c 4,5,6
 829 826 829 826 830 816 c 4,7,8
 834 768 834 768 835 701 c 4,9,10
 835 696 835 696 819 674 c 4,11,12
 812 664 l 2,13,-1
 803 662 l 2,14,-1
 802 660 l 0,15,16
 802 658.1 802 658.1 803 658 c 2,17,-1
 823 656 l 2,18,19
 839 654 839 654 847.5 642 c 0,20,21
 856 628 856 628 846 600 c 0,22,23
 841 587 841 587 838 578 c 0,24,25
 787 405 787 405 690 276 c 0,26,27
 687 272 687 272 691 270 c 0,28,29
 726 248 726 248 757 226 c 0,30,31
 769 218 769 218 771.5 204 c 128,-1,32
 774.033407572 189.812917595 774.033407572 189.812917595 765 178 c 2,33,-1
 752 161 l 2,34,35
 744 150 744 150 729 148 c 128,-1,36
 714 146 714 146 702 155 c 0,37,38
 672 175 672 175 637 201 c 0,39,40
 633 204 633 204 630 200 c 0,41,42
 462 9 462 9 265 -57 c 0,43,44
 253 -61 253 -61 242 -61 c 0,45,46
 222.5 -61 222.5 -61 205 -46 c 2,47,-1
 184 -28 l 2,48,49
 176 -21 176 -21 178 -9.5 c 128,-1,50
 180 2 180 2 191 6 c 0,51,52
 447 95 447 95 560 246 c 0,53,54
 563 250 563 250 559 252 c 0,55,56
 421 342 421 342 369 368 c 0,57,58
 357 374 357 374 354.5 388.5 c 128,-1,59
 352 403 352 403 361 412 c 2,60,-1
 368 419 l 2,61,62
 380 431 380 431 394.5 433.5 c 128,-1,63
 409 436 409 436 423 429 c 0,64,65
 599 333 599 333 613 319 c 0,66,67
 616 316 616 316 619 320 c 0,68,69
 664 384 664 384 693.5 456 c 128,-1,70
 723 528 723 528 746 585 c 0,71,72
 748 590 748 590 743 590 c 2,73,-1
 403 590 l 2,74,75
 398 590 398 590 396 586 c 0,76,77
 271 412 271 412 157 342 c 0,78,79
 144 334 144 334 128 334 c 0,80,81
 110.431137725 334.976047904 110.431137725 334.976047904 100 343 c 2,82,-1
 87 353 l 2,83,84
 78 360 78 360 78 372 c 0,85,86
 78 386 78 386 89 394 c 0,87,88
 164 444 164 444 227.5 509.5 c 128,-1,89
 291 575 291 575 320.5 618.5 c 128,-1,90
 350 662 350 662 388 730 c 0,91,92
 403 757 403 757 410 777 c 0,93,94
 415 791 415 791 428 798 c 0,95,96
 440.617647059 804.794117647 440.617647059 804.794117647 455 800 c 2,97,-1
 479 792 l 2,98,99
 492 788 492 788 497 775 c 128,-1,100
 502 762 502 762 495 751 c 0,101,102
 481 726 481 726 468 701 c 0,103,104
 453 671 453 671 449 667 c 0,105,106
 446 664 446 664 451 664 c 2,107,-1
 664 664 l 2,108,109
 689 660 689 660 714 664 c 0,110,111
 720 665 720 665 726 665 c 0,112,113
 746 665 746 665 747 664 c 1,114,-1
 748 664 l 1,115,116
 733 697 733 697 733 810 c 0,0,1
914 820 m 0,117,118
 913 826 913 826 918 834 c 0,119,120
 921 839 921 839 924 841 c 0,121,122
 941 852 941 852 958 852 c 0,123,124
 971 852 971 852 981 850 c 0,125,126
 988 848 988 848 994 845 c 0,127,128
 1011 838 1011 838 1012 825 c 0,129,130
 1012 723 1012 723 1019 675 c 0,131,132
 1020 668 1020 668 1014 662 c 0,133,134
 1011 658 1011 658 1004 653 c 0,135,136
 989 644 989 644 968 643 c 0,137,138
 957 642 957 642 947 644 c 0,139,140
 939 645 939 645 934 649 c 0,141,142
 919 657 919 657 920 670 c 0,143,144
 920 784 920 784 914 820 c 0,117,118
EndSplineSet
LCarets2: 1 0
Ligature2: "'ccmp' Glyph Composition/Decomposition lookup 5 subtable" cid01577 cid01539
EndChar

StartChar: cid01580
Encoding: 12482 12482 32
Width: 1024
GlyphClass: 3
Flags: W
LayerCount: 2
Fore
SplineSet
544 455 m 2,0,1
 544 451 544 451 548 451 c 2,2,-1
 827 451 l 2,3,4
 845 451 845 451 873 452 c 0,5,6
 887 453 887 453 897.5 443 c 128,-1,7
 908 433 908 433 908 419 c 2,8,-1
 908 406 l 2,9,10
 908 392 908 392 897.5 382 c 128,-1,11
 887 372 887 372 873 373 c 0,12,13
 850 374 850 374 828 374 c 2,14,-1
 547 374 l 2,15,16
 543 374 543 374 542 369 c 0,17,18
 534 233 534 233 479 134.5 c 128,-1,19
 424 36 424 36 311 -36 c 0,20,21
 297 -45 297 -45 283 -45 c 0,22,23
 266.4 -45 266.4 -45 251 -34 c 2,24,-1
 230 -19 l 2,25,26
 220 -12 220 -12 221 -0.5 c 128,-1,27
 222 11 222 11 232 17 c 0,28,29
 338 74 338 74 394 159.5 c 0,30,31
 427 210 427 210 459 369 c 0,32,33
 460 374 460 374 455 374 c 2,34,-1
 155 374 l 2,35,36
 125 374 125 374 99 373 c 0,37,38
 84 372 84 372 73.5 382 c 128,-1,39
 63 392 63 392 63 406 c 2,40,-1
 63 420 l 2,41,42
 63 434 63 434 74 443.5 c 128,-1,43
 85 453 85 453 99 452 c 0,44,45
 126 451 126 451 154 451 c 2,46,-1
 457 451 l 2,47,48
 462 451 462 451 462 455 c 2,49,-1
 462 632 l 2,50,51
 462 637 462 637 457 636 c 0,52,53
 309 623 309 623 198 623 c 0,54,55
 183 623 183 623 170.5 632.5 c 0,56,57
 158.364963504 641.722627737 158.364963504 641.722627737 154 657 c 2,58,-1
 152 664 l 2,59,60
 148 677 148 677 157 687.5 c 0,61,62
 165 698 165 698 179 698 c 0,63,64
 194 697 194 697 209 697 c 0,65,66
 361 697 361 697 487 715 c 0,67,68
 597.727272727 730.272727273 597.727272727 730.272727273 653 751 c 0,69,70
 661 754 661 754 669 754 c 0,71,72
 676 754 676 754 683 752 c 0,73,74
 698.431952663 747.177514793 698.431952663 747.177514793 708 735 c 2,75,-1
 719 721 l 2,76,77
 727 711 727 711 723 699 c 0,78,79
 719.043636364 686.141818182 719.043636364 686.141818182 707 683 c 2,80,-1
 684 677 l 2,81,82
 615.353326482 664.838331621 615.353326482 664.838331621 548 648 c 0,83,84
 544 647 544 647 544 643 c 2,85,-1
 544 455 l 2,0,1
832.150390625 571 m 0,86,87
 830 559 830 559 817.299804688 549.5 c 0,88,89
 804 540 804 540 788.349609375 538 c 0,90,91
 778 537 778 537 770.349609375 539 c 0,92,93
 767 540 767 540 760.650390625 545 c 0,94,95
 748 553 748 553 748.950195312 565 c 0,96,97
 752 668 752 668 747.150390625 710 c 0,98,99
 746 719 746 719 750.75 724 c 0,100,101
 753 727 753 727 757.950195312 731 c 0,102,103
 770 740 770 740 783.849609375 741 c 0,104,105
 799 742 799 742 812.349609375 735 c 0,106,107
 827 727 827 727 827.650390625 716 c 0,108,109
 834 585 834 585 832.150390625 571 c 0,86,87
936.25 725 m 0,110,111
 936 730 936 730 939.849609375 739 c 0,112,113
 942 743 942 743 944.349609375 745 c 0,114,115
 952 751 952 751 969.150390625 755 c 0,116,117
 984 758 984 758 990.75 755 c 0,118,119
 995 753 995 753 998.650390625 751 c 0,120,121
 1011 745 1011 745 1012.95019531 732 c 0,122,123
 1019 675 1019 675 1021.84960938 572 c 0,124,125
 1022 566 1022 566 1015.45019531 558 c 0,126,127
 1012 553 1012 553 1007.34960938 550 c 0,128,129
 991 539 991 539 980.849609375 539 c 0,130,131
 980 539 980 539 965.049804688 541 c 0,132,133
 959 542 959 542 953.349609375 546 c 0,134,135
 942 553 942 553 941.650390625 566 c 0,136,137
 942 626 942 626 936.25 725 c 0,110,111
EndSplineSet
LCarets2: 1 0
Ligature2: "'ccmp' Glyph Composition/Decomposition lookup 5 subtable" cid01579 cid01539
EndChar

StartChar: cid01583
Encoding: 12485 12485 33
Width: 1024
GlyphClass: 3
Flags: W
LayerCount: 2
Fore
SplineSet
384 685 m 0,0,1
 378 699 378 699 384 712 c 128,-1,2
 390 725 390 725 403 729 c 2,3,-1
 415 733 l 2,4,5
 429 738 429 738 443 732 c 128,-1,6
 457 726 457 726 463 712 c 0,7,8
 503 614 503 614 539 510 c 0,9,10
 544 496 544 496 537.5 482.5 c 128,-1,11
 531 469 531 469 516 464 c 2,12,-1
 503 459 l 2,13,14
 490 455 490 455 477 461.5 c 128,-1,15
 464 468 464 468 460 482 c 0,16,17
 425 587 425 587 384 685 c 0,0,1
792 618 m 0,18,19
 795 633 795 633 807 640.5 c 128,-1,20
 819 648 819 648 833 645 c 2,21,-1
 857 639 l 2,22,23
 871 636 871 636 878 623.5 c 128,-1,24
 885 611 885 611 881 597 c 0,25,26
 874 574 874 574 873 572 c 0,27,28
 818 373 818 373 715 237 c 0,29,30
 643 143 643 143 546 69.5 c 128,-1,31
 449 -4 449 -4 345 -46 c 0,32,33
 334 -50 334 -50 324 -50 c 0,34,35
 304 -50 304 -50 287 -33 c 2,36,-1
 268 -13 l 2,37,38
 259 -4 259 -4 262 7.5 c 128,-1,39
 265 19 265 19 276 23 c 0,40,41
 381 60 381 60 478 128 c 128,-1,42
 575 196 575 196 644 285 c 0,43,44
 753 424 753 424 792 618 c 0,18,19
98 622 m 0,45,46
 94 629 94 629 94 636 c 0,47,48
 94 642 94 642 97 648 c 0,49,50
 102 661 102 661 115 666 c 2,51,-1
 129 671 l 2,52,53
 144 676 144 676 157.5 670 c 128,-1,54
 171 664 171 664 177 651 c 0,55,56
 227 538 227 538 265 436 c 0,57,58
 271 422 271 422 264.5 408.5 c 128,-1,59
 258 395 258 395 244 390 c 2,60,-1
 230 385 l 2,61,62
 224 383 224 383 218 383 c 0,63,64
 211 383 211 383 203 386 c 0,65,66
 190 393 190 393 185 406 c 0,67,68
 145 519 145 519 98 622 c 0,45,46
718.200195312 822 m 0,69,70
 716 834 716 834 721.799804688 838 c 0,71,72
 725 840 725 840 729.900390625 844 c 0,73,74
 742 854 742 854 759.599609375 855 c 0,75,76
 779 856 779 856 793.799804688 848 c 0,77,78
 808 840 808 840 809.099609375 827 c 0,79,80
 810 753 810 753 812.700195312 722 c 0,81,82
 814 710 814 710 797.849609375 698.5 c 0,83,84
 782 687 782 687 766.799804688 688 c 0,85,86
 756 688 756 688 747.900390625 690 c 256,87,88
 741 692 741 692 735.299804688 696 c 0,89,90
 722 703 722 703 722.700195312 716 c 0,91,92
 724 793 724 793 718.200195312 822 c 0,69,70
894.599609375 832 m 4,93,94
 893 840 893 840 898.200195312 847 c 4,95,96
 900 850 900 850 904.5 853 c 4,97,98
 920 865 920 865 935.099609375 865 c 4,99,100
 947 865 947 865 955.799804688 863 c 4,101,102
 964 861 964 861 969.299804688 857 c 4,103,104
 984 849 984 849 984.599609375 836 c 4,105,106
 987 751 987 751 991.799804688 729 c 0,107,108
 993 723 993 723 987.299804688 715 c 0,109,110
 984 710 984 710 978.299804688 706 c 0,111,112
 964 696 964 696 945.900390625 695 c 0,113,114
 934 694 934 694 927 696 c 256,115,116
 919 698 919 698 913.5 701 c 0,117,118
 900 709 900 709 900 723 c 0,119,120
 900 808 900 808 894.599609375 832 c 4,93,94
EndSplineSet
LCarets2: 1 0
Ligature2: "'ccmp' Glyph Composition/Decomposition lookup 5 subtable" cid01582 cid01539
EndChar

StartChar: cid01585
Encoding: 12487 12487 34
Width: 1024
GlyphClass: 3
Flags: W
LayerCount: 2
Fore
SplineSet
825 646 m 0,0,1
 823 634 823 634 809.700195312 624 c 0,2,3
 796 614 796 614 779.299804688 613 c 256,4,5
 761 612 761 612 748.25 619.5 c 0,6,7
 735 627 735 627 736.099609375 641 c 0,8,9
 737 707 737 707 732.5 807 c 0,10,11
 732 818 732 818 743.299804688 827.5 c 0,12,13
 755 837 755 837 773.900390625 838 c 256,14,15
 790 839 790 839 803.849609375 832 c 0,16,17
 818 825 818 825 818.700195312 812 c 0,18,19
 828 664 828 664 825 646 c 0,0,1
590 667 m 2,20,-1
 302 667 l 2,21,22
 271 667 271 667 243 666 c 0,23,24
 229 665 229 665 218.5 675 c 128,-1,25
 208 685 208 685 208 699 c 2,26,-1
 208 713 l 2,27,28
 208 727 208 727 218.5 736.5 c 128,-1,29
 229 746 229 746 243 745 c 0,30,31
 275 742 275 742 301 742 c 2,32,-1
 590 742 l 2,33,34
 619 742 619 742 650 745 c 0,35,36
 665 746 665 746 675.5 736.5 c 128,-1,37
 686 727 686 727 686 713 c 2,38,-1
 686 699 l 2,39,40
 686 685 686 685 675.5 675 c 128,-1,41
 665 665 665 665 650 665 c 0,42,43
 620 667 620 667 590 667 c 2,20,-1
176 486 m 2,44,-1
 846 486 l 2,45,46
 868 486 868 486 890 488 c 0,47,48
 905 488 905 488 915.5 478.5 c 128,-1,49
 926 469 926 469 926 455 c 2,50,-1
 926 442 l 2,51,52
 926 428 926 428 915.5 417.5 c 128,-1,53
 905 407 905 407 890 408 c 0,54,55
 864 409 864 409 846 409 c 2,56,-1
 572 409 l 2,57,58
 567 409 567 409 567 404 c 0,59,60
 562 231 562 231 507 129 c 0,61,62
 482 84 482 84 437 38.5 c 128,-1,63
 392 -7 392 -7 336 -41 c 0,64,65
 323 -49 323 -49 309 -49 c 0,66,67
 293 -49 293 -49 277 -37 c 2,68,-1
 258 -23 l 2,69,70
 248 -16 248 -16 249.5 -4.5 c 128,-1,71
 251 7 251 7 262 13 c 0,72,73
 312 39 312 39 354.5 76 c 128,-1,74
 397 113 397 113 423 155 c 0,75,76
 454 204 454 204 466.5 264 c 128,-1,77
 479 324 479 324 482 404 c 0,78,79
 482 409 482 409 478 409 c 2,80,-1
 176 409 l 2,81,82
 140 409 140 409 122 408 c 0,83,84
 108 408 108 408 97.5 418 c 128,-1,85
 87 428 87 428 87 442 c 2,86,-1
 87 455 l 2,87,88
 87 469 87 469 97.5 479 c 128,-1,89
 108 489 108 489 122 488 c 0,90,91
 152 486 152 486 176 486 c 2,44,-1
920.099609375 813 m 0,92,93
 919 822 919 822 923.700195312 827 c 0,94,95
 927 831 927 831 930.900390625 834 c 0,96,97
 943 843 943 843 956.799804688 844 c 0,98,99
 969 845 969 845 977.5 843 c 0,100,101
 988 840 988 840 991 838 c 0,102,103
 1004 830 1004 830 1005.40039062 817 c 0,104,105
 1020 726 1020 726 1015.5 647 c 0,106,107
 1015 638 1015 638 1011 633 c 128,-1,108
 1007 628 1007 628 1001.09960938 623 c 0,109,110
 988 614 988 614 969.599609375 613 c 0,111,112
 959 612 959 612 950.799804688 614 c 0,113,114
 948 615 948 615 940.200195312 619 c 0,115,116
 928 627 928 627 927.599609375 640 c 0,117,118
 929 735 929 735 920.099609375 813 c 0,92,93
EndSplineSet
LCarets2: 1 0
Ligature2: "'ccmp' Glyph Composition/Decomposition lookup 5 subtable" cid01584 cid01539
EndChar

StartChar: cid01587
Encoding: 12489 12489 35
Width: 1024
GlyphClass: 3
Flags: W
LayerCount: 2
Fore
SplineSet
908 627 m 4,0,1
 908 619 908 619 902.599609375 611 c 4,2,3
 899.900390625 607 899.900390625 607 894.5 602 c 4,4,5
 880.099609375 592 880.099609375 592 859.849609375 590 c 132,-1,6
 839.599609375 588 839.599609375 588 826.099609375 596 c 132,-1,7
 812.599609375 604 812.599609375 604 811.700195312 618 c 4,8,9
 811.700195312 704 811.700195312 704 804.5 752 c 4,10,11
 802.700195312 764 802.700195312 764 815.299804688 774.5 c 132,-1,12
 827.900390625 785 827.900390625 785 845 786 c 4,13,14
 866.599609375 788 866.599609375 788 881 780.5 c 132,-1,15
 895.400390625 773 895.400390625 773 898.099609375 759 c 4,16,17
 908 700 908 700 908 627 c 4,0,1
701.900390625 615 m 4,18,19
 701.900390625 602 701.900390625 602 687.049804688 591 c 132,-1,20
 672.200195312 580 672.200195312 580 652.400390625 578.5 c 132,-1,21
 632.599609375 577 632.599609375 577 618.650390625 585.5 c 132,-1,22
 604.700195312 594 604.700195312 594 605.599609375 608 c 4,23,24
 608.299804688 698 608.299804688 698 602 743 c 4,25,26
 600.200195312 755 600.200195312 755 613.700195312 765.5 c 4,27,28
 624.5 774 624.5 774 644.299804688 776 c 4,29,30
 665 778 665 778 679.400390625 770.5 c 132,-1,31
 693.799804688 763 693.799804688 763 694.700195312 750 c 4,32,33
 702.799804688 687 702.799804688 687 701.900390625 615 c 4,18,19
398 673 m 2,34,-1
 398 509 l 2,35,36
 398 505 398 505 403 504 c 0,37,38
 624 436 624 436 804 352 c 0,39,40
 817 346 817 346 822 332 c 0,41,42
 825 325 825 325 825 318 c 256,43,44
 825 311 825 311 822 304 c 2,45,-1
 813 283 l 2,46,47
 808 270 808 270 794.5 265 c 128,-1,48
 781 260 781 260 768 266 c 0,49,50
 609 347 609 347 403 412 c 0,51,52
 398 414 398 414 398 409 c 2,53,-1
 398 77 l 2,54,55
 398 35 398 35 401 -9 c 0,56,57
 402 -23 402 -23 392.5 -33.5 c 128,-1,58
 383 -44 383 -44 369 -44 c 2,59,-1
 342 -44 l 2,60,61
 328 -44 328 -44 318 -33.5 c 128,-1,62
 308 -23 308 -23 309 -9 c 0,63,64
 312 33 312 33 312 77 c 2,65,-1
 312 673 l 1,66,-1
 309 748 l 2,67,68
 309 759 309 759 317 769 c 0,69,70
 326 779 326 779 340 779 c 2,71,-1
 369 779 l 2,72,73
 383 779 383 779 393 768.5 c 128,-1,74
 403 758 403 758 401 744 c 0,75,76
 398 701 398 701 398 673 c 2,34,-1
EndSplineSet
LCarets2: 1 0
Ligature2: "'ccmp' Glyph Composition/Decomposition lookup 5 subtable" cid01586 cid01539
EndChar

StartChar: cid01594
Encoding: 12496 12496 36
Width: 1024
GlyphClass: 3
Flags: W
LayerCount: 2
Fore
SplineSet
730.950195312 800 m 0,0,1
 728 811 728 811 740.849609375 820.5 c 0,2,3
 753 830 753 830 769.650390625 831 c 0,4,5
 789 832 789 832 803.400390625 824.5 c 0,6,7
 817 817 817 817 818.25 804 c 0,8,9
 824 759 824 759 823.75 686 c 0,10,11
 824 673 824 673 810.25 663 c 0,12,13
 797 653 797 653 777.849609375 652 c 0,14,15
 758 651 758 651 745.900390625 659.5 c 128,-1,16
 734 668 734 668 733.75 680 c 0,17,18
 736 777 736 777 730.950195312 800 c 0,0,1
920.75 813 m 4,19,20
 920 824 920 824 932 834 c 4,21,22
 942 842 942 842 960.349609375 844 c 4,23,24
 972 845 972 845 981.049804688 843 c 4,25,26
 987 841 987 841 993.650390625 838 c 4,27,28
 1009 829 1009 829 1009.84960938 818 c 4,29,30
 1021 746 1021 746 1020.04980469 692 c 0,31,32
 1020 685 1020 685 1014.65039062 678 c 0,33,34
 1011 673 1011 673 1006.54980469 670 c 0,35,36
 992 660 992 660 972.349609375 658 c 0,37,38
 954 657 954 657 941.299804688 664.5 c 0,39,40
 929 671 929 671 929.150390625 686 c 0,41,42
 929 693 929 693 920.75 813 c 4,19,20
223 308 m 0,43,44
 254 381 254 381 280 475 c 128,-1,45
 306 569 306 569 319 652 c 0,46,47
 321 666 321 666 332.5 674.5 c 128,-1,48
 344 683 344 683 358 680 c 2,49,-1
 380 676 l 2,50,51
 394 673 394 673 401.5 660.5 c 128,-1,52
 409 648 409 648 406 634 c 0,53,54
 399 610 399 610 396 594 c 0,55,56
 350 388 350 388 303 274 c 0,57,58
 249 139 249 139 172 22 c 0,59,60
 164 9 164 9 149 5 c 0,61,62
 143 3 143 3 137 3 c 0,63,64
 128 3 128 3 120 7 c 2,65,-1
 98 16 l 2,66,67
 86 21 86 21 82 34 c 0,68,69
 81 38 81 38 81 42 c 0,70,71
 81 51 81 51 86 58 c 0,72,73
 167 173 167 173 223 308 c 0,43,44
727 347 m 0,74,75
 659 523 659 523 596 640 c 0,76,77
 592 647 592 647 592 654 c 0,78,79
 592 659 592 659 594 665 c 0,80,81
 599 678 599 678 612 682 c 2,82,-1
 628 687 l 2,83,84
 635 689 635 689 641 689 c 0,85,86
 649 689 649 689 657 686 c 0,87,88
 671 681 671 681 678 667 c 0,89,90
 749 530 749 530 811 375 c 0,91,92
 871 230 871 230 924 59 c 0,93,94
 925 53 925 53 925 48 c 0,95,96
 925 39 925 39 921 31 c 0,97,98
 914 18 914 18 900 14 c 2,99,-1
 877 6 l 2,100,101
 871 4 871 4 866 4 c 0,102,103
 858 4 858 4 850 8 c 0,104,105
 838 15 838 15 834 29 c 0,106,107
 795 175 795 175 727 347 c 0,74,75
EndSplineSet
LCarets2: 1 0
Ligature2: "'ccmp' Glyph Composition/Decomposition lookup 5 subtable" cid01593 cid01539
EndChar

StartChar: cid01597
Encoding: 12499 12499 37
Width: 1024
GlyphClass: 3
Flags: W
LayerCount: 2
Fore
SplineSet
765 692 m 0,0,1
 765 679 765 679 749.5 669.5 c 128,-1,2
 734 660 734 660 714 658 c 0,3,4
 691 656 691 656 677.5 664.5 c 128,-1,5
 664 673 664 673 664 685 c 0,6,7
 666 765 666 765 662 804 c 0,8,9
 661 816 661 816 673 824.5 c 0,10,11
 689 835 689 835 706 836 c 0,12,13
 728 837 728 837 743 829 c 128,-1,14
 758 821 758 821 759 808 c 0,15,16
 765 762 765 762 765 692 c 0,0,1
285 371 m 0,17,18
 281 370 281 370 281 365 c 2,19,-1
 281 144 l 2,20,21
 281 107 281 107 296.5 92 c 128,-1,22
 312 77 312 77 352 69 c 0,23,24
 403 60 403 60 487 60 c 0,25,26
 674 60 674 60 803 85 c 0,27,28
 816 88 816 88 827 79.5 c 128,-1,29
 838 71 838 71 838 58 c 2,30,-1
 838 36 l 2,31,32
 838 20 838 20 828 8.5 c 128,-1,33
 818 -3 818 -3 802 -5 c 0,34,35
 658 -22 658 -22 483 -22 c 0,36,37
 379 -22 379 -22 319 -11 c 0,38,39
 258 0 258 0 227.5 31 c 128,-1,40
 197 62 197 62 197 122 c 2,41,-1
 197 685 l 1,42,-1
 195 736 l 2,43,44
 195 748 195 748 203 757 c 0,45,46
 212 768 212 768 226 768 c 2,47,-1
 250 768 l 2,48,49
 264 768 264 768 273.5 757.5 c 128,-1,50
 283 747 283 747 282 733 c 0,51,52
 281 708 281 708 281 685 c 2,53,-1
 281 458 l 2,54,55
 281 454 281 454 285 455 c 0,56,57
 515 512 515 512 670 579 c 0,58,59
 700 591 700 591 729 607 c 0,60,61
 741 614 741 614 754.5 609.5 c 128,-1,62
 768 605 768 605 774 592 c 2,63,-1
 781 575 l 2,64,65
 787 562 787 562 781.5 548 c 128,-1,66
 776 534 776 534 763 529 c 0,67,68
 723 511 723 511 699 503 c 0,69,70
 528 434 528 434 285 371 c 0,17,18
883 821 m 0,71,72
 881 828 881 828 887 835 c 0,73,74
 890 839 890 839 895 842 c 0,75,76
 909 851 909 851 928 852 c 0,77,78
 943 852 943 852 950.5 851 c 128,-1,79
 958 850 958 850 964 847 c 0,80,81
 980 839 980 839 981 826 c 0,82,83
 988 746 988 746 988 708 c 0,84,85
 988 702 988 702 981 694 c 0,86,87
 977 689 977 689 973 686 c 0,88,89
 955 673 955 673 939 673 c 0,90,91
 936 673 936 673 918 675 c 0,92,93
 910 676 910 676 904 680 c 0,94,95
 890 688 890 688 890 700 c 0,96,97
 891 794 891 794 883 821 c 0,71,72
EndSplineSet
LCarets2: 1 0
Ligature2: "'ccmp' Glyph Composition/Decomposition lookup 5 subtable" cid01596 cid01539
EndChar

StartChar: cid01600
Encoding: 12502 12502 38
Width: 1024
GlyphClass: 3
Flags: W
LayerCount: 2
Fore
SplineSet
810 729 m 0,0,1
 809 714 809 714 802 708 c 0,2,-1
 797 701 l 2,3,-1
 794 700 l 2,4,5
 793 700 793 700 793 698 c 0,6,7
 793 696.238095238 793 696.238095238 794 696 c 2,8,-1
 836 686 l 2,9,10
 848 683 848 683 854 662 c 0,11,12
 859 646 859 646 855 633 c 0,13,14
 853 626 853 626 851 615 c 0,15,16
 830 516 830 516 791.5 412.5 c 128,-1,17
 753 309 753 309 698 238 c 0,18,19
 542 39 542 39 329 -25 c 0,20,21
 319 -28 319 -28 309 -28 c 0,22,23
 286.84 -28 286.84 -28 271 -10 c 2,24,-1
 249 15 l 2,25,26
 241 24 241 24 244.5 35.5 c 128,-1,27
 248 47 248 47 260 50 c 0,28,29
 386 86 386 86 472.5 145 c 128,-1,30
 559 204 559 204 625 287 c 0,31,32
 675 351 675 351 706 431.5 c 128,-1,33
 737 512 737 512 758 616 c 0,34,35
 759 621 759 621 754 621 c 2,36,-1
 234 621 l 2,37,38
 206 621 206 621 169 619 c 0,39,40
 154 618 154 618 143.5 628 c 128,-1,41
 133 638 133 638 133 653 c 2,42,-1
 133 672 l 2,43,44
 133 686 133 686 143.5 695.5 c 128,-1,45
 154 705 154 705 169 704 c 0,46,47
 206 701 206 701 236 701 c 2,48,-1
 677 701 l 2,49,50
 696 704 696 704 715 704 c 0,51,52
 720 704 720 704 717 708 c 0,53,-1
 711 817 l 0,54,55
 710 828 710 828 724.5 838.5 c 128,-1,56
 739 849 739 849 755 849 c 0,57,58
 775 850 775 850 791 842.5 c 0,59,60
 808.056234719 834.504889976 808.056234719 834.504889976 809 822 c 0,61,62
 812 777 812 777 810 729 c 0,0,1
916 830 m 4,63,64
 914 838 914 838 920 845 c 4,65,66
 922 848 922 848 927 852 c 4,67,68
 943 863 943 863 958 863 c 4,69,70
 970 863 970 863 982 861 c 4,71,72
 990 859 990 859 995 856 c 4,73,74
 1014 848 1014 848 1014 834 c 4,75,76
 1016 715 1016 715 1023 661 c 0,77,78
 1024 654 1024 654 1018 647 c 0,79,80
 1014 642 1014 642 1008 639 c 0,81,82
 992 628 992 628 972 627 c 0,83,84
 962 626 962 626 953 628 c 256,85,86
 945 630 945 630 939 634 c 0,87,88
 924 642 924 642 924 655 c 0,89,90
 924 798 924 798 916 830 c 4,63,64
EndSplineSet
LCarets2: 1 0
Ligature2: "'ccmp' Glyph Composition/Decomposition lookup 5 subtable" cid01599 cid01539
EndChar

StartChar: cid01603
Encoding: 12505 12505 39
Width: 1024
GlyphClass: 3
Flags: W
LayerCount: 2
Fore
SplineSet
617 692 m 0,0,1
 615.9395218 704.195499297 615.9395218 704.195499297 631.5 716 c 0,2,3
 644 725 644 725 666 727 c 0,4,5
 690 729 690 729 706 720.5 c 128,-1,6
 722 712 722 712 723 699 c 0,7,8
 728 633 728 633 734 567 c 0,9,10
 735 554 735 554 715.5 542 c 0,11,12
 698 531 698 531 676 529.5 c 128,-1,13
 654 528 654 528 638.5 536.5 c 0,14,15
 624.828025478 544.095541401 624.828025478 544.095541401 624 559 c 0,16,17
 621 613 621 613 617 692 c 0,0,1
859 706 m 4,18,19
 857 718 857 718 871 729 c 132,-1,20
 885 740 885 740 905 741 c 4,21,22
 916 742 916 742 932 740 c 4,23,24
 939 739 939 739 946 736 c 4,25,26
 961 729 961 729 962 714 c 4,27,28
 970 650 970 650 975 573 c 4,29,30
 976 560 976 560 958.5 548 c 4,31,32
 942 537 942 537 919.5 535.5 c 132,-1,33
 897 534 897 534 881.5 542 c 132,-1,34
 866 550 866 550 867 564 c 4,35,36
 869 647 869 647 859 706 c 4,18,19
151 222 m 0,37,38
 143 211 143 211 129 210 c 128,-1,39
 115 209 115 209 105 219 c 2,40,-1
 80 244 l 2,41,42
 71 254 71 254 71 268 c 0,43,44
 71 283 71 283 82 293 c 0,45,46
 102 312 102 312 127 337 c 0,47,48
 149 359 149 359 183.5 400.5 c 128,-1,49
 218 442 218 442 262.5 496 c 128,-1,50
 307 550 307 550 330 577 c 0,51,52
 371 626 371 626 407 629 c 0,53,54
 410 629 410 629 412 629 c 0,55,56
 447 629 447 629 500 587 c 0,57,58
 564 534 564 534 712 375 c 0,59,60
 871 204 871 204 936 128 c 0,61,62
 946 117 946 117 946 102 c 256,63,64
 946 87 946 87 936 75 c 2,65,-1
 917 55 l 2,66,67
 908 45 908 45 895 45 c 0,68,-1
 894 45 l 2,69,70
 880 46 880 46 871 57 c 0,71,72
 809 134 809 134 663 301 c 0,73,74
 517 464 517 464 463 509 c 0,75,76
 432 534 432 534 415 534 c 2,77,-1
 414 534 l 0,78,79
 397 533 397 533 371 501 c 256,80,81
 345 469 345 469 277.5 383.5 c 128,-1,82
 210 298 210 298 189 272 c 0,83,84
 175 254 175 254 151 222 c 0,37,38
EndSplineSet
LCarets2: 1 0
Ligature2: "'ccmp' Glyph Composition/Decomposition lookup 5 subtable" cid01602 cid01539
EndChar

StartChar: cid01606
Encoding: 12508 12508 40
Width: 1024
GlyphClass: 3
Flags: W
LayerCount: 2
Fore
SplineSet
1004 710 m 0,0,1
 1005 703 1005 703 999 696 c 0,2,3
 997 694 997 694 988 688 c 0,4,5
 970 677 970 677 953 676 c 256,6,7
 934 675 934 675 919 682.5 c 128,-1,8
 904 690 904 690 904 704 c 0,9,10
 907 795 907 795 899 823 c 0,11,12
 896 834 896 834 909.5 843.5 c 128,-1,13
 923 853 923 853 942 855 c 0,14,15
 955 856 955 856 966 853 c 0,16,17
 973 851 973 851 979 848 c 0,18,19
 996 840 996 840 997 828 c 0,20,21
 1001 730 1001 730 1004 710 c 0,0,1
804 712 m 0,22,23
 805 700 805 700 789 689.5 c 128,-1,24
 773 679 773 679 751 678 c 0,25,26
 731 677 731 677 717 685.5 c 128,-1,27
 703 694 703 694 703 706 c 0,28,29
 704 781 704 781 700 818 c 0,30,31
 699 830 699 830 711.5 838.5 c 0,32,33
 726 848 726 848 744 850 c 0,34,35
 757 851 757 851 767 848 c 0,36,37
 776 846 776 846 782 843 c 0,38,39
 798 835 798 835 799 821 c 0,40,41
 800 764 800 764 804 712 c 0,22,23
242 379 m 0,42,43
 249 392 249 392 263 396.5 c 128,-1,44
 277 401 277 401 290 395 c 2,45,-1
 298 391 l 2,46,47
 311 385 311 385 315.5 371 c 128,-1,48
 320 357 320 357 313 344 c 0,49,50
 252 236 252 236 156 121 c 0,51,52
 147 109 147 109 131.5 107.5 c 128,-1,53
 116 106 116 106 104 114 c 2,54,-1
 92 122 l 2,55,56
 79 131 79 131 79 147 c 0,57,58
 79 159 79 159 87 167 c 0,59,60
 128 211 128 211 170.5 269 c 128,-1,61
 213 327 213 327 242 379 c 0,42,43
829 534 m 2,62,-1
 553 534 l 2,63,64
 549 534 549 534 549 529 c 2,65,-1
 549 38 l 2,66,67
 549 -3 549 -3 527.5 -23.5 c 128,-1,68
 506 -44 506 -44 461 -44 c 0,69,70
 411 -44 411 -44 351 -40 c 0,71,72
 335 -39 335 -39 324 -28 c 0,73,74
 313.272727273 -17.2727272727 313.272727273 -17.2727272727 312 -2 c 2,75,-1
 311 10 l 2,76,77
 310 24 310 24 319 32 c 0,78,79
 329 41 329 41 342 40 c 0,80,81
 392 33 392 33 426 33 c 0,82,83
 466 33 466 33 466 72 c 2,84,-1
 466 529 l 2,85,86
 466 534 466 534 461 534 c 2,87,-1
 181 534 l 2,88,89
 155 532 155 532 130 532 c 0,90,91
 115 532 115 532 104.5 542 c 128,-1,92
 94 552 94 552 94 566 c 2,93,-1
 94 581 l 2,94,95
 94 595 94 595 104.5 604.5 c 128,-1,96
 115 614 115 614 130 613 c 0,97,98
 155 611 155 611 181 611 c 2,99,-1
 461 611 l 2,100,101
 466 611 466 611 466 616 c 2,102,-1
 466 717 l 2,103,104
 466 734 466 734 464 754 c 0,105,106
 463 768 463 768 472 779 c 128,-1,107
 481 790 481 790 494 790 c 2,108,-1
 520 790 l 2,109,110
 533 790 533 790 542.5 779 c 128,-1,111
 552 768 552 768 551 754 c 0,112,113
 549 732 549 732 549 716 c 2,114,-1
 549 616 l 2,115,116
 549 611 549 611 553 611 c 2,117,-1
 828 611 l 2,118,119
 854 611 854 611 877 613 c 0,120,121
 895 614 895 614 903.5 606.5 c 128,-1,122
 912 599 912 599 912 581 c 2,123,-1
 912 567 l 2,124,125
 912 553 912 553 901.5 543 c 128,-1,126
 891 533 891 533 877 533 c 0,127,128
 860 534 860 534 829 534 c 2,62,-1
710 345 m 0,129,130
 704 353 704 353 704 363 c 0,131,132
 704 366 704 366 705 369 c 0,133,134
 707 383 707 383 720 389 c 2,135,-1
 726 393 l 2,136,137
 736 398 736 398 746 398 c 0,138,139
 751 398 751 398 755 397 c 0,140,141
 770 394 770 394 780 382 c 0,142,143
 847 293 847 293 917 173 c 0,144,145
 922 165 922 165 922 156 c 0,146,147
 922 151 922 151 921 146 c 0,148,149
 917 132 917 132 904 125 c 2,150,-1
 890 118 l 2,151,152
 882 113 882 113 874 113 c 0,153,154
 869 113 869 113 864 115 c 0,155,156
 850 119 850 119 843 132 c 0,157,158
 776 256 776 256 710 345 c 0,129,130
EndSplineSet
LCarets2: 1 0
Ligature2: "'ccmp' Glyph Composition/Decomposition lookup 5 subtable" cid01605 cid01539
EndChar

StartChar: cid01630
Encoding: 12532 12532 41
Width: 1024
GlyphClass: 3
Flags: W
LayerCount: 2
Fore
SplineSet
791 719 m 0,0,1
 791 706 791 706 776 696.5 c 128,-1,2
 761 687 761 687 740 686 c 0,3,4
 720 685 720 685 705.5 692.5 c 128,-1,5
 691 700 691 700 692 714 c 0,6,7
 692 765 692 765 687 825 c 0,8,9
 686 837 686 837 699.5 846.5 c 128,-1,10
 713 856 713 856 733 857 c 0,11,12
 754 858 754 858 768.5 851 c 128,-1,13
 783 844 783 844 785 831 c 0,14,15
 792 774 792 774 791 719 c 0,0,1
525 640 m 2,16,17
 525 636 525 636 530 636 c 2,18,-1
 755 636 l 2,19,20
 777 636 777 636 793 638 c 0,21,22
 801 638 801 638 808 638 c 0,23,24
 834 638 834 638 853 627 c 0,25,26
 865 619 865 619 870 605.5 c 128,-1,27
 875 592 875 592 872 578 c 0,28,29
 869 565 869 565 865 548 c 0,30,31
 835 359 835 359 765 241 c 0,32,33
 710 144 710 144 615.5 72 c 128,-1,34
 521 0 521 0 394 -39 c 0,35,36
 385 -42 385 -42 377 -42 c 0,37,38
 354 -42 354 -42 337 -22 c 2,39,-1
 317 0 l 2,40,41
 310 9 310 9 313.5 20 c 128,-1,42
 317 31 317 31 329 34 c 0,43,44
 364 42 364 42 399 55 c 0,45,46
 479 81 479 81 555.5 136.5 c 128,-1,47
 632 192 632 192 677 262 c 0,48,49
 716 321 716 321 740.5 401.5 c 128,-1,50
 765 482 765 482 774 556 c 0,51,52
 774 560 774 560 770 560 c 2,53,-1
 207 560 l 2,54,55
 203 560 203 560 203 556 c 2,56,-1
 203 377 l 2,57,58
 203 365 203 365 203 352 c 0,59,60
 204 337 204 337 194.5 326.5 c 128,-1,61
 185 316 185 316 170 316 c 2,62,-1
 152 316 l 2,63,64
 138 316 138 316 128.5 327 c 128,-1,65
 119 338 119 338 120 352 c 0,66,67
 121 369 121 369 121 382 c 2,68,-1
 121 561 l 1,69,-1
 120 607 l 2,70,71
 120 619 120 619 129 628 c 0,72,73
 138 638 138 638 152 637 c 0,74,75
 178 636 178 636 212 636 c 2,76,-1
 435 636 l 2,77,78
 439 636 439 636 439 640 c 2,79,-1
 439 731 l 2,80,81
 439 753 439 753 438 773 c 0,82,83
 436 787 436 787 445.5 797.5 c 128,-1,84
 455 808 455 808 469 808 c 2,85,-1
 496 808 l 2,86,87
 510 808 510 808 519.5 797.5 c 128,-1,88
 529 787 529 787 527 773 c 0,89,90
 525 750 525 750 525 731 c 2,91,-1
 525 640 l 2,16,17
912 834 m 0,92,93
 909 841 909 841 915 848 c 0,94,95
 918 852 918 852 922 855 c 0,96,97
 938 866 938 866 956 866 c 0,98,99
 972 866 972 866 979 864 c 128,-1,100
 986 862 986 862 992 859 c 0,101,102
 1007 852 1007 852 1008 839 c 0,103,104
 1017 762 1017 762 1018 716 c 0,105,106
 1018 705 1018 705 1013 701 c 0,107,108
 1009 698 1009 698 1002 693 c 0,109,110
 987 684 987 684 967 683 c 0,111,112
 956 682 956 682 946 684 c 0,113,114
 938 685 938 685 931 689 c 0,115,116
 917 697 917 697 917 710 c 0,117,118
 920 815 920 815 912 834 c 0,92,93
EndSplineSet
LCarets2: 1 0
Ligature2: "'ccmp' Glyph Composition/Decomposition lookup 5 subtable" cid01552 cid01539
EndChar

StartChar: cid01633
Encoding: 12535 12535 42
Width: 1024
GlyphClass: 3
Flags: W
LayerCount: 2
Fore
SplineSet
777 690 m 0,0,1
 783 691 783 691 788 691 c 0,2,3
 819 691 819 691 842 676 c 2,4,-1
 844 675 l 2,5,6
 857 666 857 666 862 651.5 c 128,-1,7
 867 637 867 637 863 621 c 0,8,9
 861 613 861 613 860 608 c 0,10,11
 851 545 851 545 844.5 510 c 128,-1,12
 838 475 838 475 824.5 417.5 c 128,-1,13
 811 360 811 360 792 313 c 128,-1,14
 773 266 773 266 746 225 c 0,15,16
 689 134 689 134 597 62 c 128,-1,17
 505 -10 505 -10 393 -52 c 0,18,19
 382 -56 382 -56 372 -56 c 0,20,21
 352 -56 352 -56 334 -38 c 2,22,-1
 314 -18 l 2,23,24
 305 -10 305 -10 308 1.5 c 128,-1,25
 311 13 311 13 323 17 c 0,26,27
 431 51 431 51 522 115.5 c 128,-1,28
 613 180 613 180 670 268 c 0,29,30
 747 388 747 388 767 606 c 0,31,32
 767 610 767 610 762 610 c 2,33,-1
 206 610 l 2,34,35
 202 610 202 610 202 606 c 2,36,-1
 202 406 l 2,37,38
 202 393 202 393 203 375 c 0,39,40
 203 361 203 361 193.5 350.5 c 128,-1,41
 184 340 184 340 169 340 c 2,42,-1
 148 340 l 2,43,44
 134 340 134 340 124 350 c 0,45,46
 115 360 115 360 115 374 c 2,47,-1
 116 406 l 1,48,-1
 116 625 l 2,49,50
 116 641 116 641 115 657 c 0,51,52
 114 671 114 671 124 681 c 128,-1,53
 134 691 134 691 148 690 c 0,54,55
 180 689 180 689 221 689 c 2,56,-1
 748 689 l 2,57,58
 762 689 762 689 777 690 c 0,0,1
903.099609375 849 m 4,59,60
 903 860 903 860 916.150390625 869.5 c 4,61,62
 929 879 929 879 948.099609375 878 c 4,63,64
 957 878 957 878 965.200195312 876 c 4,65,66
 978 873 978 873 983.200195312 869 c 4,67,68
 996 861 996 861 996.599609375 846 c 4,69,70
 1002 781 1002 781 1000.20019531 731 c 4,71,72
 1000 724 1000 724 994.799804688 717 c 4,73,74
 991 712 991 712 984.900390625 708 c 4,75,76
 968 697 968 697 950.900390625 697 c 4,77,78
 930 698 930 698 917.599609375 707 c 4,79,80
 906 715 906 715 905.900390625 731 c 4,81,82
 903 823 903 823 903.099609375 849 c 4,59,60
696.599609375 836 m 0,83,84
 696 844 696 844 699.299804688 849 c 0,85,86
 704 854 704 854 709.200195312 858 c 0,87,88
 723 867 723 867 741.599609375 867 c 0,89,90
 751 867 751 867 758.700195312 865 c 0,91,92
 768 863 768 863 774.900390625 858 c 0,93,94
 788 849 788 849 789.299804688 835 c 0,95,96
 793 776 793 776 790.200195312 749 c 0,97,98
 789 740 789 740 786.599609375 736 c 256,99,100
 782 730 782 730 775.799804688 726 c 0,101,102
 760 716 760 716 739.799804688 716 c 0,103,104
 731 716 731 716 723.599609375 718 c 0,105,106
 714 720 714 720 706.5 725 c 0,107,108
 694 736 694 736 694.799804688 749 c 0,109,110
 699 813 699 813 696.599609375 836 c 0,83,84
EndSplineSet
LCarets2: 1 0
Ligature2: "'ccmp' Glyph Composition/Decomposition lookup 5 subtable" cid01625 cid01539
EndChar

StartChar: cid01634
Encoding: 12536 12536 43
Width: 1024
GlyphClass: 3
Flags: W
LayerCount: 2
Fore
SplineSet
1016.15039062 711 m 0,0,1
 1016 706 1016 706 1013.45019531 700 c 256,2,3
 1009 692 1009 692 1004.45019531 689 c 0,4,5
 993 681 993 681 975.650390625 678.5 c 0,6,7
 959 676 959 676 946.849609375 682.5 c 0,8,9
 937 688 937 688 935.150390625 700 c 0,10,11
 926 762 926 762 923.450195312 821 c 4,12,13
 923 832 923 832 932.450195312 840.5 c 4,14,15
 946 852 946 852 958.549804688 852 c 4,16,17
 967 852 967 852 972.049804688 852 c 4,18,19
 981 851 981 851 988.25 848 c 4,20,21
 1001 842 1001 842 1002.65039062 831 c 4,22,23
 1017 750 1017 750 1016.15039062 711 c 0,0,1
853.849609375 700 m 0,24,25
 855 689 855 689 843.049804688 679.5 c 128,-1,26
 831 670 831 670 814.700195312 668 c 0,27,28
 798 666 798 666 785.900390625 672 c 0,29,30
 773 679 773 679 772.849609375 689 c 0,31,32
 773 708 773 708 763.849609375 807 c 0,33,34
 763 817 763 817 772.849609375 825.5 c 0,35,36
 783 834 783 834 797.150390625 836 c 0,37,38
 805 837 805 837 812.450195312 836 c 0,39,40
 821 835 821 835 826.849609375 832 c 0,41,42
 843 824 843 824 843.049804688 815 c 128,-1,43
 843 806 843 806 853.849609375 700 c 0,24,25
377 257 m 2,44,45
 377 253 377 253 381 253 c 2,46,-1
 620 253 l 2,47,48
 625 253 625 253 625 257 c 2,49,-1
 625 544 l 2,50,51
 625 549 625 549 620 549 c 2,52,-1
 381 549 l 2,53,54
 377 549 377 549 377 544 c 2,55,-1
 377 257 l 2,44,45
707 257 m 2,56,57
 707 253 707 253 711 253 c 2,58,-1
 844 253 l 2,59,60
 867 253 867 253 893 255 c 0,61,62
 908 257 908 257 918.5 247.5 c 128,-1,63
 929 238 929 238 929 224 c 2,64,-1
 929 208 l 2,65,66
 929 193 929 193 918.5 183.5 c 128,-1,67
 908 174 908 174 893 174 c 0,68,69
 875 175 875 175 844 175 c 2,70,-1
 711 175 l 2,71,72
 707 175 707 175 707 171 c 2,73,-1
 707 58 l 2,74,75
 707 28 707 28 708 -3 c 0,76,77
 708 -18 708 -18 698.5 -28.5 c 128,-1,78
 689 -39 689 -39 674 -39 c 2,79,-1
 656 -39 l 2,80,81
 642 -39 642 -39 632 -28.5 c 128,-1,82
 622 -18 622 -18 623 -4 c 0,83,84
 625 27 625 27 625 56 c 2,85,-1
 625 171 l 2,86,87
 625 175 625 175 620 175 c 2,88,-1
 171 175 l 2,89,90
 136 175 136 175 116 174 c 0,91,92
 102 174 102 174 91.5 183.5 c 128,-1,93
 81 193 81 193 81 208 c 2,94,-1
 81 224 l 2,95,96
 81 238 81 238 91.5 247 c 128,-1,97
 102 256 102 256 116 255 c 0,98,99
 145 253 145 253 171 253 c 2,100,-1
 292 253 l 2,101,102
 297 253 297 253 297 257 c 2,103,-1
 297 544 l 2,104,105
 297 549 297 549 292 549 c 2,106,-1
 209 549 l 2,107,108
 182 549 182 549 153 548 c 0,109,110
 139 547 139 547 128.5 557 c 128,-1,111
 118 567 118 567 118 581 c 2,112,-1
 118 594 l 2,113,114
 118 608 118 608 128.5 618 c 128,-1,115
 139 628 139 628 153 627 c 0,116,117
 184 625 184 625 209 625 c 2,118,-1
 620 625 l 2,119,120
 625 625 625 625 625 629 c 2,121,-1
 625 711 l 2,122,123
 625 725 625 725 623 747 c 0,124,125
 622 761 622 761 632 771.5 c 128,-1,126
 642 782 642 782 656 782 c 2,127,-1
 674 782 l 2,128,129
 688 782 688 782 698 771.5 c 128,-1,130
 708 761 708 761 707 747 c 0,131,132
 707 731 707 731 707 711 c 2,133,-1
 707 629 l 2,134,135
 707 625 707 625 711 625 c 2,136,-1
 818 625 l 2,137,138
 844 625 844 625 869 626 c 0,139,140
 883 627 883 627 893.5 617.5 c 128,-1,141
 904 608 904 608 904 594 c 2,142,-1
 904 581 l 2,143,144
 904 567 904 567 893.5 557.5 c 128,-1,145
 883 548 883 548 869 548 c 0,146,147
 850 549 850 549 818 549 c 2,148,-1
 711 549 l 2,149,150
 707 549 707 549 707 544 c 2,151,-1
 707 257 l 2,56,57
EndSplineSet
LCarets2: 1 0
Ligature2: "'ccmp' Glyph Composition/Decomposition lookup 5 subtable" cid01626 cid01539
EndChar

StartChar: cid01635
Encoding: 12537 12537 44
Width: 1024
GlyphClass: 3
Flags: W
LayerCount: 2
Fore
SplineSet
994 733 m 0,0,1
 994 726 994 726 989.5 721 c 256,2,3
 985 715 985 715 978.700195312 711 c 0,4,5
 964 702 964 702 945.400390625 701 c 0,6,7
 926 701 926 701 913 710 c 0,8,9
 901 718 901 718 901.299804688 734 c 0,10,11
 902 777 902 777 899.5 844 c 0,12,13
 899 856 899 856 912.099609375 865.5 c 0,14,15
 926 875 926 875 942.700195312 874 c 0,16,17
 952 874 952 874 959.799804688 873 c 0,18,19
 969 871 969 871 976.900390625 866 c 0,20,21
 990 859 990 859 991.299804688 844 c 0,22,23
 994 806 994 806 994 733 c 0,0,1
789.5 741 m 0,24,25
 789.5 728 789.5 728 774.200195312 718.5 c 128,-1,26
 758.900390625 709 758.900390625 709 740 709 c 0,27,28
 719.299804688 708 719.299804688 708 706.700195312 717.5 c 128,-1,29
 694.099609375 727 694.099609375 727 695 741 c 0,30,31
 699.5 788 699.5 788 695.900390625 841 c 0,32,33
 695 853 695 853 708.950195312 862 c 128,-1,34
 722.900390625 871 722.900390625 871 740 871 c 0,35,36
 749 871 749 871 757.099609375 869 c 256,37,38
 765.200195312 867 765.200195312 867 773.299804688 862 c 0,39,40
 786.799804688 853 786.799804688 853 787.700195312 840 c 0,41,42
 789.5 818 789.5 818 789.5 741 c 0,24,25
786 593 m 0,43,44
 789 597 789 597 784 597 c 2,45,-1
 239 597 l 2,46,47
 214 597 214 597 166 595 c 0,48,49
 151 594 151 594 140.5 604 c 128,-1,50
 130 614 130 614 130 628 c 2,51,-1
 130 646 l 2,52,53
 130 661 130 661 141 670 c 0,54,55
 150 679 150 679 163 679 c 0,56,57
 164 679 164 679 165 679 c 0,58,59
 205 676 205 676 234 676 c 2,60,-1
 799 676 l 2,61,62
 813 676 813 676 827 677 c 0,63,64
 834 678 834 678 841 678 c 0,65,66
 867 678 867 678 886 665 c 0,67,68
 897 657 897 657 899.5 643.5 c 128,-1,69
 902 630 902 630 895 619 c 0,70,71
 892 615 892 615 890 611 c 0,72,73
 860 555 860 555 808 488.5 c 128,-1,74
 756 422 756 422 700 371 c 0,75,76
 689 360 689 360 673 359 c 128,-1,77
 657 358 657 358 645 367 c 2,78,-1
 631 376 l 2,79,80
 621 384 621 384 620.5 396.5 c 128,-1,81
 620 409 620 409 631 418 c 0,82,83
 728 495 728 495 786 593 c 0,43,44
526 103 m 2,84,85
 526 98 526 98 531 98 c 2,86,-1
 850 98 l 2,87,88
 874 98 874 98 902 101 c 0,89,90
 916 102 916 102 926.5 92.5 c 128,-1,91
 937 83 937 83 937 69 c 2,92,-1
 937 46 l 2,93,94
 937 32 937 32 926.5 22.5 c 128,-1,95
 916 13 916 13 902 13 c 0,96,97
 882 14 882 14 850 14 c 2,98,-1
 166 14 l 2,99,100
 136 14 136 14 108 13 c 0,101,102
 107 13 107 13 106 13 c 0,103,104
 93 13 93 13 83 22 c 256,105,106
 73 31 73 31 73 46 c 2,107,-1
 73 69 l 2,108,109
 73 83 73 83 83.5 92.5 c 128,-1,110
 94 102 94 102 108 101 c 0,111,112
 138 98 138 98 166 98 c 2,113,-1
 436 98 l 2,114,115
 440 98 440 98 440 103 c 2,116,-1
 440 434 l 2,117,118
 440 464 440 464 440 481 c 0,119,120
 439 495 439 495 449 505.5 c 128,-1,121
 459 516 459 516 473 516 c 2,122,-1
 496 516 l 2,123,124
 510 516 510 516 519.5 505.5 c 128,-1,125
 529 495 529 495 528 481 c 0,126,127
 526 460 526 460 526 434 c 2,128,-1
 526 103 l 2,84,85
EndSplineSet
LCarets2: 1 0
Ligature2: "'ccmp' Glyph Composition/Decomposition lookup 5 subtable" cid01627 cid01539
EndChar

StartChar: cid01636
Encoding: 12538 12538 45
Width: 1024
GlyphClass: 3
Flags: W
LayerCount: 2
Fore
SplineSet
780.700195312 750 m 0,0,1
 780.700195312 737 780.700195312 737 764.950195312 727 c 128,-1,2
 749.200195312 717 749.200195312 717 730.299804688 717 c 0,3,4
 710.5 717 710.5 717 697.900390625 727 c 128,-1,5
 685.299804688 737 685.299804688 737 686.200195312 751 c 0,6,7
 688 806 688 806 686.200195312 836 c 0,8,9
 685.299804688 849 685.299804688 849 697.900390625 858 c 0,10,11
 708.700195312 866 708.700195312 866 730.299804688 867 c 0,12,13
 751 868 751 868 764.5 859 c 0,14,15
 778.900390625 849 778.900390625 849 779.799804688 835 c 0,16,17
 781.599609375 796 781.599609375 796 780.700195312 750 c 0,0,1
236 698 m 2,18,-1
 736 698 l 2,19,20
 751 698 751 698 764 699 c 0,21,22
 770 700 770 700 777 700 c 0,23,24
 807 700 807 700 829 686 c 2,25,-1
 834 683 l 2,26,27
 854 670 854 670 854 645 c 0,28,29
 854 638 854 638 853 630 c 0,30,31
 852 628 852 628 852 627 c 0,32,33
 801 351 801 351 732 243 c 0,34,35
 662 137 662 137 567.5 63 c 128,-1,36
 473 -11 473 -11 339 -61 c 0,37,38
 328 -65 328 -65 318 -65 c 0,39,40
 298 -65 298 -65 281 -47 c 2,41,-1
 263 -27 l 2,42,43
 255 -18 255 -18 258 -6.5 c 128,-1,44
 261 5 261 5 273 8 c 0,45,46
 520 78 520 78 652 271 c 0,47,48
 675 305 675 305 694 354 c 0,49,50
 695 358 695 358 691 358 c 2,51,-1
 250 358 l 2,52,53
 223 358 223 358 192 357 c 0,54,55
 178 356 178 356 167.5 365.5 c 128,-1,56
 157 375 157 375 157 390 c 2,57,-1
 157 403 l 2,58,59
 157 417 157 417 167.5 426.5 c 128,-1,60
 178 436 178 436 192 435 c 0,61,62
 220 433 220 433 248 433 c 2,63,-1
 716 433 l 2,64,65
 721 433 721 433 722 438 c 0,66,67
 746 525 746 525 759 616 c 0,68,69
 760 621 760 621 755 621 c 2,70,-1
 236 621 l 2,71,72
 201 621 201 621 165 619 c 0,73,74
 151 618 151 618 140.5 628 c 128,-1,75
 130 638 130 638 130 652 c 2,76,-1
 130 671 l 2,77,78
 130 685 130 685 140.5 694.5 c 128,-1,79
 151 704 151 704 165 702 c 0,80,81
 203 698 203 698 236 698 c 2,18,-1
887.700195312 846 m 4,82,83
 888 853 888 853 892.200195312 859 c 4,84,85
 895 863 895 863 900.299804688 867 c 4,86,87
 912 875 912 875 931.799804688 876 c 4,88,89
 941 876 941 876 948.900390625 874 c 4,90,91
 959 872 959 872 967.799804688 867 c 4,92,93
 980 859 980 859 981.299804688 844 c 4,94,95
 988 766 988 766 985.799804688 747 c 0,96,97
 985 741 985 741 980.400390625 734 c 0,98,99
 977 729 977 729 970.5 725 c 0,100,101
 953 715 953 715 933.599609375 714 c 0,102,103
 926 714 926 714 918.299804688 716 c 0,104,105
 908 719 908 719 901.200195312 724 c 0,106,107
 889 733 889 733 888.599609375 748 c 0,108,109
 887 822 887 822 887.700195312 846 c 4,82,83
EndSplineSet
LCarets2: 1 0
Ligature2: "'ccmp' Glyph Composition/Decomposition lookup 5 subtable" cid01628 cid01539
EndChar
